<svg width="908" height="126" viewBox="0 0 908 126" fill="none" xmlns="http://www.w3.org/2000/svg">
<g clipPath="url(#clip0_4051_31948)">
<path d="M0.5 8C0.5 3.85786 3.85786 0.5 8 0.5H900C904.142 0.5 907.5 3.85786 907.5 8V116C907.5 120.142 904.142 123.5 900 123.5H8.00001C3.85787 123.5 0.5 120.142 0.5 116V8Z" fill="#18181C" stroke="#232329"/>
<path fillRule="evenodd" clipRule="evenodd" d="M442.095 36C441.167 36 440.333 36 440.333 34.4791V32L436 32V38H430V42H438L436 43V44H432V48H440L437.475 49.2626C439.234 52.1181 442.394 54 446 54C449.271 54 452.176 52.4293 454 50.001C455.824 52.4293 458.729 54 462 54C465.606 54 468.766 52.1181 470.525 49.2626L468 48H476V44H472V43L470 42H478V38H472V32H467.667V34.4791C467.667 36 466.667 36 465.905 36H442.095ZM452 42L450 43C450 45.2091 448.209 47 446 47C443.791 47 442 45.2091 442 43L440 42H452ZM468 42L466 43C466 45.2091 464.209 47 462 47C459.791 47 458 45.2091 458 43L456 42H468Z" fill="#232329"/>
<rect x="25" width="1" height="124" fill="#232329"/>
<rect x="64" width="1" height="124" fill="#232329"/>
<rect x="103" width="1" height="124" fill="#232329"/>
<rect x="142" width="1" height="124" fill="#232329"/>
<rect x="181" width="1" height="124" fill="#232329"/>
<rect x="220" width="1" height="124" fill="#232329"/>
<rect x="259" width="1" height="124" fill="#232329"/>
<rect x="298" width="1" height="124" fill="#232329"/>
<rect x="337" width="1" height="124" fill="#232329"/>
<rect x="376" width="1" height="124" fill="#232329"/>
<rect x="415" width="1" height="124" fill="#232329"/>
<path d="M454 0H455V23H454V0Z" fill="#232329"/>
<path d="M454 63H455V126H454V63Z" fill="#232329"/>
<rect x="493" width="1" height="124" fill="#232329"/>
<rect x="532" width="1" height="124" fill="#232329"/>
<rect x="571" width="1" height="124" fill="#232329"/>
<rect x="610" width="1" height="124" fill="#232329"/>
<rect x="649" width="1" height="124" fill="#232329"/>
<rect x="688" width="1" height="124" fill="#232329"/>
<rect x="727" width="1" height="124" fill="#232329"/>
<rect x="766" width="1" height="124" fill="#232329"/>
<rect x="805" width="1" height="124" fill="#232329"/>
<rect x="844" width="1" height="124" fill="#232329"/>
<rect x="883" width="1" height="124" fill="#232329"/>
<rect y="24" width="1" height="908" transform="rotate(-90 0 24)" fill="#232329"/>
<rect y="63" width="1" height="908" transform="rotate(-90 0 63)" fill="#232329"/>
<rect y="102" width="1" height="908" transform="rotate(-90 0 102)" fill="#232329"/>
<path d="M143.849 82.0001L162 63.8485L180.152 82.0001L162 100.152L143.849 82.0001ZM611.844 43.0001L629.996 24.8485L648.147 43.0001L629.996 61.1517L611.844 43.0001ZM298.4 43C298.4 53.7143 289.714 62.4 279 62.4C268.286 62.4 259.6 53.7143 259.6 43C259.6 32.2857 268.286 23.6 279 23.6C289.714 23.6 298.4 32.2857 298.4 43ZM883.396 43C883.396 53.7143 874.71 62.4 863.995 62.4C853.281 62.4 844.595 53.7143 844.595 43C844.595 32.2857 853.281 23.6 863.995 23.6C874.71 23.6 883.396 32.2857 883.396 43Z" stroke="#232329" strokeWidth="1.2"/>
<path fillRule="evenodd" clipRule="evenodd" d="M43.9289 43.2553L25.4208 62.5916L26.2877 63.4214L44.7745 44.1073L63.9328 63.41L64.7845 62.5646L45.6045 43.2401L64.434 23.568L63.5671 22.7383L44.7589 42.3881L25.922 23.4093L25.0703 24.2547L43.9289 43.2553Z" fill="#232329"/>
<path fillRule="evenodd" clipRule="evenodd" d="M745.859 82.517L727.35 101.853L728.217 102.683L746.704 83.369L765.862 102.672L766.714 101.826L747.534 82.5018L766.364 62.8298L765.497 62L746.689 81.6499L727.852 62.6711L727 63.5164L745.859 82.517Z" fill="#232329"/>
</g>
<defs>
<clipPath id="clip0_4051_31948">
<rect width="908" height="126" rx="8" fill="white"/>
</clipPath>
</defs>
</svg>
