<svg width="678" height="100" viewBox="0 0 678 100" fill="none" xmlns="http://www.w3.org/2000/svg">
<g clipPath="url(#clip0_5217_35310)">
<rect width="678" height="100" rx="13" fill="#2C0909"/>
<g filter="url(#filter0_dddddd_5217_35310)">
<path d="M58.7182 49.5455L59.6636 50.4909L58.7182 51.4364H52.5727L51.6273 50.4909L52.5727 49.5455H58.7182ZM59.6636 59H51.8636C51.2333 58.8424 50.8394 58.4485 50.6818 57.8182L52.5727 57.1091H58.9545L59.6636 59ZM50.6818 57.3455V51.2L51.1545 50.7273L52.5727 52.1455V56.6364L50.6818 57.3455ZM58.9545 43.8727H52.5964L50.7055 43.1636C50.863 42.5333 51.257 42.1394 51.8873 41.9818H59.6636L58.9545 43.8727ZM52.5727 44.3455V48.8364L51.1545 50.2545L50.6818 49.7818V43.6364L52.5727 44.3455ZM70.0678 49.5455L71.0132 50.4909L70.0678 51.4364H63.9223L62.9769 50.4909L63.9223 49.5455H70.0678ZM71.486 50.7273L71.9587 51.2V57.8182C71.8011 58.4485 71.4072 58.8424 70.7769 59L70.0678 57.1091V52.1455L71.486 50.7273ZM69.5951 43.8727H63.946L62.0551 43.1636C62.2126 42.5333 62.6066 42.1394 63.2369 41.9818H70.3042L69.5951 43.8727ZM63.9223 44.3455V48.8364L62.5042 50.2545L62.0314 49.7818V43.6364L63.9223 44.3455ZM70.0678 48.8364V43.8727L70.7769 41.9818C71.4072 42.1394 71.8011 42.5333 71.9587 43.1636V49.7818L71.486 50.2545L70.0678 48.8364ZM63.9223 52.1455V57.1091L63.2132 59C62.5829 58.8424 62.189 58.4485 62.0314 57.8182V51.2L62.5042 50.7273L63.9223 52.1455ZM82.3569 49.5455L83.3023 50.4909L82.3569 51.4364H76.2114L75.2659 50.4909L76.2114 49.5455H82.3569ZM76.6841 51.9091H78.1023L84.2478 58.0545C83.9326 58.6848 83.3023 59 82.3569 59L76.6841 53.3273V51.9091ZM76.2114 52.1455V57.1091L75.5023 59C74.872 58.8424 74.4781 58.4485 74.3205 57.8182V51.2L74.7932 50.7273L76.2114 52.1455ZM81.8841 43.8727H76.235L74.3441 43.1636C74.5017 42.5333 74.8956 42.1394 75.5259 41.9818H82.5932L81.8841 43.8727ZM82.3569 48.8364V43.8727L83.0659 41.9818C83.6962 42.1394 84.0902 42.5333 84.2478 43.1636V49.7818L83.775 50.2545L82.3569 48.8364ZM76.2114 44.3455V48.8364L74.7932 50.2545L74.3205 49.7818V43.6364L76.2114 44.3455ZM88.5005 52.1455V57.1091L87.7914 59C87.1611 58.8424 86.7671 58.4485 86.6096 57.8182V51.2L87.0823 50.7273L88.5005 52.1455ZM94.1732 49.0727H92.5186L88.9732 45.5273V44.1091H90.3914L94.1732 47.8909V49.0727ZM96.0641 50.7273L96.5368 51.2V57.8182C96.3792 58.4485 95.9853 58.8424 95.355 59L94.6459 57.1091V52.1455L96.0641 50.7273ZM94.6459 49.0727V44.1091L95.355 42.2182C95.9853 42.3758 96.3792 42.7697 96.5368 43.4V50.0182L96.0641 50.4909L94.6459 49.0727ZM87.0823 50.4909L86.6096 50.0182V43.4C86.7671 42.7697 87.1611 42.3758 87.7914 42.2182L88.5005 44.1091V49.0727L87.0823 50.4909ZM105.983 48.8364V43.8727L106.692 41.9818C107.322 42.1394 107.716 42.5333 107.874 43.1636V49.7818L107.401 50.2545L105.983 48.8364ZM107.401 50.4909L107.874 50.9636V57.5818C107.716 58.2121 107.322 58.6061 106.692 58.7636L105.983 56.8727V51.9091L107.401 50.4909ZM115.188 50.7273L116.134 51.6727V57.8182C115.976 58.4485 115.582 58.8424 114.952 59L114.243 57.1091V51.6727L115.188 50.7273ZM114.243 49.3091V44.3455H116.134V49.3091L115.188 50.2545L114.243 49.3091ZM112.139 43.8727L110.248 43.1636C110.406 42.5333 110.8 42.1394 111.43 41.9818H118.97C119.6 42.1394 119.994 42.5333 120.152 43.1636L118.261 43.8727H112.139ZM130.548 49.5455L131.494 50.4909L130.548 51.4364H124.403L123.457 50.4909L124.403 49.5455H130.548ZM131.494 59H123.694C123.063 58.8424 122.669 58.4485 122.512 57.8182L124.403 57.1091H130.785L131.494 59ZM122.512 57.3455V51.2L122.985 50.7273L124.403 52.1455V56.6364L122.512 57.3455ZM130.785 43.8727H124.426L122.536 43.1636C122.693 42.5333 123.087 42.1394 123.717 41.9818H131.494L130.785 43.8727ZM124.403 44.3455V48.8364L122.985 50.2545L122.512 49.7818V43.6364L124.403 44.3455ZM139.771 49.7818L138.825 50.7273L137.88 49.7818V44.3455H139.771V49.7818ZM143.316 50.7273L143.789 51.2V57.8182C143.631 58.4485 143.237 58.8424 142.607 59L141.898 57.1091V52.1455L143.316 50.7273ZM141.425 43.8727H135.776L133.885 43.1636C134.043 42.5333 134.437 42.1394 135.067 41.9818H142.134L141.425 43.8727ZM135.752 44.3455V48.8364L134.334 50.2545L133.862 49.7818V43.6364L135.752 44.3455ZM141.898 48.8364V43.8727L142.607 41.9818C143.237 42.1394 143.631 42.5333 143.789 43.1636V49.7818L143.316 50.2545L141.898 48.8364ZM135.752 52.1455V57.1091L135.043 59C134.413 58.8424 134.019 58.4485 133.862 57.8182V51.2L134.334 50.7273L135.752 52.1455ZM161.271 49.5455L162.216 50.4909L161.271 51.4364H155.125L154.18 50.4909L155.125 49.5455H161.271ZM155.598 51.9091H157.016L163.162 58.0545C162.847 58.6848 162.216 59 161.271 59L155.598 53.3273V51.9091ZM155.125 52.1455V57.1091L154.416 59C153.786 58.8424 153.392 58.4485 153.235 57.8182V51.2L153.707 50.7273L155.125 52.1455ZM160.798 43.8727H155.149L153.258 43.1636C153.416 42.5333 153.81 42.1394 154.44 41.9818H161.507L160.798 43.8727ZM161.271 48.8364V43.8727L161.98 41.9818C162.61 42.1394 163.004 42.5333 163.162 43.1636V49.7818L162.689 50.2545L161.271 48.8364ZM155.125 44.3455V48.8364L153.707 50.2545L153.235 49.7818V43.6364L155.125 44.3455ZM173.56 49.5455L174.505 50.4909L173.56 51.4364H167.415L166.469 50.4909L167.415 49.5455H173.56ZM174.505 59H166.705C166.075 58.8424 165.681 58.4485 165.524 57.8182L167.415 57.1091H173.796L174.505 59ZM165.524 57.3455V51.2L165.996 50.7273L167.415 52.1455V56.6364L165.524 57.3455ZM173.796 43.8727H167.438L165.547 43.1636C165.705 42.5333 166.099 42.1394 166.729 41.9818H174.505L173.796 43.8727ZM167.415 44.3455V48.8364L165.996 50.2545L165.524 49.7818V43.6364L167.415 44.3455ZM182.782 56.6364H180.891V51.2L181.837 50.2545L182.782 51.2V56.6364ZM184.91 48.8364V43.8727L185.619 41.9818C186.249 42.1394 186.643 42.5333 186.8 43.1636V49.7818L186.328 50.2545L184.91 48.8364ZM185.146 59H178.079C177.448 58.8424 177.054 58.4485 176.897 57.8182L178.788 57.1091H184.437L185.146 59ZM176.873 57.3455V51.2L177.346 50.7273L178.764 52.1455V56.6364L176.873 57.3455ZM186.328 50.7273L186.8 51.2V57.8182C186.643 58.4485 186.249 58.8424 185.619 59L184.91 57.1091V52.1455L186.328 50.7273ZM177.346 50.2545L176.873 49.7818V43.1636C177.031 42.5333 177.425 42.1394 178.055 41.9818L178.764 43.8727V48.8364L177.346 50.2545ZM197.199 49.5455L198.144 50.4909L197.199 51.4364H191.053L190.108 50.4909L191.053 49.5455H197.199ZM198.617 50.7273L199.09 51.2V57.8182C198.932 58.4485 198.538 58.8424 197.908 59L197.199 57.1091V52.1455L198.617 50.7273ZM196.726 43.8727H191.077L189.186 43.1636C189.343 42.5333 189.737 42.1394 190.368 41.9818H197.435L196.726 43.8727ZM191.053 44.3455V48.8364L189.635 50.2545L189.162 49.7818V43.6364L191.053 44.3455ZM197.199 48.8364V43.8727L197.908 41.9818C198.538 42.1394 198.932 42.5333 199.09 43.1636V49.7818L198.617 50.2545L197.199 48.8364ZM191.053 52.1455V57.1091L190.344 59C189.714 58.8424 189.32 58.4485 189.162 57.8182V51.2L189.635 50.7273L191.053 52.1455ZM209.488 49.5455L210.433 50.4909L209.488 51.4364H203.342L202.397 50.4909L203.342 49.5455H209.488ZM203.815 51.9091H205.233L211.379 58.0545C211.063 58.6848 210.433 59 209.488 59L203.815 53.3273V51.9091ZM203.342 52.1455V57.1091L202.633 59C202.003 58.8424 201.609 58.4485 201.451 57.8182V51.2L201.924 50.7273L203.342 52.1455ZM209.015 43.8727H203.366L201.475 43.1636C201.633 42.5333 202.027 42.1394 202.657 41.9818H209.724L209.015 43.8727ZM209.488 48.8364V43.8727L210.197 41.9818C210.827 42.1394 211.221 42.5333 211.379 43.1636V49.7818L210.906 50.2545L209.488 48.8364ZM203.342 44.3455V48.8364L201.924 50.2545L201.451 49.7818V43.6364L203.342 44.3455ZM213.74 57.3455V51.2L214.213 50.7273L215.631 52.1455V56.6364L213.74 57.3455ZM221.304 43.8727H215.631L213.74 43.1636V41.9818H221.304L222.25 42.9273L221.304 43.8727ZM215.631 44.3455V48.8364L214.213 50.2545L213.74 49.7818V43.6364L215.631 44.3455ZM221.777 48.8364V43.8727L222.486 43.1636L223.668 44.3455V49.7818L223.195 50.2545L221.777 48.8364ZM223.195 50.7273L223.668 51.2V56.6364L222.486 57.8182L221.777 57.1091V52.1455L223.195 50.7273ZM222.226 58.0545L221.28 59H213.74V57.8182L215.631 57.1091H221.28L222.226 58.0545ZM234.066 49.5455L235.011 50.4909L234.066 51.4364H227.92L226.975 50.4909L227.92 49.5455H234.066ZM235.484 50.7273L235.957 51.2V57.8182C235.799 58.4485 235.405 58.8424 234.775 59L234.066 57.1091V52.1455L235.484 50.7273ZM234.302 59H227.211C226.581 58.8424 226.187 58.4485 226.029 57.8182L227.92 57.1091H233.593L234.302 59ZM227.92 44.3455V48.8364L226.502 50.2545L226.029 49.7818V43.6364L227.92 44.3455ZM227.944 43.8727L226.053 43.1636C226.211 42.5333 226.605 42.1394 227.235 41.9818H234.775C235.405 42.1394 235.799 42.5333 235.957 43.1636L234.066 43.8727H227.944ZM251.312 56.6364H249.421V51.2L250.366 50.2545L251.312 51.2V56.6364ZM253.439 48.8364V43.8727L254.148 41.9818C254.778 42.1394 255.172 42.5333 255.33 43.1636V49.7818L254.857 50.2545L253.439 48.8364ZM253.675 59H246.608C245.978 58.8424 245.584 58.4485 245.426 57.8182L247.317 57.1091H252.966L253.675 59ZM245.403 57.3455V51.2L245.875 50.7273L247.293 52.1455V56.6364L245.403 57.3455ZM254.857 50.7273L255.33 51.2V57.8182C255.172 58.4485 254.778 58.8424 254.148 59L253.439 57.1091V52.1455L254.857 50.7273ZM245.875 50.2545L245.403 49.7818V43.1636C245.56 42.5333 245.954 42.1394 246.584 41.9818L247.293 43.8727V48.8364L245.875 50.2545ZM265.728 49.5455L266.673 50.4909L265.728 51.4364H259.582L258.637 50.4909L259.582 49.5455H265.728ZM267.146 50.7273L267.619 51.2V57.8182C267.461 58.4485 267.067 58.8424 266.437 59L265.728 57.1091V52.1455L267.146 50.7273ZM265.728 48.8364V43.8727L266.437 41.9818C267.067 42.1394 267.461 42.5333 267.619 43.1636V49.7818L267.146 50.2545L265.728 48.8364ZM259.582 52.1455V57.1091L258.873 59C258.243 58.8424 257.849 58.4485 257.692 57.8182V51.2L258.164 50.7273L259.582 52.1455ZM258.164 50.4909L257.692 50.0182V43.4C257.849 42.7697 258.243 42.3758 258.873 42.2182L259.582 44.1091V49.0727L258.164 50.4909ZM269.981 48.8364V43.8727L270.69 41.9818C271.32 42.1394 271.714 42.5333 271.872 43.1636V49.7818L271.399 50.2545L269.981 48.8364ZM271.399 50.4909L271.872 50.9636V57.5818C271.714 58.2121 271.32 58.6061 270.69 58.7636L269.981 56.8727V51.9091L271.399 50.4909ZM276.137 52.1455V57.1091L275.428 59C274.798 58.8424 274.404 58.4485 274.246 57.8182V51.2L274.719 50.7273L276.137 52.1455ZM276.61 57.1091H282.283L284.174 57.8182C284.016 58.4485 283.622 58.8424 282.992 59H275.901L276.61 57.1091ZM274.719 50.2545L274.246 49.7818V43.1636C274.404 42.5333 274.798 42.1394 275.428 41.9818L276.137 43.8727V48.8364L274.719 50.2545ZM294.572 49.5455L295.517 50.4909L294.572 51.4364H288.426L287.481 50.4909L288.426 49.5455H294.572ZM295.517 59H287.717C287.087 58.8424 286.693 58.4485 286.535 57.8182L288.426 57.1091H294.808L295.517 59ZM286.535 57.3455V51.2L287.008 50.7273L288.426 52.1455V56.6364L286.535 57.3455ZM294.808 43.8727H288.45L286.559 43.1636C286.717 42.5333 287.11 42.1394 287.741 41.9818H295.517L294.808 43.8727ZM288.426 44.3455V48.8364L287.008 50.2545L286.535 49.7818V43.6364L288.426 44.3455ZM313.005 49.5455L313.951 50.4909L313.005 51.4364H306.86L305.914 50.4909L306.86 49.5455H313.005ZM314.423 50.7273L314.896 51.2V57.8182C314.739 58.4485 314.345 58.8424 313.714 59L313.005 57.1091V52.1455L314.423 50.7273ZM313.242 59H306.151C305.52 58.8424 305.127 58.4485 304.969 57.8182L306.86 57.1091H312.533L313.242 59ZM306.86 43.6364V48.8364L305.442 50.2545L304.969 49.7818V42.9273L306.86 43.6364ZM313.005 48.8364V43.8727L313.714 41.9818C314.345 42.1394 314.739 42.5333 314.896 43.1636V49.7818L314.423 50.2545L313.005 48.8364ZM324.822 43.8727H319.622L318.676 42.9273L319.622 41.9818H324.822L325.767 42.9273L324.822 43.8727ZM325.294 48.8364V43.8727L326.003 43.1636L327.185 44.3455V49.7818L326.713 50.2545L325.294 48.8364ZM326.713 50.7273L327.185 51.2V56.6364L326.003 57.8182L325.294 57.1091V52.1455L326.713 50.7273ZM317.731 50.2545L317.258 49.7818V44.3455L318.44 43.1636L319.149 43.8727V48.8364L317.731 50.2545ZM325.767 58.0545L324.822 59H319.622L318.676 58.0545L319.622 57.1091H324.822L325.767 58.0545ZM319.149 52.1455V57.1091L318.44 57.8182L317.258 56.6364V51.2L317.731 50.7273L319.149 52.1455ZM339.002 50.7273L339.474 51.2V57.8182C339.317 58.4485 338.923 58.8424 338.293 59L337.583 57.1091V52.1455L339.002 50.7273ZM337.82 59H330.729C330.099 58.8424 329.705 58.4485 329.547 57.8182L331.438 57.1091H337.111L337.82 59ZM329.547 57.3455V51.2L330.02 50.7273L331.438 52.1455V56.6364L329.547 57.3455ZM337.583 48.8364V43.8727L338.293 41.9818C338.923 42.1394 339.317 42.5333 339.474 43.1636V49.7818L339.002 50.2545L337.583 48.8364ZM330.02 50.4909L329.547 50.0182V43.4C329.705 42.7697 330.099 42.3758 330.729 42.2182L331.438 44.1091V49.0727L330.02 50.4909ZM356.956 49.5455L357.902 50.4909L356.956 51.4364H350.811L349.866 50.4909L350.811 49.5455H356.956ZM356.484 43.8727H350.811L348.92 43.1636V41.9818H356.484L357.429 42.9273L356.484 43.8727ZM350.811 44.3455V48.8364L349.393 50.2545L348.92 49.7818V43.6364L350.811 44.3455ZM356.956 48.8364V43.8727L357.666 43.1636L358.847 44.3455V49.7818L358.375 50.2545L356.956 48.8364ZM350.811 52.1455V57.1091L350.102 59C349.472 58.8424 349.078 58.4485 348.92 57.8182V51.2L349.393 50.7273L350.811 52.1455ZM363.1 52.1455V57.1091L362.391 59C361.761 58.8424 361.367 58.4485 361.209 57.8182V51.2L361.682 50.7273L363.1 52.1455ZM363.573 57.1091H369.246L371.136 57.8182C370.979 58.4485 370.585 58.8424 369.955 59H362.864L363.573 57.1091ZM361.682 50.2545L361.209 49.7818V43.1636C361.367 42.5333 361.761 42.1394 362.391 41.9818L363.1 43.8727V48.8364L361.682 50.2545ZM381.535 49.5455L382.48 50.4909L381.535 51.4364H375.389L374.444 50.4909L375.389 49.5455H381.535ZM382.953 50.7273L383.425 51.2V57.8182C383.268 58.4485 382.874 58.8424 382.244 59L381.535 57.1091V52.1455L382.953 50.7273ZM381.062 43.8727H375.413L373.522 43.1636C373.679 42.5333 374.073 42.1394 374.704 41.9818H381.771L381.062 43.8727ZM375.389 44.3455V48.8364L373.971 50.2545L373.498 49.7818V43.6364L375.389 44.3455ZM381.535 48.8364V43.8727L382.244 41.9818C382.874 42.1394 383.268 42.5333 383.425 43.1636V49.7818L382.953 50.2545L381.535 48.8364ZM375.389 52.1455V57.1091L374.68 59C374.05 58.8424 373.656 58.4485 373.498 57.8182V51.2L373.971 50.7273L375.389 52.1455ZM393.824 49.5455L394.769 50.4909L393.824 51.4364H387.678L386.733 50.4909L387.678 49.5455H393.824ZM395.242 50.7273L395.715 51.2V57.8182C395.557 58.4485 395.163 58.8424 394.533 59L393.824 57.1091V52.1455L395.242 50.7273ZM394.06 59H386.969C386.339 58.8424 385.945 58.4485 385.787 57.8182L387.678 57.1091H393.351L394.06 59ZM387.678 43.6364V48.8364L386.26 50.2545L385.787 49.7818V42.9273L387.678 43.6364ZM393.824 48.8364V43.8727L394.533 41.9818C395.163 42.1394 395.557 42.5333 395.715 43.1636V49.7818L395.242 50.2545L393.824 48.8364ZM413.197 49.5455L414.142 50.4909L413.197 51.4364H407.051L406.106 50.4909L407.051 49.5455H413.197ZM414.615 50.7273L415.088 51.2V57.8182C414.93 58.4485 414.536 58.8424 413.906 59L413.197 57.1091V52.1455L414.615 50.7273ZM413.433 59H406.342C405.712 58.8424 405.318 58.4485 405.16 57.8182L407.051 57.1091H412.724L413.433 59ZM407.051 43.6364V48.8364L405.633 50.2545L405.16 49.7818V42.9273L407.051 43.6364ZM413.197 48.8364V43.8727L413.906 41.9818C414.536 42.1394 414.93 42.5333 415.088 43.1636V49.7818L414.615 50.2545L413.197 48.8364ZM425.013 43.8727H419.813L418.868 42.9273L419.813 41.9818H425.013L425.958 42.9273L425.013 43.8727ZM425.486 48.8364V43.8727L426.195 43.1636L427.377 44.3455V49.7818L426.904 50.2545L425.486 48.8364ZM426.904 50.7273L427.377 51.2V56.6364L426.195 57.8182L425.486 57.1091V52.1455L426.904 50.7273ZM417.922 50.2545L417.449 49.7818V44.3455L418.631 43.1636L419.34 43.8727V48.8364L417.922 50.2545ZM425.958 58.0545L425.013 59H419.813L418.868 58.0545L419.813 57.1091H425.013L425.958 58.0545ZM419.34 52.1455V57.1091L418.631 57.8182L417.449 56.6364V51.2L417.922 50.7273L419.34 52.1455ZM439.193 50.7273L439.666 51.2V57.8182C439.508 58.4485 439.114 58.8424 438.484 59L437.775 57.1091V52.1455L439.193 50.7273ZM438.011 59H430.92C430.29 58.8424 429.896 58.4485 429.738 57.8182L431.629 57.1091H437.302L438.011 59ZM429.738 57.3455V51.2L430.211 50.7273L431.629 52.1455V56.6364L429.738 57.3455ZM437.775 48.8364V43.8727L438.484 41.9818C439.114 42.1394 439.508 42.5333 439.666 43.1636V49.7818L439.193 50.2545L437.775 48.8364ZM430.211 50.4909L429.738 50.0182V43.4C429.896 42.7697 430.29 42.3758 430.92 42.2182L431.629 44.1091V49.0727L430.211 50.4909ZM450.064 49.5455L451.009 50.4909L450.064 51.4364H443.918L442.973 50.4909L443.918 49.5455H450.064ZM444.391 51.9091H445.809L451.955 58.0545C451.64 58.6848 451.009 59 450.064 59L444.391 53.3273V51.9091ZM443.918 52.1455V57.1091L443.209 59C442.579 58.8424 442.185 58.4485 442.028 57.8182V51.2L442.5 50.7273L443.918 52.1455ZM449.591 43.8727H443.942L442.051 43.1636C442.209 42.5333 442.603 42.1394 443.233 41.9818H450.3L449.591 43.8727ZM450.064 48.8364V43.8727L450.773 41.9818C451.403 42.1394 451.797 42.5333 451.955 43.1636V49.7818L451.482 50.2545L450.064 48.8364ZM443.918 44.3455V48.8364L442.5 50.2545L442.028 49.7818V43.6364L443.918 44.3455ZM469.437 49.5455L470.382 50.4909L469.437 51.4364H463.291L462.346 50.4909L463.291 49.5455H469.437ZM469.673 43.8727H463.315L461.424 43.1636C461.582 42.5333 461.976 42.1394 462.606 41.9818H470.382L469.673 43.8727ZM463.291 44.3455V48.8364L461.873 50.2545L461.401 49.7818V43.6364L463.291 44.3455ZM463.291 52.1455V57.1091L462.582 59C461.952 58.8424 461.558 58.4485 461.401 57.8182V51.2L461.873 50.7273L463.291 52.1455ZM480.787 49.5455L481.732 50.4909L480.787 51.4364H474.641L473.696 50.4909L474.641 49.5455H480.787ZM482.205 50.7273L482.677 51.2V57.8182C482.52 58.4485 482.126 58.8424 481.496 59L480.787 57.1091V52.1455L482.205 50.7273ZM480.314 43.8727H474.665L472.774 43.1636C472.931 42.5333 473.325 42.1394 473.956 41.9818H481.023L480.314 43.8727ZM474.641 44.3455V48.8364L473.223 50.2545L472.75 49.7818V43.6364L474.641 44.3455ZM480.787 48.8364V43.8727L481.496 41.9818C482.126 42.1394 482.52 42.5333 482.677 43.1636V49.7818L482.205 50.2545L480.787 48.8364ZM474.641 52.1455V57.1091L473.932 59C473.302 58.8424 472.908 58.4485 472.75 57.8182V51.2L473.223 50.7273L474.641 52.1455ZM485.512 50.4909L485.039 50.0182V43.4C485.197 42.7697 485.591 42.3758 486.221 42.2182L486.93 44.1091V49.0727L485.512 50.4909ZM493.076 49.0727V44.1091L493.785 42.2182C494.415 42.3758 494.809 42.7697 494.967 43.4V50.0182L494.494 50.4909L493.076 49.0727ZM489.767 56.1636V59L485.039 52.8545V51.4364L485.512 50.9636L486.93 52.3818L489.767 56.1636ZM493.076 52.3818L494.494 50.9636L494.967 51.4364V52.8545L490.239 59V56.1636L493.076 52.3818ZM504.892 43.8727H499.692L498.746 42.9273L499.692 41.9818H504.892L505.837 42.9273L504.892 43.8727ZM505.365 48.8364V43.8727L506.074 43.1636L507.256 44.3455V49.7818L506.783 50.2545L505.365 48.8364ZM506.783 50.7273L507.256 51.2V56.6364L506.074 57.8182L505.365 57.1091V52.1455L506.783 50.7273ZM497.801 50.2545L497.328 49.7818V44.3455L498.51 43.1636L499.219 43.8727V48.8364L497.801 50.2545ZM505.837 58.0545L504.892 59H499.692L498.746 58.0545L499.692 57.1091H504.892L505.837 58.0545ZM499.219 52.1455V57.1091L498.51 57.8182L497.328 56.6364V51.2L497.801 50.7273L499.219 52.1455ZM517.654 49.5455L518.599 50.4909L517.654 51.4364H511.508L510.563 50.4909L511.508 49.5455H517.654ZM511.981 51.9091H513.399L519.545 58.0545C519.229 58.6848 518.599 59 517.654 59L511.981 53.3273V51.9091ZM511.508 52.1455V57.1091L510.799 59C510.169 58.8424 509.775 58.4485 509.617 57.8182V51.2L510.09 50.7273L511.508 52.1455ZM517.181 43.8727H511.532L509.641 43.1636C509.799 42.5333 510.193 42.1394 510.823 41.9818H517.89L517.181 43.8727ZM517.654 48.8364V43.8727L518.363 41.9818C518.993 42.1394 519.387 42.5333 519.545 43.1636V49.7818L519.072 50.2545L517.654 48.8364ZM511.508 44.3455V48.8364L510.09 50.2545L509.617 49.7818V43.6364L511.508 44.3455ZM521.906 48.8364V43.8727L522.616 41.9818C523.246 42.1394 523.64 42.5333 523.797 43.1636V49.7818L523.325 50.2545L521.906 48.8364ZM523.325 50.4909L523.797 50.9636V57.5818C523.64 58.2121 523.246 58.6061 522.616 58.7636L521.906 56.8727V51.9091L523.325 50.4909ZM531.112 50.7273L532.058 51.6727V57.8182C531.9 58.4485 531.506 58.8424 530.876 59L530.167 57.1091V51.6727L531.112 50.7273ZM530.167 49.3091V44.3455H532.058V49.3091L531.112 50.2545L530.167 49.3091ZM528.063 43.8727L526.172 43.1636C526.33 42.5333 526.724 42.1394 527.354 41.9818H534.894C535.524 42.1394 535.918 42.5333 536.076 43.1636L534.185 43.8727H528.063ZM544.345 56.6364H542.454V51.2L543.399 50.2545L544.345 51.2V56.6364ZM546.472 48.8364V43.8727L547.181 41.9818C547.811 42.1394 548.205 42.5333 548.363 43.1636V49.7818L547.89 50.2545L546.472 48.8364ZM546.708 59H539.641C539.011 58.8424 538.617 58.4485 538.459 57.8182L540.35 57.1091H545.999L546.708 59ZM538.436 57.3455V51.2L538.908 50.7273L540.327 52.1455V56.6364L538.436 57.3455ZM547.89 50.7273L548.363 51.2V57.8182C548.205 58.4485 547.811 58.8424 547.181 59L546.472 57.1091V52.1455L547.89 50.7273ZM538.908 50.2545L538.436 49.7818V43.1636C538.593 42.5333 538.987 42.1394 539.618 41.9818L540.327 43.8727V48.8364L538.908 50.2545ZM558.761 49.5455L559.707 50.4909L558.761 51.4364H552.616L551.67 50.4909L552.616 49.5455H558.761ZM559.707 59H551.907C551.276 58.8424 550.882 58.4485 550.725 57.8182L552.616 57.1091H558.998L559.707 59ZM550.725 57.3455V51.2L551.198 50.7273L552.616 52.1455V56.6364L550.725 57.3455ZM558.998 43.8727H552.639L550.748 43.1636C550.906 42.5333 551.3 42.1394 551.93 41.9818H559.707L558.998 43.8727ZM552.616 44.3455V48.8364L551.198 50.2545L550.725 49.7818V43.6364L552.616 44.3455ZM577.195 49.5455L578.14 50.4909L577.195 51.4364H575.067L574.122 50.4909L575.067 49.5455H577.195ZM578.613 50.7273L579.086 51.2V57.8182C578.928 58.4485 578.534 58.8424 577.904 59L577.195 57.1091V52.1455L578.613 50.7273ZM577.431 59H570.34C569.71 58.8424 569.316 58.4485 569.158 57.8182L571.049 57.1091H576.722L577.431 59ZM569.158 57.3455V51.2L569.631 50.7273L571.049 52.1455V56.6364L569.158 57.3455ZM577.431 43.8727H571.073L569.182 43.1636C569.34 42.5333 569.734 42.1394 570.364 41.9818H578.14L577.431 43.8727ZM571.049 44.3455V48.8364L569.631 50.2545L569.158 49.7818V43.6364L571.049 44.3455ZM589.484 49.5455L590.429 50.4909L589.484 51.4364H583.338L582.393 50.4909L583.338 49.5455H589.484ZM590.902 50.7273L591.375 51.2V57.8182C591.217 58.4485 590.823 58.8424 590.193 59L589.484 57.1091V52.1455L590.902 50.7273ZM589.011 43.8727H583.362L581.471 43.1636C581.629 42.5333 582.023 42.1394 582.653 41.9818H589.72L589.011 43.8727ZM583.338 44.3455V48.8364L581.92 50.2545L581.447 49.7818V43.6364L583.338 44.3455ZM589.484 48.8364V43.8727L590.193 41.9818C590.823 42.1394 591.217 42.5333 591.375 43.1636V49.7818L590.902 50.2545L589.484 48.8364ZM583.338 52.1455V57.1091L582.629 59C581.999 58.8424 581.605 58.4485 581.447 57.8182V51.2L581.92 50.7273L583.338 52.1455ZM599.646 49.7818L598.7 50.7273L597.755 49.7818V44.3455H599.646V49.7818ZM603.191 50.7273L603.664 51.2V57.8182C603.506 58.4485 603.112 58.8424 602.482 59L601.773 57.1091V52.1455L603.191 50.7273ZM601.3 43.8727H595.651L593.76 43.1636C593.918 42.5333 594.312 42.1394 594.942 41.9818H602.009L601.3 43.8727ZM595.627 44.3455V48.8364L594.209 50.2545L593.737 49.7818V43.6364L595.627 44.3455ZM601.773 48.8364V43.8727L602.482 41.9818C603.112 42.1394 603.506 42.5333 603.664 43.1636V49.7818L603.191 50.2545L601.773 48.8364ZM595.627 52.1455V57.1091L594.918 59C594.288 58.8424 593.894 58.4485 593.737 57.8182V51.2L594.209 50.7273L595.627 52.1455ZM614.062 49.5455L615.007 50.4909L614.062 51.4364H607.916L606.971 50.4909L607.916 49.5455H614.062ZM615.007 59H607.207C606.577 58.8424 606.183 58.4485 606.026 57.8182L607.916 57.1091H614.298L615.007 59ZM606.026 57.3455V51.2L606.498 50.7273L607.916 52.1455V56.6364L606.026 57.3455ZM614.298 43.8727H607.94L606.049 43.1636C606.207 42.5333 606.601 42.1394 607.231 41.9818H615.007L614.298 43.8727ZM607.916 44.3455V48.8364L606.498 50.2545L606.026 49.7818V43.6364L607.916 44.3455ZM625.412 49.5455L626.357 50.4909L625.412 51.4364H619.266L618.321 50.4909L619.266 49.5455H625.412ZM626.83 50.7273L627.302 51.2V57.8182C627.145 58.4485 626.751 58.8424 626.121 59L625.412 57.1091V52.1455L626.83 50.7273ZM625.648 59H618.557C617.927 58.8424 617.533 58.4485 617.375 57.8182L619.266 57.1091H624.939L625.648 59ZM619.266 44.3455V48.8364L617.848 50.2545L617.375 49.7818V43.6364L619.266 44.3455ZM619.29 43.8727L617.399 43.1636C617.556 42.5333 617.95 42.1394 618.581 41.9818H626.121C626.751 42.1394 627.145 42.5333 627.302 43.1636L625.412 43.8727H619.29Z" fill="#F42728"/>
</g>
<g filter="url(#filter1_b_5217_35310)">
<path d="M0 -22H678V-21H0V-22Z" fill="#E1E2E2" fillOpacity="0.04"/>
<path d="M0 -20H678V-19H0V-20Z" fill="#E1E2E2" fillOpacity="0.04"/>
<path d="M0 -18H678V-17H0V-18Z" fill="#E1E2E2" fillOpacity="0.04"/>
<path d="M0 -16H678V-15H0V-16Z" fill="#E1E2E2" fillOpacity="0.04"/>
<path d="M0 -14H678V-13H0V-14Z" fill="#E1E2E2" fillOpacity="0.04"/>
<path d="M0 -12H678V-11H0V-12Z" fill="#E1E2E2" fillOpacity="0.04"/>
<path d="M0 -10H678V-9H0V-10Z" fill="#E1E2E2" fillOpacity="0.04"/>
<path d="M0 -8H678V-7H0V-8Z" fill="#E1E2E2" fillOpacity="0.04"/>
<path d="M0 -6H678V-5H0V-6Z" fill="#E1E2E2" fillOpacity="0.04"/>
<path d="M0 -4H678V-3H0V-4Z" fill="#E1E2E2" fillOpacity="0.04"/>
<path d="M0 -2H678V-1H0V-2Z" fill="#E1E2E2" fillOpacity="0.04"/>
<path d="M0 0H678V1H0V0Z" fill="#E1E2E2" fillOpacity="0.04"/>
<path d="M0 2H678V3H0V2Z" fill="#E1E2E2" fillOpacity="0.04"/>
<path d="M0 4H678V5H0V4Z" fill="#E1E2E2" fillOpacity="0.04"/>
<path d="M0 6H678V7H0V6Z" fill="#E1E2E2" fillOpacity="0.04"/>
<path d="M0 8H678V9H0V8Z" fill="#E1E2E2" fillOpacity="0.04"/>
<path d="M0 10H678V11H0V10Z" fill="#E1E2E2" fillOpacity="0.04"/>
<path d="M0 12H678V13H0V12Z" fill="#E1E2E2" fillOpacity="0.04"/>
<path d="M0 14H678V15H0V14Z" fill="#E1E2E2" fillOpacity="0.04"/>
<path d="M0 16H678V17H0V16Z" fill="#E1E2E2" fillOpacity="0.04"/>
<path d="M0 18H678V19H0V18Z" fill="#E1E2E2" fillOpacity="0.04"/>
<path d="M0 20H678V21H0V20Z" fill="#E1E2E2" fillOpacity="0.04"/>
<path d="M0 22H678V23H0V22Z" fill="#E1E2E2" fillOpacity="0.04"/>
<path d="M0 24H678V25H0V24Z" fill="#E1E2E2" fillOpacity="0.04"/>
<path d="M0 26H678V27H0V26Z" fill="#E1E2E2" fillOpacity="0.04"/>
<path d="M0 28H678V29H0V28Z" fill="#E1E2E2" fillOpacity="0.04"/>
<path d="M0 30H678V31H0V30Z" fill="#E1E2E2" fillOpacity="0.04"/>
<path d="M0 32H678V33H0V32Z" fill="#E1E2E2" fillOpacity="0.04"/>
<path d="M0 34H678V35H0V34Z" fill="#E1E2E2" fillOpacity="0.04"/>
<path d="M0 36H678V37H0V36Z" fill="#E1E2E2" fillOpacity="0.04"/>
<path d="M0 38H678V39H0V38Z" fill="#E1E2E2" fillOpacity="0.04"/>
<path d="M0 40H678V41H0V40Z" fill="#E1E2E2" fillOpacity="0.04"/>
<path d="M0 42H678V43H0V42Z" fill="#E1E2E2" fillOpacity="0.04"/>
<path d="M0 44H678V45H0V44Z" fill="#E1E2E2" fillOpacity="0.04"/>
<path d="M0 46H678V47H0V46Z" fill="#E1E2E2" fillOpacity="0.04"/>
<path d="M0 48H678V49H0V48Z" fill="#E1E2E2" fillOpacity="0.04"/>
<path d="M0 50H678V51H0V50Z" fill="#E1E2E2" fillOpacity="0.04"/>
<path d="M0 52H678V53H0V52Z" fill="#E1E2E2" fillOpacity="0.04"/>
<path d="M0 54H678V55H0V54Z" fill="#E1E2E2" fillOpacity="0.04"/>
<path d="M0 56H678V57H0V56Z" fill="#E1E2E2" fillOpacity="0.04"/>
<path d="M0 58H678V59H0V58Z" fill="#E1E2E2" fillOpacity="0.04"/>
<path d="M0 60H678V61H0V60Z" fill="#E1E2E2" fillOpacity="0.04"/>
<path d="M0 62H678V63H0V62Z" fill="#E1E2E2" fillOpacity="0.04"/>
<path d="M0 64H678V65H0V64Z" fill="#E1E2E2" fillOpacity="0.04"/>
<path d="M0 66H678V67H0V66Z" fill="#E1E2E2" fillOpacity="0.04"/>
<path d="M0 68H678V69H0V68Z" fill="#E1E2E2" fillOpacity="0.04"/>
<path d="M0 70H678V71H0V70Z" fill="#E1E2E2" fillOpacity="0.04"/>
<path d="M0 72H678V73H0V72Z" fill="#E1E2E2" fillOpacity="0.04"/>
<path d="M0 74H678V75H0V74Z" fill="#E1E2E2" fillOpacity="0.04"/>
<path d="M0 76H678V77H0V76Z" fill="#E1E2E2" fillOpacity="0.04"/>
<path d="M0 78H678V79H0V78Z" fill="#E1E2E2" fillOpacity="0.04"/>
<path d="M0 80H678V81H0V80Z" fill="#E1E2E2" fillOpacity="0.04"/>
<path d="M0 82H678V83H0V82Z" fill="#E1E2E2" fillOpacity="0.04"/>
<path d="M0 84H678V85H0V84Z" fill="#E1E2E2" fillOpacity="0.04"/>
<path d="M0 86H678V87H0V86Z" fill="#E1E2E2" fillOpacity="0.04"/>
<path d="M0 88H678V89H0V88Z" fill="#E1E2E2" fillOpacity="0.04"/>
<path d="M0 90H678V91H0V90Z" fill="#E1E2E2" fillOpacity="0.04"/>
<path d="M0 92H678V93H0V92Z" fill="#E1E2E2" fillOpacity="0.04"/>
<path d="M0 94H678V95H0V94Z" fill="#E1E2E2" fillOpacity="0.04"/>
<path d="M0 96H678V97H0V96Z" fill="#E1E2E2" fillOpacity="0.04"/>
<path d="M0 98H678V99H0V98Z" fill="#E1E2E2" fillOpacity="0.04"/>
<path d="M0 100H678V101H0V100Z" fill="#E1E2E2" fillOpacity="0.04"/>
<path d="M0 102H678V103H0V102Z" fill="#E1E2E2" fillOpacity="0.04"/>
<path d="M0 104H678V105H0V104Z" fill="#E1E2E2" fillOpacity="0.04"/>
<path d="M0 106H678V107H0V106Z" fill="#E1E2E2" fillOpacity="0.04"/>
<path d="M0 108H678V109H0V108Z" fill="#E1E2E2" fillOpacity="0.04"/>
<path d="M0 110H678V111H0V110Z" fill="#E1E2E2" fillOpacity="0.04"/>
<path d="M0 112H678V113H0V112Z" fill="#E1E2E2" fillOpacity="0.04"/>
<path d="M0 114H678V115H0V114Z" fill="#E1E2E2" fillOpacity="0.04"/>
<path d="M0 116H678V117H0V116Z" fill="#E1E2E2" fillOpacity="0.04"/>
<path d="M0 118H678V119H0V118Z" fill="#E1E2E2" fillOpacity="0.04"/>
<path d="M0 120H678V121H0V120Z" fill="#E1E2E2" fillOpacity="0.04"/>
</g>
</g>
<defs>
<filter id="filter0_dddddd_5217_35310" x="-279.318" y="-301.018" width="1236.62" height="677.018" filterUnits="userSpaceOnUse" colorInterpolationFilters="sRGB">
<feFlood floodOpacity="0" result="BackgroundImageFix"/>
<feColorMatrix in="SourceAlpha" type="matrix" values="0 0 0 0 0 0 0 0 0 0 0 0 0 0 0 0 0 0 127 0" result="hardAlpha"/>
<feOffset dy="-0.359743"/>
<feGaussianBlur stdDeviation="4.56597"/>
<feColorMatrix type="matrix" values="0 0 0 0 1 0 0 0 0 0 0 0 0 0 0 0 0 0 0.253031 0"/>
<feBlend mode="normal" in2="BackgroundImageFix" result="effect1_dropShadow_5217_35310"/>
<feColorMatrix in="SourceAlpha" type="matrix" values="0 0 0 0 0 0 0 0 0 0 0 0 0 0 0 0 0 0 127 0" result="hardAlpha"/>
<feOffset dy="-0.864513"/>
<feGaussianBlur stdDeviation="10.9727"/>
<feColorMatrix type="matrix" values="0 0 0 0 1 0 0 0 0 0 0 0 0 0 0 0 0 0 0.363503 0"/>
<feBlend mode="normal" in2="effect1_dropShadow_5217_35310" result="effect2_dropShadow_5217_35310"/>
<feColorMatrix in="SourceAlpha" type="matrix" values="0 0 0 0 0 0 0 0 0 0 0 0 0 0 0 0 0 0 127 0" result="hardAlpha"/>
<feOffset dy="-1.6278"/>
<feGaussianBlur stdDeviation="20.6606"/>
<feColorMatrix type="matrix" values="0 0 0 0 1 0 0 0 0 0 0 0 0 0 0 0 0 0 0.45 0"/>
<feBlend mode="normal" in2="effect2_dropShadow_5217_35310" result="effect3_dropShadow_5217_35310"/>
<feColorMatrix in="SourceAlpha" type="matrix" values="0 0 0 0 0 0 0 0 0 0 0 0 0 0 0 0 0 0 127 0" result="hardAlpha"/>
<feOffset dy="-2.90372"/>
<feGaussianBlur stdDeviation="36.8549"/>
<feColorMatrix type="matrix" values="0 0 0 0 1 0 0 0 0 0 0 0 0 0 0 0 0 0 0.536497 0"/>
<feBlend mode="normal" in2="effect3_dropShadow_5217_35310" result="effect4_dropShadow_5217_35310"/>
<feColorMatrix in="SourceAlpha" type="matrix" values="0 0 0 0 0 0 0 0 0 0 0 0 0 0 0 0 0 0 127 0" result="hardAlpha"/>
<feOffset dy="-5.43109"/>
<feGaussianBlur stdDeviation="68.9331"/>
<feColorMatrix type="matrix" values="0 0 0 0 1 0 0 0 0 0 0 0 0 0 0 0 0 0 0.646969 0"/>
<feBlend mode="normal" in2="effect4_dropShadow_5217_35310" result="effect5_dropShadow_5217_35310"/>
<feColorMatrix in="SourceAlpha" type="matrix" values="0 0 0 0 0 0 0 0 0 0 0 0 0 0 0 0 0 0 127 0" result="hardAlpha"/>
<feOffset dy="-13"/>
<feGaussianBlur stdDeviation="165"/>
<feColorMatrix type="matrix" values="0 0 0 0 1 0 0 0 0 0 0 0 0 0 0 0 0 0 0.9 0"/>
<feBlend mode="normal" in2="effect5_dropShadow_5217_35310" result="effect6_dropShadow_5217_35310"/>
<feBlend mode="normal" in="SourceGraphic" in2="effect6_dropShadow_5217_35310" result="shape"/>
</filter>
<filter id="filter1_b_5217_35310" x="-5" y="-27" width="688" height="153" filterUnits="userSpaceOnUse" colorInterpolationFilters="sRGB">
<feFlood floodOpacity="0" result="BackgroundImageFix"/>
<feGaussianBlur in="BackgroundImageFix" stdDeviation="2.5"/>
<feComposite in2="SourceAlpha" operator="in" result="effect1_backgroundBlur_5217_35310"/>
<feBlend mode="normal" in="SourceGraphic" in2="effect1_backgroundBlur_5217_35310" result="shape"/>
</filter>
<clipPath id="clip0_5217_35310">
<rect width="678" height="100" rx="13" fill="white"/>
</clipPath>
</defs>
</svg>
