<svg width="907" height="100" viewBox="0 0 907 100" fill="none" xmlns="http://www.w3.org/2000/svg">
<g clip-path="url(#clip0_12097_476215)">
<rect width="907" height="100" rx="13" fill="#2C0909"/>
<g filter="url(#filter0_b_12097_476215)">
<path d="M0 -22H907V-21H0V-22Z" fill="#E1E2E2" fill-opacity="0.04"/>
<path d="M0 -20H907V-19H0V-20Z" fill="#E1E2E2" fill-opacity="0.04"/>
<path d="M0 -18H907V-17H0V-18Z" fill="#E1E2E2" fill-opacity="0.04"/>
<path d="M0 -16H907V-15H0V-16Z" fill="#E1E2E2" fill-opacity="0.04"/>
<path d="M0 -14H907V-13H0V-14Z" fill="#E1E2E2" fill-opacity="0.04"/>
<path d="M0 -12H907V-11H0V-12Z" fill="#E1E2E2" fill-opacity="0.04"/>
<path d="M0 -10H907V-9H0V-10Z" fill="#E1E2E2" fill-opacity="0.04"/>
<path d="M0 -8H907V-7H0V-8Z" fill="#E1E2E2" fill-opacity="0.04"/>
<path d="M0 -6H907V-5H0V-6Z" fill="#E1E2E2" fill-opacity="0.04"/>
<path d="M0 -4H907V-3H0V-4Z" fill="#E1E2E2" fill-opacity="0.04"/>
<path d="M0 -2H907V-1H0V-2Z" fill="#E1E2E2" fill-opacity="0.04"/>
<path d="M0 0H907V1H0V0Z" fill="#E1E2E2" fill-opacity="0.04"/>
<path d="M0 2H907V3H0V2Z" fill="#E1E2E2" fill-opacity="0.04"/>
<path d="M0 4H907V5H0V4Z" fill="#E1E2E2" fill-opacity="0.04"/>
<path d="M0 6H907V7H0V6Z" fill="#E1E2E2" fill-opacity="0.04"/>
<path d="M0 8H907V9H0V8Z" fill="#E1E2E2" fill-opacity="0.04"/>
<path d="M0 10H907V11H0V10Z" fill="#E1E2E2" fill-opacity="0.04"/>
<path d="M0 12H907V13H0V12Z" fill="#E1E2E2" fill-opacity="0.04"/>
<path d="M0 14H907V15H0V14Z" fill="#E1E2E2" fill-opacity="0.04"/>
<path d="M0 16H907V17H0V16Z" fill="#E1E2E2" fill-opacity="0.04"/>
<path d="M0 18H907V19H0V18Z" fill="#E1E2E2" fill-opacity="0.04"/>
<path d="M0 20H907V21H0V20Z" fill="#E1E2E2" fill-opacity="0.04"/>
<path d="M0 22H907V23H0V22Z" fill="#E1E2E2" fill-opacity="0.04"/>
<path d="M0 24H907V25H0V24Z" fill="#E1E2E2" fill-opacity="0.04"/>
<path d="M0 26H907V27H0V26Z" fill="#E1E2E2" fill-opacity="0.04"/>
<path d="M0 28H907V29H0V28Z" fill="#E1E2E2" fill-opacity="0.04"/>
<path d="M0 30H907V31H0V30Z" fill="#E1E2E2" fill-opacity="0.04"/>
<path d="M0 32H907V33H0V32Z" fill="#E1E2E2" fill-opacity="0.04"/>
<path d="M0 34H907V35H0V34Z" fill="#E1E2E2" fill-opacity="0.04"/>
<path d="M0 36H907V37H0V36Z" fill="#E1E2E2" fill-opacity="0.04"/>
<path d="M0 38H907V39H0V38Z" fill="#E1E2E2" fill-opacity="0.04"/>
<path d="M0 40H907V41H0V40Z" fill="#E1E2E2" fill-opacity="0.04"/>
<path d="M0 42H907V43H0V42Z" fill="#E1E2E2" fill-opacity="0.04"/>
<path d="M0 44H907V45H0V44Z" fill="#E1E2E2" fill-opacity="0.04"/>
<path d="M0 46H907V47H0V46Z" fill="#E1E2E2" fill-opacity="0.04"/>
<path d="M0 48H907V49H0V48Z" fill="#E1E2E2" fill-opacity="0.04"/>
<path d="M0 50H907V51H0V50Z" fill="#E1E2E2" fill-opacity="0.04"/>
<path d="M0 52H907V53H0V52Z" fill="#E1E2E2" fill-opacity="0.04"/>
<path d="M0 54H907V55H0V54Z" fill="#E1E2E2" fill-opacity="0.04"/>
<path d="M0 56H907V57H0V56Z" fill="#E1E2E2" fill-opacity="0.04"/>
<path d="M0 58H907V59H0V58Z" fill="#E1E2E2" fill-opacity="0.04"/>
<path d="M0 60H907V61H0V60Z" fill="#E1E2E2" fill-opacity="0.04"/>
<path d="M0 62H907V63H0V62Z" fill="#E1E2E2" fill-opacity="0.04"/>
<path d="M0 64H907V65H0V64Z" fill="#E1E2E2" fill-opacity="0.04"/>
<path d="M0 66H907V67H0V66Z" fill="#E1E2E2" fill-opacity="0.04"/>
<path d="M0 68H907V69H0V68Z" fill="#E1E2E2" fill-opacity="0.04"/>
<path d="M0 70H907V71H0V70Z" fill="#E1E2E2" fill-opacity="0.04"/>
<path d="M0 72H907V73H0V72Z" fill="#E1E2E2" fill-opacity="0.04"/>
<path d="M0 74H907V75H0V74Z" fill="#E1E2E2" fill-opacity="0.04"/>
<path d="M0 76H907V77H0V76Z" fill="#E1E2E2" fill-opacity="0.04"/>
<path d="M0 78H907V79H0V78Z" fill="#E1E2E2" fill-opacity="0.04"/>
<path d="M0 80H907V81H0V80Z" fill="#E1E2E2" fill-opacity="0.04"/>
<path d="M0 82H907V83H0V82Z" fill="#E1E2E2" fill-opacity="0.04"/>
<path d="M0 84H907V85H0V84Z" fill="#E1E2E2" fill-opacity="0.04"/>
<path d="M0 86H907V87H0V86Z" fill="#E1E2E2" fill-opacity="0.04"/>
<path d="M0 88H907V89H0V88Z" fill="#E1E2E2" fill-opacity="0.04"/>
<path d="M0 90H907V91H0V90Z" fill="#E1E2E2" fill-opacity="0.04"/>
<path d="M0 92H907V93H0V92Z" fill="#E1E2E2" fill-opacity="0.04"/>
<path d="M0 94H907V95H0V94Z" fill="#E1E2E2" fill-opacity="0.04"/>
<path d="M0 96H907V97H0V96Z" fill="#E1E2E2" fill-opacity="0.04"/>
<path d="M0 98H907V99H0V98Z" fill="#E1E2E2" fill-opacity="0.04"/>
<path d="M0 100H907V101H0V100Z" fill="#E1E2E2" fill-opacity="0.04"/>
<path d="M0 102H907V103H0V102Z" fill="#E1E2E2" fill-opacity="0.04"/>
<path d="M0 104H907V105H0V104Z" fill="#E1E2E2" fill-opacity="0.04"/>
<path d="M0 106H907V107H0V106Z" fill="#E1E2E2" fill-opacity="0.04"/>
<path d="M0 108H907V109H0V108Z" fill="#E1E2E2" fill-opacity="0.04"/>
<path d="M0 110H907V111H0V110Z" fill="#E1E2E2" fill-opacity="0.04"/>
<path d="M0 112H907V113H0V112Z" fill="#E1E2E2" fill-opacity="0.04"/>
<path d="M0 114H907V115H0V114Z" fill="#E1E2E2" fill-opacity="0.04"/>
<path d="M0 116H907V117H0V116Z" fill="#E1E2E2" fill-opacity="0.04"/>
<path d="M0 118H907V119H0V118Z" fill="#E1E2E2" fill-opacity="0.04"/>
<path d="M0 120H907V121H0V120Z" fill="#E1E2E2" fill-opacity="0.04"/>
</g>
</g>
<defs>
<filter id="filter0_b_12097_476215" x="-5" y="-27" width="917" height="153" filterUnits="userSpaceOnUse" color-interpolation-filters="sRGB">
<feFlood flood-opacity="0" result="BackgroundImageFix"/>
<feGaussianBlur in="BackgroundImageFix" stdDeviation="2.5"/>
<feComposite in2="SourceAlpha" operator="in" result="effect1_backgroundBlur_12097_476215"/>
<feBlend mode="normal" in="SourceGraphic" in2="effect1_backgroundBlur_12097_476215" result="shape"/>
</filter>
<clipPath id="clip0_12097_476215">
<rect width="907" height="100" rx="13" fill="white"/>
</clipPath>
</defs>
</svg>
