<?xml version="1.0" encoding="UTF-8"?>
<svg width="176px" height="45px" viewBox="0 0 176 45" version="1.1" xmlns="http://www.w3.org/2000/svg" xmlns:xlink="http://www.w3.org/1999/xlink">
    <title>Group 67</title>
    <g id="Page-1" stroke="none" stroke-width="1" fill="none" fill-rule="evenodd">
        <g id="NAKAVERSE" transform="translate(-215.000000, -4540.000000)">
            <g id="Group-67" transform="translate(215.000000, 4540.000000)">
                <path d="M176,31.2448044 L176,40.6 C176,43.0300529 174.030053,45 171.6,45 L132.55,45 L132.55,31.2448044 L176,31.2448044 Z M20.9766131,0 C32.5615968,0 41.9529814,9.47517874 41.9529814,21.1635289 C41.9529814,32.8518791 32.5615968,42.3270578 20.9766131,42.3270578 C9.39162933,42.3270578 0,32.8518791 0,21.1635289 C0,9.47517874 9.39162933,0 20.9766131,0 Z M142.530469,34.1391137 C140.157185,34.1391137 139.947278,35.8715385 139.936476,36.6054684 L139.935987,36.6732851 L139.936476,39.3483625 C139.947278,40.0822924 140.157185,41.8147172 142.530469,41.8147172 C144.903753,41.8147172 145.11343,40.0822924 145.124218,39.3483625 L145.124707,37.8725904 C145.124707,37.6937476 145.048827,37.5916424 144.897069,37.5661193 L144.814866,37.5597389 L142.747553,37.5597389 C142.579102,37.5597389 142.471607,37.6362951 142.444331,37.7895631 L142.437468,37.8725904 L142.437468,38.7066966 C142.437468,38.8764385 142.520899,38.9850444 142.668496,39.0126105 L142.747553,39.0195481 L143.34692,39.0195481 C143.34692,39.5309257 143.29528,40.0208211 142.530469,40.0208211 C141.810417,40.0208211 141.722318,39.5868654 141.714444,38.8663506 L141.713774,38.7279319 L141.714444,37.0874778 C141.722318,36.3669373 141.810417,35.9327628 142.530469,35.9327628 C143.119557,35.9327628 143.29528,36.2248728 143.336641,36.7256328 C143.354843,36.9170599 143.444062,37.0130165 143.604625,37.0060588 L143.677807,36.9967543 L144.845704,36.7357567 C145.03195,36.6940267 145.124707,36.5794544 145.114427,36.3917928 C145.062787,35.5781813 144.701063,34.1391137 142.530469,34.1391137 Z M137.187025,39.6848576 C136.606503,39.6848576 136.135625,40.1599376 136.135625,40.745886 C136.135625,41.3318344 136.606503,41.8069144 137.187025,41.8069144 C137.767792,41.8069144 138.23867,41.3318344 138.23867,40.745886 C138.23867,40.1599376 137.767792,39.6848576 137.187025,39.6848576 Z M168.136719,34.1601269 C165.82124,34.1601269 165.635238,36.0058768 165.645517,36.3187283 C165.645517,38.7173389 168.756889,38.5190597 168.95317,39.4055135 C169.015334,39.6870058 168.643085,39.9897335 168.136719,39.9897335 C167.650912,39.9897335 167.268384,39.6976235 167.227268,39.1968635 C167.209065,39.0052204 167.119659,38.9094258 166.959213,38.9165928 L166.886101,38.9259889 L165.71796,39.1864928 C165.531958,39.2282228 165.438957,39.343042 165.449236,39.5307035 C165.501121,40.344315 165.966126,41.7833826 168.136719,41.7833826 C170.58656,41.7833826 170.937762,39.9373858 170.937762,39.6245343 C170.937762,37.2259236 167.67147,37.2469121 167.526829,36.4335475 C167.485468,36.1937852 167.733633,35.9535291 168.136719,35.9535291 C168.622527,35.9535291 168.963694,36.2248975 169.036136,36.6525683 C169.063119,36.834921 169.145566,36.9295542 169.304299,36.9224074 L169.377058,36.9130721 L170.555234,36.6525683 C170.741481,36.6108383 170.834481,36.4960191 170.824202,36.3081106 C170.762283,35.5574645 170.265952,34.1601269 168.136719,34.1601269 Z M164.869669,34.3269234 L160.528481,34.3269234 C160.36024,34.3269234 160.252595,34.4034796 160.225273,34.5567476 L160.218397,34.6397749 L160.218397,41.3141053 C160.218397,41.4838473 160.302007,41.5922717 160.449502,41.619786 L160.528481,41.6267099 L164.869669,41.6267099 C165.04693,41.6267099 165.148132,41.5501537 165.173429,41.3970413 L165.179753,41.3141053 L165.179753,40.1459123 C165.179753,39.9670695 165.103874,39.8649643 164.951962,39.8394412 L164.869669,39.8330608 L162.368432,39.8330608 C162.199981,39.8330608 162.092486,39.7487038 162.065211,39.5998934 L162.058347,39.5202093 L162.058347,39.1863693 C162.058347,39.0077381 162.141778,38.9054817 162.289376,38.8799111 L162.368432,38.8735178 L163.970496,38.8735178 C164.147548,38.8735178 164.2489,38.7895236 164.274244,38.6405059 L164.280581,38.5606663 L164.280581,37.3929671 C164.280581,37.2139126 164.204522,37.1117771 164.052712,37.0862498 L163.970496,37.0798686 L162.368432,37.0798686 C162.199981,37.0798686 162.092486,36.9956931 162.065211,36.846779 L162.058347,36.7670171 L162.058347,36.4334241 C162.058347,36.2547929 162.141778,36.1525365 162.289376,36.1269659 L162.368432,36.1205725 L164.869669,36.1205725 C165.04693,36.1205725 165.148132,36.0362156 165.173429,35.8874052 L165.179753,35.807721 L165.179753,34.6397749 C165.179753,34.4311249 165.076473,34.3269234 164.869669,34.3269234 Z M154.480653,34.3269234 L152.341141,34.3269234 C152.16367,34.3269234 152.062438,34.4034796 152.037136,34.5567476 L152.030812,34.6397749 L152.030812,41.3141053 C152.030812,41.4838473 152.106691,41.5922717 152.258757,41.619786 L152.341141,41.6267099 L153.498514,41.6267099 C153.675775,41.6267099 153.776977,41.5425344 153.802275,41.3937758 L153.808599,41.3141053 L153.808599,37.2050586 C153.808599,37.1467848 153.868276,37.1283347 153.902672,37.1607073 L153.922402,37.1946879 L154.9251,41.3558353 C154.960552,41.5077988 155.049048,41.5982634 155.190741,41.6210091 L155.266022,41.6267099 L155.948355,41.6267099 C156.107785,41.6267099 156.214172,41.5579545 156.267361,41.4266634 L156.289522,41.3558353 L157.291974,37.1946879 C157.308617,37.1362165 157.371466,37.1313175 157.39594,37.1689921 L157.405778,37.2050586 L157.405778,41.3141053 C157.405778,41.4838473 157.489209,41.5922717 157.636806,41.619786 L157.715863,41.6267099 L158.87348,41.6267099 C159.050741,41.6267099 159.151944,41.5425344 159.177241,41.3937758 L159.183565,41.3141053 L159.183565,34.6397749 C159.183565,34.4609321 159.107686,34.3588269 158.955773,34.3333038 L158.87348,34.3269234 L156.733968,34.3269234 C156.574538,34.3269234 156.475703,34.4034796 156.424672,34.5369995 L156.403081,34.6084157 L155.669107,37.6431001 C155.651976,37.7299348 155.591675,37.7444072 155.560153,37.6865175 L155.545269,37.6431001 L154.811296,34.6084157 C154.769935,34.4311249 154.666655,34.3269234 154.480653,34.3269234 Z M148.515791,34.1391137 C146.265057,34.1391137 145.999004,35.4477546 145.984182,36.7231925 L145.983473,36.8505759 L145.983473,41.2722272 C145.983473,41.4731608 146.070604,41.5939371 146.223879,41.6209916 L146.293557,41.6268087 L147.451175,41.6268087 C147.628436,41.6268087 147.729638,41.5502525 147.754936,41.3969845 L147.76126,41.3139572 L147.76126,40.4067619 C147.76126,40.227919 147.84487,40.1258138 147.992365,40.1002907 L148.071344,40.0939103 L148.960238,40.0939103 C149.137499,40.0939103 149.238701,40.1704666 149.263999,40.3237345 L149.270323,40.4067619 L149.270323,41.3139572 C149.270323,41.4928 149.353934,41.5949052 149.501582,41.6204283 L149.580652,41.6268087 L150.738025,41.6268087 C150.918979,41.6268087 151.020672,41.5311492 151.043268,41.3533945 L151.04811,41.2722272 L151.04811,36.8505759 C151.04811,35.5364513 150.841549,34.1391137 148.515791,34.1391137 Z M148.515791,36.0996828 C149.152636,36.0996828 149.257984,36.3175765 149.269201,36.7537654 L149.270323,36.8505759 L149.270323,37.976792 C149.270323,38.1556348 149.194443,38.25774 149.042531,38.2899495 L148.960238,38.3002612 L148.071344,38.3002612 C147.903103,38.3002612 147.795458,38.2159042 147.768136,38.0670938 L147.76126,37.9874097 L147.76126,36.8505759 C147.76126,36.3498159 147.833702,36.0996828 148.515791,36.0996828 Z M11.5790111,13.0879462 L8.65266222,13.0879462 L8.65266222,17.061926 L4.95,17.061926 L4.95,19.8148713 L8.60811965,19.8148713 L8.60811965,21.1554166 L4.99429783,21.1554166 L4.99429783,23.9565118 L9.05158743,23.9325603 C9.05158743,23.9325603 10.1602569,29.1033762 15.4368381,29.1033762 C15.4368381,29.1033762 19.2349487,29.4278331 20.911903,25.894611 C22.589102,29.4278331 26.3872126,29.1033762 26.3872126,29.1033762 C31.6637938,29.1033762 32.7724633,23.9325603 32.7724633,23.9325603 L36.8297529,23.9565118 L36.8297529,21.1554166 L33.215931,21.1554166 L33.215931,19.8148713 L36.8740507,19.8148713 L36.8740507,17.061926 L33.1713885,17.061926 L33.1713885,13.0879462 L30.2450396,13.0879462 L30.2450396,14.3089808 C30.2450396,15.2999077 29.2572151,15.3603989 29.0596502,15.3625879 L12.7644005,15.3625879 C12.5668356,15.3603989 11.5790111,15.2999077 11.5790111,14.3089808 L11.5790111,13.0879462 Z M169.674294,10.2861975 C175.515923,10.2861975 175.957394,14.6105495 175.971086,16.3465657 L175.971439,22.7651954 C175.971439,24.4358768 175.620238,28.9162958 169.674294,28.9162958 C163.832666,28.9162958 163.391195,24.5917055 163.377503,22.855681 L163.37715,16.4370511 C163.37715,14.7663696 163.728351,10.2861975 169.674294,10.2861975 Z M138.582994,10.2861975 C144.424863,10.2861975 144.866102,14.6105495 144.879786,16.3465657 L144.880138,22.7651954 C144.880138,24.4358768 144.529182,28.9162958 138.582994,28.9162958 C132.741365,28.9162958 132.299894,24.5917055 132.286202,22.855681 L132.285849,16.4370511 C132.285849,14.7663696 132.637051,10.2861975 138.582994,10.2861975 Z M118.541824,10.7418694 C118.993613,10.7418694 119.244471,10.9949655 119.344814,11.4253524 L121.126272,18.7910674 C121.176443,19.0441636 121.37713,19.0441636 121.427301,18.7910674 L123.20827,11.4253524 C123.308613,10.9949655 123.559716,10.7418694 124.01126,10.7418694 L129.204874,10.7418694 C129.70659,10.7418694 129.957448,10.9949655 129.957448,11.5011578 L129.957448,27.7012862 C129.957448,28.1820454 129.70659,28.4605746 129.204874,28.4605746 L126.394777,28.4605746 C125.918024,28.4605746 125.641958,28.1820454 125.641958,27.7012862 L125.641958,17.7283106 C125.641958,17.5510198 125.416309,17.5255867 125.366137,17.7028775 L122.932448,27.8025247 C122.832105,28.2326646 122.556039,28.4605746 122.10474,28.4605746 L120.448833,28.4605746 C119.997044,28.4605746 119.721223,28.2326646 119.62088,27.8025247 L117.187191,17.7028775 C117.13702,17.5255867 116.911125,17.5510198 116.911125,17.7283106 L116.911125,27.7012862 C116.911125,28.1820454 116.660267,28.4605746 116.158552,28.4605746 L113.348699,28.4605746 C112.846738,28.4605746 112.59588,28.1820454 112.59588,27.7012862 L112.59588,11.5011578 C112.59588,10.9949655 112.846738,10.7418694 113.348699,10.7418694 L118.541824,10.7418694 Z M103.788077,10.2862222 C109.332189,10.2862222 109.915148,13.5579056 109.9342,16.6964233 L109.934707,27.5999737 C109.934707,28.1570321 109.683849,28.4607475 109.182133,28.4607475 L106.372035,28.4607475 C105.895528,28.4607475 105.619462,28.2076513 105.619462,27.701459 L105.619462,25.4991522 C105.619462,24.992713 105.368604,24.7396169 104.866888,24.7396169 L102.709266,24.7396169 C102.232513,24.7396169 101.956447,24.992713 101.956447,25.4991522 L101.956447,27.701459 C101.956447,28.2076513 101.705589,28.4607475 101.203874,28.4607475 L98.3937759,28.4607475 C97.9172684,28.4607475 97.6412023,28.1570321 97.6412023,27.5999737 L97.6412023,16.8674627 C97.6412023,13.6779575 98.1429181,10.2862222 103.788077,10.2862222 Z M84.9093698,10.7419681 C85.4110856,10.7419681 85.6619434,10.9950643 85.6619434,11.5012566 L85.6619434,16.5888594 C85.6619434,16.8422024 85.8376663,16.8928217 85.9629729,16.6900978 L89.9020533,11.2229743 C90.1279478,10.8938258 90.4037691,10.7419681 90.8051417,10.7419681 L94.5183277,10.7419681 C95.1455948,10.7419681 95.3462811,11.146922 94.99508,11.6783004 L89.9270168,18.7153608 C89.8518818,18.8417854 89.8266736,18.9430239 89.9270168,19.0696954 L95.3964526,27.5492804 C95.7476537,28.0557196 95.5217592,28.4606734 94.9199451,28.4606734 L91.1565875,28.4606734 C90.7549701,28.4606734 90.4791488,28.3088157 90.2532544,27.9544811 L87.142372,23.1451606 C87.0420288,22.9933029 86.8915141,22.9933029 86.7909262,23.1451606 L85.7622866,24.562499 C85.6871516,24.6637374 85.6619434,24.7649759 85.6619434,24.8914005 L85.6619434,27.701385 C85.6619434,28.1821442 85.4110856,28.4606734 84.9093698,28.4606734 L82.0491006,28.4606734 C81.572593,28.4606734 81.2965269,28.1821442 81.2965269,27.701385 L81.2965269,11.5012566 C81.2965269,10.9950643 81.572593,10.7419681 82.0491006,10.7419681 L84.9093698,10.7419681 Z M73.0067878,10.2862222 C78.4500977,10.2862222 79.1110205,13.4400168 79.1512863,16.5251199 L79.1534175,16.8674627 L79.1534175,16.8674627 L79.1534175,27.5999737 C79.1534175,28.1570321 78.9025597,28.4607475 78.4008439,28.4607475 L75.5907462,28.4607475 C75.1142386,28.4607475 74.8381726,28.2076513 74.8381726,27.701459 L74.8381726,25.4991522 C74.8381726,24.992713 74.5873147,24.7396169 74.085599,24.7396169 L71.9279765,24.7396169 C71.4512242,24.7396169 71.1751582,24.992713 71.1751582,25.4991522 L71.1751582,27.701459 C71.1751582,28.2076513 70.9243003,28.4607475 70.4225846,28.4607475 L67.6124869,28.4607475 C67.1359793,28.4607475 66.8599133,28.1570321 66.8599133,27.5999737 L66.8599133,16.8674627 C66.8599133,13.6779575 67.361629,10.2862222 73.0067878,10.2862222 Z M55.6179563,10.7418694 C56.044537,10.7418694 56.3203583,10.9189132 56.4960812,11.324114 L59.907993,19.7530797 C60.0085809,19.9809897 60.2092672,19.9301235 60.2092672,19.6770274 L60.2092672,11.5011578 C60.2092672,10.9949655 60.4850885,10.7418694 60.9618408,10.7418694 L63.7716937,10.7418694 C64.2736542,10.7418694 64.5245121,10.9949655 64.5245121,11.5011578 L64.5245121,27.7012862 C64.5245121,28.1820454 64.2736542,28.4605746 63.7716937,28.4605746 L60.0837159,28.4605746 C59.6571351,28.4605746 59.3813138,28.2832839 59.2058357,27.87833 L55.7934344,19.4493643 C55.6930912,19.2214543 55.4926497,19.2720736 55.4926497,19.5251697 L55.4926497,27.7012862 C55.4926497,28.1820454 55.2417918,28.4605746 54.7398313,28.4605746 L51.9297337,28.4605746 C51.4532261,28.4605746 51.1774048,28.1820454 51.1774048,27.7012862 L51.1774048,11.5011578 C51.1774048,10.9949655 51.4532261,10.7418694 51.9297337,10.7418694 L55.6179563,10.7418694 Z M160.780734,10.7418447 C161.28245,10.7418447 161.533308,10.9949408 161.533308,11.50138 L161.533308,14.3363037 C161.533308,14.8170629 161.28245,15.0955921 160.780734,15.0955921 L157.26799,15.0955921 C156.791482,15.0955921 156.515416,15.3486883 156.515416,15.8548806 L156.515416,27.7015084 C156.515416,28.1820207 156.264558,28.4605499 155.763087,28.4605499 L152.95299,28.4605499 C152.476237,28.4605499 152.200171,28.1820207 152.200171,27.7015084 L152.200171,15.8548806 C152.200171,15.3486883 151.949313,15.0955921 151.447598,15.0955921 L147.935343,15.0955921 C147.45859,15.0955921 147.182524,14.8170629 147.182524,14.3363037 L147.182524,11.50138 C147.182524,10.9949408 147.45859,10.7418447 147.935343,10.7418447 L160.780734,10.7418447 Z M169.674294,14.639945 C167.879588,14.639945 167.702444,15.7516305 167.692628,17.5864577 L167.69215,21.4239093 C167.69215,23.372873 167.817701,24.5625484 169.674294,24.5625484 C171.530887,24.5625484 171.656439,23.372873 171.656439,21.4239093 L171.656439,17.778831 C171.656439,15.8296203 171.530887,14.639945 169.674294,14.639945 Z M138.582994,14.639945 C136.788287,14.639945 136.611143,15.7516305 136.601328,17.5864577 L136.60085,21.4239093 C136.60085,23.372873 136.726401,24.5625484 138.582994,24.5625484 C140.377701,24.5625484 140.554845,23.4508629 140.56466,21.6162588 L140.565138,17.778831 C140.565138,15.8296203 140.439587,14.639945 138.582994,14.639945 Z M28.9146363,19.934629 L28.8703384,21.3470289 C28.2939772,23.9802164 25.78858,23.5493357 25.78858,23.5493357 C23.0837203,23.2142611 23.3277255,19.934629 23.3277255,19.934629 L28.9146363,19.934629 Z M18.4963252,19.934629 C18.4963252,19.934629 18.7403304,23.2142611 16.0354706,23.5493357 C16.0354706,23.5493357 13.5300735,23.9802164 12.9537123,21.3470289 L12.9094144,19.934629 L18.4963252,19.934629 Z M73.0067878,15.0449235 C71.3508811,15.0449235 71.1751582,15.6523543 71.1751582,16.8674627 L71.1751582,19.626581 C71.1751582,20.1075871 71.4512242,20.3861163 71.9279765,20.3861163 L74.085599,20.3861163 C74.5873147,20.3606833 74.8381726,20.1075871 74.8381726,19.6013948 L74.8381726,16.8674627 C74.8381726,15.6523543 74.6626945,15.0449235 73.0067878,15.0449235 Z M103.788077,15.0449235 C102.195859,15.0449235 101.972154,15.6065274 101.957301,16.7299546 L101.956447,19.626581 C101.956447,20.1075871 102.232513,20.3861163 102.709266,20.3861163 L104.866888,20.3861163 C105.368604,20.3606833 105.619462,20.1075871 105.619462,19.6013948 L105.619462,16.8674627 C105.619462,15.6523543 105.443984,15.0449235 103.788077,15.0449235 Z" id="Combined-Shape" fill="#414453"></path>
                <g id="Group-33"></g>
            </g>
        </g>
    </g>
</svg>