<svg width="60" height="60" viewBox="0 0 60 60" fill="none" xmlns="http://www.w3.org/2000/svg">
<g clipPath="url(#clip0_8257_80333)">
<rect x="0.5" y="0.5" width="59" height="59" fill="#18181C"/>
<path fillRule="evenodd" clipRule="evenodd" d="M21.7686 25.1602C21.1272 25.1602 20.5508 25.1602 20.5508 24.1086V22.3945L17.5547 22.3945V26.543H13.4062V29.3086H18.9375L17.5547 30V30.6914H14.7891V33.457H20.3203L18.5743 34.33C19.7907 36.3043 21.9756 37.6055 24.4688 37.6055C26.7305 37.6055 28.7386 36.5195 30 34.8405C31.2614 36.5195 33.2695 37.6055 35.5312 37.6055C38.0244 37.6055 40.2093 36.3043 41.4257 34.33L39.6797 33.457H45.2109V30.6914H42.4453V30L41.0625 29.3086H46.5938V26.543H42.4453V22.3945H39.4492V24.1086C39.4492 25.1602 38.7578 25.1602 38.2314 25.1602H21.7686ZM28.6172 29.3086L27.2344 30C27.2344 31.5274 25.9962 32.7656 24.4688 32.7656C22.9413 32.7656 21.7031 31.5274 21.7031 30L20.3203 29.3086H28.6172ZM39.6797 29.3086L38.2969 30C38.2969 31.5274 37.0587 32.7656 35.5312 32.7656C34.0038 32.7656 32.7656 31.5274 32.7656 30L31.3828 29.3086H39.6797Z" fill="#A0ED61"/>
</g>
<rect x="1" y="1" width="58" height="58" rx="29" stroke="#232329"/>
<defs>
<clipPath id="clip0_8257_80333">
<rect x="0.5" y="0.5" width="59" height="59" rx="29.5" fill="white"/>
</clipPath>
</defs>
</svg>
