<svg width="21" height="20" viewBox="0 0 21 20" fill="none"
  xmlns="http://www.w3.org/2000/svg">
  <path d="M19.5 10C19.5 7.63665 18.5891 5.48606 17.0991 3.8802M19.5 10C19.5 12.3633 18.5891 14.5139 17.0991 16.1198M19.5 10H13.5M10.5 19C13.1072 19 15.4555 17.8914 17.0991 16.1198M10.5 19C7.89279 19 5.54451 17.8914 3.90085 16.1198M10.5 19V1M1.5 10C1.5 7.63665 2.41094 5.48606 3.90085 3.8802M1.5 10C1.5 12.3633 2.41094 14.5139 3.90085 16.1198M1.5 10H7.5M10.5 1C13.1072 1 15.4555 2.10863 17.0991 3.8802M10.5 1C7.89279 1 5.54451 2.10863 3.90085 3.8802M7.5 10C7.5 7.36829 6.04771 5.07579 3.90085 3.8802M7.5 10C7.5 12.6317 6.04771 14.9242 3.90085 16.1198M7.5 10H13.5M13.5 10C13.5 7.36829 14.9523 5.07579 17.0991 3.8802M13.5 10C13.5 12.6317 14.9523 14.9242 17.0991 16.1198" stroke="#E1E2E2" strokeWidth="1.2"/>
</svg>
