<svg width="22" height="18" viewBox="0 0 22 18" fill="none"
  xmlns="http://www.w3.org/2000/svg">
  <path d="M1 7.4C0.779088 7.4 0.600001 7.22092 0.600001 7L0.6 1C0.6 0.779087 0.779086 0.600001 1 0.600001L9 0.600008C9.22091 0.600008 9.4 0.779094 9.4 1.00001V7C9.4 7.22092 9.22091 7.4 9 7.4H1ZM1 17.4C0.779088 17.4 0.600003 17.2209 0.600002 17L0.6 11C0.6 10.7791 0.779086 10.6 1 10.6H9C9.22091 10.6 9.4 10.7791 9.4 11V17C9.4 17.2209 9.22091 17.4 9 17.4L1 17.4ZM13 7.4C12.7791 7.4 12.6 7.22092 12.6 7L12.6 1C12.6 0.779087 12.7791 0.600001 13 0.600001L21 0.600008C21.2209 0.600008 21.4 0.779094 21.4 1.00001V7C21.4 7.22092 21.2209 7.4 21 7.4H13ZM13 17.4C12.7791 17.4 12.6 17.2209 12.6 17L12.6 11C12.6 10.7791 12.7791 10.6 13 10.6H21C21.2209 10.6 21.4 10.7791 21.4 11V17C21.4 17.2209 21.2209 17.4 21 17.4L13 17.4Z" stroke="#E1E2E2" strokeWidth="1.2"/>
</svg>
