<svg width="91" height="7" viewBox="0 0 91 7" fill="none" xmlns="http://www.w3.org/2000/svg">
<g clipPath="url(#clip0_5570_22156)">
<path d="M0 6.5L5.8801 1.93053C6.96304 1.08896 8.47882 1.08896 9.56176 1.93053L13.601 5.06947C14.684 5.91104 16.1997 5.91104 17.2827 5.06947L21.322 1.93053C22.4049 1.08896 23.9207 1.08896 25.0036 1.93053L29.0429 5.06947C30.1258 5.91104 31.6416 5.91104 32.7246 5.06947L36.7638 1.93053C37.8468 1.08896 39.3625 1.08896 40.4455 1.93053L44.4847 5.06947C45.5677 5.91104 47.0835 5.91104 48.1664 5.06947L52.2057 1.93053C53.2886 1.08896 54.8044 1.08896 55.8873 1.93053L59.9266 5.06947C61.0096 5.91104 62.5253 5.91104 63.6083 5.06947L67.6475 1.93053C68.7305 1.08896 70.2463 1.08896 71.3292 1.93053L75.3685 5.06947C76.4514 5.91104 77.9672 5.91104 79.0501 5.06947L83.0894 1.93053C84.1723 1.08896 85.6881 1.08896 86.7711 1.93053L90.8103 5.06947C91.8933 5.91104 93.409 5.91104 94.492 5.06947L98.5313 1.93053C99.6142 1.08896 101.13 1.08896 102.213 1.93053L106.252 5.06947C107.335 5.91104 108.851 5.91104 109.934 5.06947L113.973 1.93053C115.056 1.08896 116.572 1.08896 117.655 1.93053L121.694 5.06947C122.777 5.91104 124.293 5.91104 125.376 5.06947L129.415 1.93053C130.498 1.08896 132.014 1.08896 133.097 1.93053L137.136 5.06947C138.219 5.91104 139.735 5.91104 140.818 5.06947L144.857 1.93053C145.94 1.08896 147.456 1.08896 148.539 1.93053L152.578 5.06947C153.661 5.91104 155.176 5.91104 156.259 5.06947L160.299 1.93053C161.382 1.08896 162.897 1.08896 163.98 1.93053L168.02 5.06947C169.103 5.91104 170.618 5.91104 171.701 5.06947L175.741 1.93052C176.824 1.08896 178.339 1.08896 179.422 1.93053L183.461 5.06947C184.544 5.91104 186.06 5.91104 187.143 5.06947L191.182 1.93053C192.265 1.08896 193.781 1.08896 194.864 1.93053L198.903 5.06947C199.986 5.91104 201.502 5.91104 202.585 5.06947L206.624 1.93053C207.707 1.08896 209.223 1.08896 210.306 1.93053L214.345 5.06947C215.428 5.91104 216.944 5.91104 218.027 5.06947L222.066 1.93053C223.149 1.08896 224.665 1.08896 225.748 1.93053L229.787 5.06948C230.87 5.91104 232.386 5.91104 233.469 5.06947L237.508 1.93053C238.591 1.08896 240.107 1.08896 241.19 1.93053L245.229 5.06947C246.312 5.91104 247.828 5.91104 248.911 5.06947L252.95 1.93053C254.033 1.08896 255.549 1.08896 256.632 1.93053L260.671 5.06947C261.754 5.91104 263.27 5.91104 264.352 5.06948L268.392 1.93052C269.475 1.08896 270.99 1.08896 272.073 1.93053L276.113 5.06947C277.196 5.91104 278.711 5.91104 279.794 5.06947L283.834 1.93053C284.917 1.08896 286.432 1.08896 287.515 1.93053L291.555 5.06948C292.637 5.91104 294.153 5.91104 295.236 5.06947L299.275 1.93053C300.358 1.08896 301.874 1.08896 302.957 1.93053L306.996 5.06948C308.079 5.91104 309.595 5.91104 310.678 5.06947L314.717 1.93053C315.8 1.08896 317.316 1.08896 318.399 1.93053L322.438 5.06947C323.521 5.91104 325.037 5.91104 326.12 5.06947L328.14 3.5" stroke="#232329" strokeWidth="1.2" stroke-miterlimit="2.03203" stroke-dasharray="58 58"/>
</g>
<defs>
<clipPath id="clip0_5570_22156">
<rect width="91" height="6" fill="white" transform="translate(0 0.5)"/>
</clipPath>
</defs>
</svg>
