<svg width="25" height="24" viewBox="0 0 25 24" fill="none" xmlns="http://www.w3.org/2000/svg">
<path d="M21.1476 3.17383L13.6523 8.74068L15.0384 5.45631L21.1476 3.17383Z" fill="#E2761B" stroke="#E2761B" strokeWidth="0.0753296" stroke-linecap="round" strokeLinejoin="round"/>
<path d="M3.84467 3.17383L11.2797 8.79341L9.96143 5.45631L3.84467 3.17383ZM18.4511 16.0778L16.4548 19.1362L20.726 20.3113L21.9539 16.1456L18.4511 16.0778ZM3.05371 16.1456L4.27405 20.3113L8.54524 19.1362L6.549 16.0778L3.05371 16.1456Z" fill="#E4761B" stroke="#E4761B" strokeWidth="0.0753296" stroke-linecap="round" strokeLinejoin="round"/>
<path d="M8.30398 10.9105L7.11377 12.7109L11.3548 12.8992L11.2042 8.34179L8.30398 10.9105ZM16.6882 10.9105L13.7503 8.28906L13.6524 12.8992L17.8859 12.7109L16.6882 10.9105ZM8.54503 19.1365L11.0912 17.8936L8.89155 16.1761L8.54503 19.1365ZM13.901 17.8936L16.4546 19.1365L16.1006 16.1761L13.901 17.8936Z" fill="#E4761B" stroke="#E4761B" strokeWidth="0.0753296" stroke-linecap="round" strokeLinejoin="round"/>
<path d="M16.455 19.1375L13.9013 17.8945L14.1047 19.5593L14.0821 20.2599L16.455 19.1375ZM8.54541 19.1375L10.9183 20.2599L10.9032 19.5593L11.0915 17.8945L8.54541 19.1375Z" fill="#D7C1B3" stroke="#D7C1B3" strokeWidth="0.0753296" stroke-linecap="round" strokeLinejoin="round"/>
<path d="M10.9558 15.0764L8.83154 14.4511L10.3306 13.7656L10.9558 15.0764ZM14.0368 15.0764L14.6621 13.7656L16.1686 14.4511L14.0368 15.0764Z" fill="#233447" stroke="#233447" strokeWidth="0.0753296" stroke-linecap="round" strokeLinejoin="round"/>
<path d="M8.54506 19.1365L8.90664 16.0782L6.54883 16.146L8.54506 19.1365ZM16.0931 16.0782L16.4547 19.1365L18.4509 16.146L16.0931 16.0782ZM17.8859 12.7109L13.6524 12.8993L14.0441 15.0763L14.6694 13.7656L16.1759 14.451L17.8859 12.7109ZM8.83131 14.451L10.3379 13.7656L10.9556 15.0763L11.3549 12.8993L7.1138 12.7109L8.83131 14.451Z" fill="#CD6116" stroke="#CD6116" strokeWidth="0.0753296" stroke-linecap="round" strokeLinejoin="round"/>
<path d="M7.11377 12.7109L8.89155 16.1761L8.83128 14.451L7.11377 12.7109ZM16.1759 14.451L16.1006 16.1761L17.8859 12.7109L16.1759 14.451ZM11.3548 12.8993L10.9556 15.0763L11.4528 17.645L11.5657 14.2627L11.3548 12.8993ZM13.6524 12.8993L13.449 14.2552L13.5394 17.645L14.0441 15.0763L13.6524 12.8993Z" fill="#E4751F" stroke="#E4751F" strokeWidth="0.0753296" stroke-linecap="round" strokeLinejoin="round"/>
<path d="M14.0443 15.0764L13.5396 17.6451L13.9012 17.8937L16.1008 16.1762L16.1762 14.4512L14.0443 15.0764ZM8.83154 14.4512L8.89181 16.1762L11.0914 17.8937L11.453 17.6451L10.9558 15.0764L8.83154 14.4512Z" fill="#F6851B" stroke="#F6851B" strokeWidth="0.0753296" stroke-linecap="round" strokeLinejoin="round"/>
<path d="M14.0821 20.2591L14.1047 19.5586L13.9164 19.3928H11.0765L10.9032 19.5586L10.9183 20.2591L8.54541 19.1367L9.37404 19.8147L11.0539 20.9823H13.939L15.6264 19.8147L16.455 19.1367L14.0821 20.2591Z" fill="#C0AD9E" stroke="#C0AD9E" strokeWidth="0.0753296" stroke-linecap="round" strokeLinejoin="round"/>
<path d="M13.9009 17.8931L13.5394 17.6445H11.4527L11.0912 17.8931L10.9028 19.5579L11.0761 19.3922H13.916L14.1043 19.5579L13.9009 17.8931Z" fill="#161616" stroke="#161616" strokeWidth="0.0753296" stroke-linecap="round" strokeLinejoin="round"/>
<path d="M21.4642 9.10226L22.1045 6.02882L21.1479 3.17383L13.9012 8.55236L16.6884 10.9102L20.6281 12.0627L21.5019 11.0458L21.1253 10.7746L21.7279 10.2247L21.2609 9.86309L21.8635 9.40358L21.4642 9.10226ZM2.89551 6.02882L3.53581 9.10226L3.12903 9.40358L3.73167 9.86309L3.27216 10.2247L3.87479 10.7746L3.49814 11.0458L4.36443 12.0627L8.30417 10.9102L11.0914 8.55236L3.84466 3.17383L2.89551 6.02882Z" fill="#763D16" stroke="#763D16" strokeWidth="0.0753296" stroke-linecap="round" strokeLinejoin="round"/>
<path d="M20.6281 12.0634L16.6884 10.9109L17.8861 12.7113L16.1008 16.1764L18.4511 16.1463H21.9539L20.6281 12.0634ZM8.30418 10.9109L4.36445 12.0634L3.05371 16.1463H6.549L8.89175 16.1764L7.11397 12.7113L8.30418 10.9109ZM13.6526 12.8996L13.9012 8.55308L15.0462 5.45703H9.96143L11.0914 8.55308L11.355 12.8996L11.4454 14.2706L11.453 17.6454H13.5396L13.5547 14.2706L13.6526 12.8996Z" fill="#F6851B" stroke="#F6851B" strokeWidth="0.0753296" stroke-linecap="round" strokeLinejoin="round"/>
</svg>
