<svg width="39" height="18" viewBox="0 0 39 18" fill="none" xmlns="http://www.w3.org/2000/svg">
<path fillRule="evenodd" clipRule="evenodd" d="M4.57704 0.246176L4.57704 1.42602L8.33356 1.42603L8.33356 1.18568L8.33356 0.69619C8.33331 0.545465 8.33284 0.394741 8.33235 0.246177L4.57704 0.246176ZM30.0228 0.246184C30.0228 0.400607 30.0228 0.554398 30.0229 0.707769C30.023 0.947954 30.023 1.18711 30.023 1.42603L33.7735 1.42603L33.7735 0.246185L30.0228 0.246184ZM33.7735 2.01596L30.0228 2.01596C30.0229 2.06346 30.0229 2.11099 30.023 2.15855C30.0234 2.48857 30.0238 2.82027 30.0209 3.15716L29.181 3.15716L29.181 3.1958L33.7735 3.1958L33.7735 2.01596ZM33.7735 3.78573L4.57704 3.78572L4.57704 4.83647L0.0180496 4.83647C0.0152697 4.85365 0.0128276 4.8985 0.0107119 4.96557L38.3451 4.96558L38.3451 4.83092L33.7735 4.83092L33.7735 3.78573ZM38.3451 5.5555L0.00207819 5.55549C-0.000299636 5.90071 -0.000595617 6.32648 0.000987197 6.73534L38.3451 6.73535L38.3451 5.5555ZM38.3451 7.32527L0.00475897 7.32526C0.00924539 7.80786 0.0167976 8.17699 0.0269554 8.21179L5.83131 8.21179L5.83131 8.50511L8.3422 8.50511L8.3422 8.22769C8.43492 8.19908 16.7575 8.18478 17.0893 8.21471C17.0937 8.30928 17.0951 8.4048 17.0924 8.50512L21.2699 8.50512L21.2699 8.21524L30.0144 8.21525L30.0144 8.50512L32.5263 8.50512L32.5263 8.20571L37.2956 8.20571C37.3553 8.20571 37.4149 8.20583 37.4746 8.20595C37.5938 8.20618 37.713 8.20642 37.8323 8.20571C37.8882 8.20545 37.9441 8.20584 38 8.20622C38.1162 8.20702 38.2318 8.20781 38.3451 8.2028L38.3451 7.32527ZM33.7712 9.09504L28.7695 9.09504L28.7695 10.2749L36.6883 10.2749L36.6883 9.8988L35.9617 9.8988L35.2289 9.8988C35.1489 9.8988 35.0688 9.89883 34.9887 9.89886C34.8289 9.89892 34.669 9.89898 34.5092 9.8988C34.3675 9.89865 34.2259 9.89822 34.0819 9.89778C33.9797 9.89748 33.8764 9.89717 33.7712 9.89695L33.7712 9.09504ZM36.6883 10.8648L28.3576 10.8648L28.3576 11.1578L27.9406 11.1578L27.9406 11.5776L27.1064 11.5776L27.1064 11.9987C27.0012 12.0058 26.9022 12.005 26.8052 12.0043C26.7635 12.004 26.7221 12.0037 26.6808 12.004C26.5922 12.0046 26.5037 12.0044 26.4114 12.0042C26.3638 12.0041 26.3151 12.004 26.2649 12.004L26.2649 12.0447L36.6883 12.0447L36.6883 10.8648ZM36.6883 12.6346L1.66544 12.6346L1.66544 13.2738L4.36359 13.2738C4.66365 13.2738 4.9637 13.2738 5.26386 13.2737C5.86498 13.2736 6.46652 13.2735 7.06934 13.2738L7.06934 13.6828L6.26582 13.6828L6.26582 13.8144L32.0888 13.8144C32.0851 13.7461 32.0807 13.6968 32.0756 13.677L31.287 13.677L31.287 13.2733L32.1948 13.2733L33.0978 13.2733L33.9878 13.2733L34.8908 13.2733C34.9835 13.2733 35.0762 13.2734 35.1688 13.2735C35.3772 13.2738 35.5855 13.274 35.7939 13.2731C35.8897 13.2726 35.9855 13.2731 36.0813 13.2736C36.2841 13.2747 36.4867 13.2758 36.6883 13.268L36.6883 12.6346ZM32.1007 14.4044L6.26582 14.4044L6.26582 14.955L6.66339 14.955L6.66339 15.3799L7.07825 15.3799L7.07825 15.5842L18.3546 15.5842L18.3546 15.3688L18.7689 15.3688L18.7689 14.968C18.9172 14.942 19.4889 14.9463 19.5932 14.9749L19.5932 15.3796L20.0122 15.3796L20.0122 15.5842L31.2833 15.5842L31.2833 15.369L31.7026 15.369L31.7026 14.9492L32.0853 14.9492C32.096 14.8719 32.1009 14.6457 32.1007 14.4044ZM30.864 16.1741L20.4313 16.1741L20.4313 16.2227L20.8466 16.2227L20.8466 16.6349L21.6816 16.6349L21.6816 17.0576L22.5116 17.0576L22.5116 17.354L28.7722 17.354L28.7722 17.0518L29.605 17.0518L29.605 16.6396C29.7431 16.6313 29.8786 16.6323 30.0137 16.6333C30.1569 16.6344 30.2997 16.6354 30.445 16.6253L30.445 16.2166L30.864 16.2166L30.864 16.1741ZM15.8497 17.354L9.58888 17.354L9.58888 17.0576L8.7568 17.0576L8.7568 16.6354C8.61073 16.6328 8.46804 16.6331 8.32558 16.6334C8.19012 16.6336 8.05487 16.6339 7.91713 16.6317L7.91713 16.2227L7.49756 16.2227L7.49756 16.1741L17.9353 16.1741L17.9353 16.2164L17.516 16.2164L17.516 16.6285L16.68 16.6285L16.68 17.0497C16.5319 17.0583 16.3871 17.0574 16.2419 17.0565C16.1123 17.0556 15.9824 17.0548 15.8497 17.0608L15.8497 17.354ZM1.66544 12.0447L12.0919 12.0447L12.0919 12.0048L11.2588 12.0048L11.2588 11.5823L10.4162 11.5823L10.4162 11.1578L10.0037 11.1578L10.0037 10.8648L1.66544 10.8648L1.66544 12.0447ZM1.66544 10.2749L9.5915 10.2749L9.59149 9.09504L4.57888 9.09504L4.57888 9.90065L1.66544 9.90065L1.66544 10.2749ZM15.8479 9.09504C15.844 9.1813 15.8446 9.26475 15.8452 9.34712C15.8455 9.38978 15.8459 9.43215 15.8455 9.47446C15.845 9.5656 15.8452 9.65674 15.8454 9.74787C15.8455 9.79341 15.8455 9.83895 15.8455 9.88449L15.8455 10.2749L22.5115 10.2749C22.5105 10.0742 22.5107 9.87577 22.5108 9.67685C22.511 9.48418 22.5111 9.29107 22.5102 9.09504L15.8479 9.09504ZM22.9288 10.8648L15.4267 10.8648C15.4267 10.9106 15.4267 10.9569 15.4268 11.0042C15.4269 11.0527 15.427 11.1023 15.427 11.1535L15.0148 11.1535L15.0148 11.576L14.5921 11.576L14.5921 12.0006L13.3391 12.0006L13.3391 12.0447L25.0261 12.0447L25.0261 12.0064C24.8008 12.0035 24.5793 12.0038 24.3576 12.0041C24.1612 12.0044 23.9645 12.0047 23.765 12.0027L23.7651 11.5821L23.3507 11.5821L23.3507 11.1596L22.9288 11.1596L22.9288 10.8648ZM4.57704 3.1958L9.16956 3.1958L9.16956 3.15133L8.33356 3.15133L8.33356 2.65389L8.33356 2.01595L4.57704 2.01595L4.57704 3.1958Z" fill="#F42728"/>
</svg>
