<svg width="91" height="19" viewBox="0 0 91 19" fill="none" xmlns="http://www.w3.org/2000/svg">
<g filter="url(#filter0_d_5075_19177)">
<path d="M0 9.5L0.560402 7.4729C1.10118 5.51679 3.87501 5.51679 4.41579 7.47289L5.53659 11.5271C6.07737 13.4832 8.8512 13.4832 9.39198 11.5271L10.5128 7.4729C11.0536 5.51679 13.8274 5.51679 14.3682 7.4729L15.489 11.5271C16.0297 13.4832 18.8036 13.4832 19.3444 11.5271L20.4652 7.4729C21.0059 5.51679 23.7798 5.51679 24.3205 7.47289L25.4414 11.5271C25.9821 13.4832 28.756 13.4832 29.2967 11.5271L30.4175 7.4729C30.9583 5.51679 33.7322 5.51679 34.2729 7.47289L35.3937 11.5271C35.9345 13.4832 38.7083 13.4832 39.2491 11.5271L40.3699 7.4729C40.9107 5.51679 43.6845 5.51679 44.2253 7.47289L45.3461 11.5271C45.8869 13.4832 48.6607 13.4832 49.2015 11.5271L50.3223 7.4729C50.8631 5.51679 53.6369 5.51679 54.1777 7.47289L55.2985 11.5271C55.8393 13.4832 58.6131 13.4832 59.1539 11.5271L60.2747 7.4729C60.8155 5.51679 63.5893 5.51679 64.1301 7.47289L65.2509 11.5271C65.7917 13.4832 68.5655 13.4832 69.1063 11.5271L70.2271 7.4729C70.7678 5.5168 73.5417 5.51679 74.0825 7.4729L75.2033 11.5271C75.744 13.4832 78.5179 13.4832 79.0586 11.5271L80.1795 7.47289C80.7202 5.51679 83.4941 5.51678 84.0348 7.47289L85.1557 11.5271C85.6964 13.4832 88.4703 13.4832 89.011 11.5271L89.5714 9.5" stroke="#3DCD95" strokeWidth="1.2" stroke-miterlimit="2.03203"/>
</g>
<defs>
<filter id="filter0_d_5075_19177" x="-7.57812" y="-1.59375" width="104.728" height="22.1875" filterUnits="userSpaceOnUse" colorInterpolationFilters="sRGB">
<feFlood floodOpacity="0" result="BackgroundImageFix"/>
<feColorMatrix in="SourceAlpha" type="matrix" values="0 0 0 0 0 0 0 0 0 0 0 0 0 0 0 0 0 0 127 0" result="hardAlpha"/>
<feOffset/>
<feGaussianBlur stdDeviation="3.5"/>
<feComposite in2="hardAlpha" operator="out"/>
<feColorMatrix type="matrix" values="0 0 0 0 0.239216 0 0 0 0 0.803922 0 0 0 0 0.584314 0 0 0 0.9 0"/>
<feBlend mode="normal" in2="BackgroundImageFix" result="effect1_dropShadow_5075_19177"/>
<feBlend mode="normal" in="SourceGraphic" in2="effect1_dropShadow_5075_19177" result="shape"/>
</filter>
</defs>
</svg>
