<svg xmlns="http://www.w3.org/2000/svg" xmlns:xlink="http://www.w3.org/1999/xlink" width="22px" height="22px" viewBox="0 0 22 22" version="1.1">
    <title>Group</title>
    <g id="Page-1" stroke="none" strokeWidth="1" fill="none" fillRule="evenodd">
        <g id="Quest-Details" transform="translate(-1278.000000, -661.000000)" fill="#FFFFFF" fillRule="nonzero">
            <g id="Group" transform="translate(1278.000000, 661.000000)">
                <path d="M14.6,14.69998 C14.2,14.69998 13.9,14.49998 13.7,14.19998 L12.5,12.09998 C12,10.99998 11,9.99998 9.9,9.39998 L7.80005,8.19998 C7.50005,8.09998 7.30005,7.7 7.30005,7.4 C7.30005,7 7.50005,6.7 7.80005,6.5 L9.9,5.3 C11,4.7 12,3.8 12.6,2.6 L13.8,0.5 C13.9,0.2 14.3,0 14.6,0 C15,0 15.3,0.2 15.5,0.5 L16.7,2.6 C17.3,3.7 18.3,4.7 19.4,5.3 L21.5,6.5 C21.8,6.7 22,7 22,7.4 C22,7.8 21.8,8.09998 21.5,8.29998 L19.4,9.49998 C18.3,10.09998 17.3,11.09998 16.7,12.19998 L15.5,14.29998 C15.3,14.49998 15,14.69998 14.6,14.69998 Z" id="Path"/>
                <path d="M5.5,21.99998 C5.1,21.99998 4.8,21.79998 4.6,21.49998 L4,20.29998 C3.5,19.29998 2.7,18.49998 1.7,17.99998 L0.5,17.39998 C0.2,17.19998 0,16.79998 0,16.49998 C0,16.09998 0.2,15.79998 0.5,15.59998 L1.7,14.99998 C2.7,14.49998 3.5,13.69998 4,12.69998 L4.6,11.49998 C5,10.89998 6,10.89998 6.4,11.49998 L7,12.69998 C7.5,13.69998 8.3,14.49998 9.3,14.99998 L10.5,15.59998 C10.8,15.79998 11,16.09998 11,16.49998 C11,16.89998 10.8,17.19998 10.5,17.39998 L9.4,17.99998 C8.4,18.49998 7.6,19.29998 7.1,20.29998 L6.5,21.49998 C6.2,21.79998 5.9,21.99998 5.5,21.99998 Z" id="Path"/>
            </g>
        </g>
    </g>
</svg>