<svg width="24" height="24" viewBox="0 0 51 24" fill="none"
  xmlns="http://www.w3.org/2000/svg">
  <path fillRule="evenodd" clipRule="evenodd" d="M13.2226 4.78125C12.266 4.78125 11.4062 4.78125 11.4062 3.21278V0.65625L6.9375 0.65625V6.84375H0.75V10.9688H9L6.9375 12V13.0312H2.8125V17.1562H11.0625L8.4583 18.4583C10.2726 21.403 13.5315 23.3438 17.25 23.3438C20.6234 23.3438 23.6185 21.724 25.5 19.2197C27.3815 21.724 30.3766 23.3438 33.75 23.3438C37.4685 23.3438 40.7274 21.403 42.5417 18.4583L39.9375 17.1562H48.1875V13.0312H44.0625V12L42 10.9688H50.25V6.84375H44.0625V0.65625H39.5938V3.21278C39.5938 4.78125 38.5625 4.78125 37.7774 4.78125H13.2226ZM23.4375 10.9688L21.375 12C21.375 14.2782 19.5282 16.125 17.25 16.125C14.9718 16.125 13.125 14.2782 13.125 12L11.0625 10.9688H23.4375ZM39.9375 10.9688L37.875 12C37.875 14.2782 36.0282 16.125 33.75 16.125C31.4718 16.125 29.625 14.2782 29.625 12L27.5625 10.9688H39.9375Z" fill="#232329"/>
</svg>
