<svg width="167" height="30" viewBox="0 0 167 30" fill="none" xmlns="http://www.w3.org/2000/svg">
<rect width="151" height="30" rx="8" fill="#7B5BE6"/>
<rect x="2" y="2" width="40" height="26" rx="6" fill="#010101"/>
<path fill-rule="evenodd" clip-rule="evenodd" d="M16.0473 11.75C15.5835 11.75 15.1667 11.75 15.1667 10.9895V9.75L13 9.75V12.75H10V14.75H14L13 15.25V15.75H11V17.75H15L13.7374 18.3813C14.617 19.809 16.1971 20.75 18 20.75C19.6356 20.75 21.0878 19.9647 22 18.7505C22.9122 19.9647 24.3644 20.75 26 20.75C27.8029 20.75 29.383 19.809 30.2626 18.3813L29 17.75H33V15.75H31V15.25L30 14.75H34V12.75H31V9.75H28.8333V10.9895C28.8333 11.75 28.3333 11.75 27.9527 11.75H16.0473ZM21 14.75L20 15.25C20 16.3546 19.1046 17.25 18 17.25C16.8954 17.25 16 16.3546 16 15.25L15 14.75H21ZM29 14.75L28 15.25C28 16.3546 27.1046 17.25 26 17.25C24.8954 17.25 24 16.3546 24 15.25L23 14.75H29Z" fill="#7B5BE6"/>
<path d="M52.854 9.63H57.278L60.246 18.926H60.806L60.386 17.54V9.63H62.626V19.5H58.202L55.234 10.204H54.66L55.094 11.59V19.5H52.854V9.63ZM66.4524 9.63H71.2824L74.1244 19.5H71.7444L70.8624 16.336H66.8444L65.9624 19.5H63.6244L66.4524 9.63ZM70.3024 14.376L69.1404 10.204H68.5664L67.4044 14.376H70.3024ZM75.0435 9.63H77.2835V13.536H77.8715L81.3015 9.63H84.0315L79.8315 14.39L84.1015 19.5H81.2595L77.8295 15.3H77.2835V19.5H75.0435V9.63ZM87.261 9.63H92.091L94.933 19.5H92.553L91.671 16.336H87.653L86.771 19.5H84.433L87.261 9.63ZM91.111 14.376L89.949 10.204H89.375L88.213 14.376H91.111ZM95.852 9.63H100.29L101.62 18.926H102.18L103.51 9.63H107.906V19.5H105.666V12.836L106.072 10.204H105.526L104.056 19.5H99.702L98.232 10.204H97.658L98.092 12.836V19.5H95.852V9.63ZM109.27 14.558C109.27 13.5873 109.475 12.7147 109.886 11.94C110.296 11.1653 110.884 10.5587 111.65 10.12C112.415 9.672 113.311 9.448 114.338 9.448C115.355 9.448 116.246 9.672 117.012 10.12C117.777 10.5587 118.36 11.1653 118.762 11.94C119.172 12.7147 119.378 13.5873 119.378 14.558C119.378 15.5287 119.172 16.406 118.762 17.19C118.36 17.9647 117.777 18.576 117.012 19.024C116.246 19.4627 115.355 19.682 114.338 19.682C113.311 19.682 112.415 19.4627 111.65 19.024C110.884 18.576 110.296 17.9647 109.886 17.19C109.475 16.406 109.27 15.5287 109.27 14.558ZM111.58 14.558C111.58 15.538 111.813 16.2987 112.28 16.84C112.746 17.3813 113.432 17.652 114.338 17.652C115.234 17.652 115.91 17.3813 116.368 16.84C116.834 16.2987 117.068 15.538 117.068 14.558C117.068 13.578 116.834 12.8173 116.368 12.276C115.91 11.7347 115.234 11.464 114.338 11.464C113.442 11.464 112.756 11.7393 112.28 12.29C111.813 12.8313 111.58 13.5873 111.58 14.558ZM128.024 9.63V11.59H124.804V19.5H122.564V11.59H119.33V9.63H128.024ZM128.328 14.558C128.328 13.5873 128.534 12.7147 128.944 11.94C129.355 11.1653 129.943 10.5587 130.708 10.12C131.474 9.672 132.37 9.448 133.396 9.448C134.414 9.448 135.305 9.672 136.07 10.12C136.836 10.5587 137.419 11.1653 137.82 11.94C138.231 12.7147 138.436 13.5873 138.436 14.558C138.436 15.5287 138.231 16.406 137.82 17.19C137.419 17.9647 136.836 18.576 136.07 19.024C135.305 19.4627 134.414 19.682 133.396 19.682C132.37 19.682 131.474 19.4627 130.708 19.024C129.943 18.576 129.355 17.9647 128.944 17.19C128.534 16.406 128.328 15.5287 128.328 14.558ZM130.638 14.558C130.638 15.538 130.872 16.2987 131.338 16.84C131.805 17.3813 132.491 17.652 133.396 17.652C134.292 17.652 134.969 17.3813 135.426 16.84C135.893 16.2987 136.126 15.538 136.126 14.558C136.126 13.578 135.893 12.8173 135.426 12.276C134.969 11.7347 134.292 11.464 133.396 11.464C132.5 11.464 131.814 11.7393 131.338 12.29C130.872 12.8313 130.638 13.5873 130.638 14.558Z" fill="#010101"/>
<path d="M155 0V1.12766H156.695V5H158.047V1.12766H159.743V0H155Z" fill="#7B5BE6"/>
<path d="M160.338 5H161.697V1.88652L161.436 0.319149H161.772L162.354 5H164.976L165.573 0.319149H165.895L165.648 1.88652V5H167V0H164.348L163.856 4.68085H163.512L163.019 0H160.338V5Z" fill="#7B5BE6"/>
</svg>
