<svg width="225" height="30" viewBox="0 0 225 30" fill="none" xmlns="http://www.w3.org/2000/svg">
  <rect width="209" height="30" rx="8" fill="#7B5BE6"/>
  <rect x="2" y="2" width="40" height="26" rx="6" fill="#010101"/>
  <path fillRule="evenodd" clipRule="evenodd" d="M16.0473 11.75C15.5835 11.75 15.1667 11.75 15.1667 10.9895V9.75L13 9.75V12.75H10V14.75H14L13 15.25V15.75H11V17.75H15L13.7374 18.3813C14.617 19.809 16.1971 20.75 18 20.75C19.6356 20.75 21.0878 19.9647 22 18.7505C22.9122 19.9647 24.3644 20.75 26 20.75C27.8029 20.75 29.383 19.809 30.2626 18.3813L29 17.75H33V15.75H31V15.25L30 14.75H34V12.75H31V9.75H28.8333V10.9895C28.8333 11.75 28.3333 11.75 27.9527 11.75H16.0473ZM21 14.75L20 15.25C20 16.3546 19.1046 17.25 18 17.25C16.8954 17.25 16 16.3546 16 15.25L15 14.75H21ZM29 14.75L28 15.25C28 16.3546 27.1046 17.25 26 17.25C24.8954 17.25 24 16.3546 24 15.25L23 14.75H29Z" fill="#7B5BE6"/>
  <path d="M52.854 9.63H57.278L60.246 18.926H60.806L60.386 17.54V9.63H62.626V19.5H58.202L55.234 10.204H54.66L55.094 11.59V19.5H52.854V9.63ZM66.4524 9.63H71.2824L74.1244 19.5H71.7444L70.8624 16.336H66.8444L65.9624 19.5H63.6244L66.4524 9.63ZM70.3024 14.376L69.1404 10.204H68.5664L67.4044 14.376H70.3024ZM75.0435 9.63H77.2835V13.536H77.8715L81.3015 9.63H84.0315L79.8315 14.39L84.1015 19.5H81.2595L77.8295 15.3H77.2835V19.5H75.0435V9.63ZM87.261 9.63H92.091L94.933 19.5H92.553L91.671 16.336H87.653L86.771 19.5H84.433L87.261 9.63ZM91.111 14.376L89.949 10.204H89.375L88.213 14.376H91.111ZM95.852 9.63H100.29L101.62 18.926H102.18L103.51 9.63H107.906V19.5H105.666V12.836L106.072 10.204H105.526L104.056 19.5H99.702L98.232 10.204H97.658L98.092 12.836V19.5H95.852V9.63ZM109.27 14.558C109.27 13.5873 109.475 12.7147 109.886 11.94C110.296 11.1653 110.884 10.5587 111.65 10.12C112.415 9.672 113.311 9.448 114.338 9.448C115.355 9.448 116.246 9.672 117.012 10.12C117.777 10.5587 118.36 11.1653 118.762 11.94C119.172 12.7147 119.378 13.5873 119.378 14.558C119.378 15.5287 119.172 16.406 118.762 17.19C118.36 17.9647 117.777 18.576 117.012 19.024C116.246 19.4627 115.355 19.682 114.338 19.682C113.311 19.682 112.415 19.4627 111.65 19.024C110.884 18.576 110.296 17.9647 109.886 17.19C109.475 16.406 109.27 15.5287 109.27 14.558ZM111.58 14.558C111.58 15.538 111.813 16.2987 112.28 16.84C112.746 17.3813 113.432 17.652 114.338 17.652C115.234 17.652 115.91 17.3813 116.368 16.84C116.834 16.2987 117.068 15.538 117.068 14.558C117.068 13.578 116.834 12.8173 116.368 12.276C115.91 11.7347 115.234 11.464 114.338 11.464C113.442 11.464 112.756 11.7393 112.28 12.29C111.813 12.8313 111.58 13.5873 111.58 14.558ZM128.024 9.63V11.59H124.804V19.5H122.564V11.59H119.33V9.63H128.024ZM128.328 14.558C128.328 13.5873 128.534 12.7147 128.944 11.94C129.355 11.1653 129.943 10.5587 130.708 10.12C131.474 9.672 132.37 9.448 133.396 9.448C134.414 9.448 135.305 9.672 136.07 10.12C136.836 10.5587 137.419 11.1653 137.82 11.94C138.231 12.7147 138.436 13.5873 138.436 14.558C138.436 15.5287 138.231 16.406 137.82 17.19C137.419 17.9647 136.836 18.576 136.07 19.024C135.305 19.4627 134.414 19.682 133.396 19.682C132.37 19.682 131.474 19.4627 130.708 19.024C129.943 18.576 129.355 17.9647 128.944 17.19C128.534 16.406 128.328 15.5287 128.328 14.558ZM130.638 14.558C130.638 15.538 130.872 16.2987 131.338 16.84C131.805 17.3813 132.491 17.652 133.396 17.652C134.292 17.652 134.969 17.3813 135.426 16.84C135.893 16.2987 136.126 15.538 136.126 14.558C136.126 13.578 135.893 12.8173 135.426 12.276C134.969 11.7347 134.292 11.464 133.396 11.464C132.5 11.464 131.814 11.7393 131.338 12.29C130.872 12.8313 130.638 13.5873 130.638 14.558ZM140.488 19.64C140.04 19.64 139.676 19.5 139.396 19.22C139.125 18.9307 138.99 18.576 138.99 18.156C138.99 17.7547 139.125 17.414 139.396 17.134C139.676 16.854 140.04 16.714 140.488 16.714C140.936 16.714 141.304 16.854 141.594 17.134C141.892 17.414 142.042 17.7547 142.042 18.156C142.042 18.5667 141.892 18.9167 141.594 19.206C141.304 19.4953 140.936 19.64 140.488 19.64ZM147.168 19.668C146.206 19.668 145.376 19.458 144.676 19.038C143.976 18.618 143.439 18.03 143.066 17.274C142.702 16.518 142.52 15.6407 142.52 14.642C142.52 13.5873 142.72 12.668 143.122 11.884C143.532 11.1 144.116 10.498 144.872 10.078C145.628 9.658 146.51 9.448 147.518 9.448C148.367 9.448 149.137 9.602 149.828 9.91C150.518 10.218 151.083 10.652 151.522 11.212C151.96 11.772 152.236 12.4207 152.348 13.158H150.038C149.944 12.6167 149.678 12.1873 149.24 11.87C148.81 11.5433 148.274 11.38 147.63 11.38C146.752 11.38 146.066 11.6693 145.572 12.248C145.077 12.8173 144.83 13.606 144.83 14.614C144.83 15.5847 145.068 16.3453 145.544 16.896C146.02 17.4467 146.752 17.722 147.742 17.722C148.554 17.722 149.193 17.54 149.66 17.176C150.126 16.812 150.369 16.322 150.388 15.706H147.672V13.984H151.438C151.83 13.984 152.133 14.0913 152.348 14.306C152.562 14.5113 152.67 14.8053 152.67 15.188V19.5H150.43V18.73L150.864 17.05H150.29C150.308 17.3207 150.248 17.6613 150.108 18.072C149.968 18.4733 149.664 18.842 149.198 19.178C148.731 19.5047 148.054 19.668 147.168 19.668ZM156.523 9.63H161.353L164.195 19.5H161.815L160.933 16.336H156.915L156.033 19.5H153.695L156.523 9.63ZM160.373 14.376L159.211 10.204H158.637L157.475 14.376H160.373ZM165.114 9.63H169.552L170.882 18.926H171.442L172.772 9.63H177.168V19.5H174.928V12.836L175.334 10.204H174.788L173.318 19.5H168.964L167.494 10.204H166.92L167.354 12.836V19.5H165.114V9.63ZM178.881 9.63H186.497V11.59H181.135V13.62H185.797V15.482H181.135V17.54H186.497V19.5H178.881V9.63ZM196.573 16.658C196.573 17.6193 196.223 18.366 195.523 18.898C194.823 19.4207 193.736 19.682 192.261 19.682C189.032 19.682 187.417 18.352 187.417 15.692H189.727C189.727 16.448 189.919 16.9893 190.301 17.316C190.693 17.6427 191.365 17.806 192.317 17.806C192.999 17.806 193.493 17.722 193.801 17.554C194.109 17.386 194.263 17.12 194.263 16.756C194.263 16.2893 193.923 15.9673 193.241 15.79L190.063 14.95C189.27 14.7447 188.701 14.418 188.355 13.97C188.01 13.5127 187.837 12.9573 187.837 12.304C187.837 11.38 188.169 10.6753 188.831 10.19C189.503 9.69533 190.469 9.448 191.729 9.448C193.195 9.448 194.31 9.76533 195.075 10.4C195.841 11.0347 196.223 11.898 196.223 12.99H193.913C193.913 12.402 193.736 11.9727 193.381 11.702C193.036 11.4313 192.495 11.296 191.757 11.296C190.684 11.296 190.147 11.618 190.147 12.262C190.147 12.458 190.217 12.6307 190.357 12.78C190.497 12.92 190.74 13.0367 191.085 13.13L194.193 13.9C195.78 14.3013 196.573 15.2207 196.573 16.658Z" fill="#010101"/>
  <path d="M213 0V1.12766H214.695V5H216.047V1.12766H217.743V0H213Z" fill="#7B5BE6"/>
  <path d="M218.338 5H219.697V1.88652L219.436 0.319149H219.772L220.354 5H222.976L223.573 0.319149H223.895L223.648 1.88652V5H225V0H222.348L221.856 4.68085H221.512L221.019 0H218.338V5Z" fill="#7B5BE6"/>
</svg>
