<svg width="61" height="61" viewBox="0 0 61 61" fill="none" xmlns="http://www.w3.org/2000/svg">
<path d="M32.9424 1.00009C32.9034 0.92909 32.8534 0.86409 32.7914 0.80809C32.7304 0.75209 32.6594 0.70509 32.5794 0.67109C32.4994 0.63709 32.4144 0.61809 32.3254 0.61209C32.1614 0.60109 32.0214 0.62409 31.9034 0.68109C31.7854 0.73809 31.6874 0.81709 31.6104 0.91809C31.5334 1.02109 31.4744 1.13709 31.4334 1.27209C31.3924 1.40509 31.3674 1.54509 31.3584 1.69009C31.3494 1.82809 31.3584 1.96409 31.3814 2.09709C31.4064 2.23009 31.4504 2.35109 31.5144 2.46009C31.5784 2.56909 31.6664 2.65909 31.7764 2.72909C31.8864 2.80009 32.0244 2.84009 32.1874 2.85009C32.4094 2.86409 32.5874 2.80709 32.7204 2.67909C32.8534 2.55109 32.9414 2.37709 32.9824 2.15709L33.6854 2.20109C33.6534 2.40709 33.5944 2.59009 33.5074 2.75209C33.4204 2.91409 33.3104 3.04809 33.1764 3.15809C33.0424 3.26809 32.8894 3.34709 32.7154 3.39909C32.5424 3.45009 32.3534 3.46909 32.1494 3.45709C31.8974 3.44209 31.6724 3.38309 31.4754 3.28309C31.2794 3.18309 31.1164 3.05109 30.9874 2.88809C30.8574 2.72609 30.7624 2.53809 30.7014 2.32609C30.6404 2.11409 30.6174 1.88609 30.6324 1.64609C30.6474 1.39909 30.6994 1.17309 30.7864 0.96609C30.8734 0.75909 30.9904 0.58209 31.1394 0.43309C31.2874 0.28509 31.4654 0.17209 31.6734 0.09609C31.8804 0.01909 32.1104 -0.0119099 32.3634 0.00409005C32.5454 0.0150901 32.7154 0.05209 32.8744 0.11409C33.0324 0.17709 33.1724 0.26209 33.2944 0.37009C33.4164 0.47809 33.5144 0.60909 33.5884 0.76109C33.6624 0.91509 33.7044 1.08709 33.7134 1.28109L33.0104 1.23709C33.0024 1.15309 32.9804 1.07509 32.9414 1.00309L32.9424 1.00009Z" fill="#232329"/>
<path d="M34.4021 1.22916C34.5141 1.03416 34.6541 0.87416 34.8201 0.74516C34.9861 0.61616 35.1771 0.52716 35.3921 0.47616C35.6081 0.42516 35.8401 0.42416 36.0891 0.47216C36.3411 0.52016 36.5571 0.60616 36.7381 0.73116C36.9191 0.85716 37.0621 1.00916 37.1701 1.19016C37.2771 1.37116 37.3471 1.57316 37.3801 1.79516C37.4141 2.01616 37.4071 2.24916 37.3611 2.49216C37.3161 2.72816 37.2381 2.94216 37.1261 3.13416C37.0141 3.32516 36.8761 3.48216 36.7111 3.60816C36.5451 3.73416 36.3561 3.82216 36.1421 3.87016C35.9281 3.91916 35.6961 3.91916 35.4441 3.87316C35.1951 3.82516 34.9791 3.73916 34.7971 3.61516C34.6151 3.49016 34.4701 3.33916 34.3621 3.16216C34.2541 2.98416 34.1831 2.78516 34.1491 2.56716C34.1151 2.34816 34.1201 2.12016 34.1651 1.88416C34.2111 1.64116 34.2901 1.42216 34.4031 1.22916H34.4021ZM34.8511 2.42716C34.8581 2.56116 34.8871 2.68816 34.9371 2.80416C34.9871 2.92116 35.0621 3.02116 35.1631 3.10416C35.2641 3.18816 35.3941 3.24416 35.5551 3.27516C35.7151 3.30516 35.8581 3.30016 35.9821 3.25916C36.1061 3.21916 36.2131 3.15316 36.3021 3.06316C36.3921 2.97416 36.4641 2.86716 36.5211 2.74416C36.5781 2.62216 36.6191 2.49216 36.6451 2.35616C36.6721 2.21316 36.6821 2.07216 36.6761 1.93216C36.6691 1.79216 36.6411 1.66316 36.5911 1.54516C36.5411 1.42716 36.4661 1.32716 36.3651 1.24316C36.2651 1.15916 36.1341 1.10216 35.9741 1.07216C35.8131 1.04216 35.6701 1.04616 35.5461 1.08716C35.4221 1.12816 35.3151 1.19416 35.2251 1.28616C35.1361 1.37816 35.0621 1.48616 35.0051 1.61416C34.9471 1.74216 34.9061 1.87716 34.8781 2.02016C34.8531 2.15616 34.8431 2.29216 34.8511 2.42716Z" fill="#232329"/>
<path d="M39.8361 1.51887C40.0331 1.58087 40.1921 1.66287 40.3121 1.76387C40.4321 1.86487 40.5211 1.97787 40.5781 2.09887C40.6341 2.22087 40.6641 2.34887 40.6651 2.48187C40.6661 2.61587 40.6461 2.74787 40.6051 2.87687C40.5651 3.00287 40.5061 3.12087 40.4271 3.23087C40.3491 3.34087 40.2511 3.42787 40.1341 3.49587C40.0171 3.56287 39.8801 3.60287 39.7241 3.61687C39.5671 3.62887 39.3901 3.60487 39.1931 3.54287L38.4651 3.31087L38.1061 4.44087L37.4121 4.22187L38.4141 1.06787L39.8361 1.52087V1.51887ZM39.1741 2.94187C39.2541 2.96687 39.3321 2.98587 39.4091 2.99687C39.4861 3.00887 39.5581 3.00687 39.6251 2.98987C39.6921 2.97487 39.7521 2.94087 39.8051 2.88987C39.8581 2.83887 39.9021 2.76187 39.9331 2.66187C39.9641 2.56187 39.9731 2.47587 39.9601 2.40387C39.9461 2.33087 39.9151 2.26787 39.8711 2.21787C39.8261 2.16587 39.7681 2.12187 39.6981 2.08787C39.6281 2.05187 39.5531 2.02187 39.4741 1.99687L38.9351 1.82587L38.6351 2.77087L39.1741 2.94187Z" fill="#232329"/>
<path d="M41.3035 1.99902L42.0485 2.33102L42.2225 3.84102L43.4575 2.96102L44.1975 3.29102L42.2445 4.65302L41.7265 5.81202L41.0625 5.51602L41.5885 4.33902L41.3035 2.00002V1.99902Z" fill="#232329"/>
<path d="M46.2215 4.47104C46.3495 4.54604 46.4515 4.63403 46.5295 4.73704C46.6075 4.83803 46.6615 4.94704 46.6915 5.06204C46.7225 5.17704 46.7285 5.29404 46.7115 5.41004C46.6935 5.52804 46.6535 5.64004 46.5885 5.74904C46.4895 5.91604 46.3685 6.04104 46.2255 6.12204C46.0825 6.20204 45.9125 6.22604 45.7145 6.19604L45.7105 6.20404C45.7745 6.27103 45.8185 6.34103 45.8435 6.41504C45.8685 6.48803 45.8785 6.56404 45.8755 6.64304C45.8725 6.72304 45.8565 6.80204 45.8285 6.88204C45.8005 6.96304 45.7675 7.04104 45.7305 7.11504C45.7065 7.16204 45.6775 7.21604 45.6445 7.28004C45.6115 7.34404 45.5785 7.40804 45.5475 7.47604C45.5165 7.54304 45.4915 7.61003 45.4725 7.67603C45.4535 7.74203 45.4465 7.80203 45.4515 7.86003L44.8255 7.49004C44.8445 7.37904 44.8875 7.25804 44.9535 7.12904C45.0195 6.99904 45.0785 6.87304 45.1305 6.74804C45.1975 6.58804 45.2165 6.45203 45.1885 6.34204C45.1605 6.23103 45.0675 6.12904 44.9105 6.03604L44.2855 5.66604L43.6255 6.77804L42.9995 6.40604L44.6875 3.56104L46.2215 4.47104ZM45.2345 5.62603C45.3775 5.71104 45.5035 5.74304 45.6135 5.72204C45.7235 5.70004 45.8205 5.61804 45.9055 5.47504C45.9875 5.33704 46.0115 5.21404 45.9765 5.11004C45.9425 5.00404 45.8535 4.91004 45.7095 4.82504L45.0235 4.41804L44.5485 5.21904L45.2345 5.62603Z" fill="#232329"/>
<path d="M48.2913 5.85706L46.3693 8.55006L45.7773 8.12806L47.6983 5.43506L48.2903 5.85706H48.2913Z" fill="#232329"/>
<path d="M48.3451 10.1091C48.1821 10.0571 48.0391 9.97914 47.9171 9.87514C47.7241 9.71014 47.5801 9.52914 47.4821 9.33214C47.3851 9.13314 47.3351 8.93014 47.3291 8.72214C47.3241 8.51514 47.3601 8.30814 47.4391 8.10114C47.5191 7.89414 47.6361 7.69914 47.7921 7.51514C47.9521 7.32714 48.1291 7.17814 48.3231 7.06414C48.5171 6.95214 48.7181 6.88014 48.9261 6.85014C49.1341 6.82114 49.3441 6.83814 49.5561 6.90114C49.7681 6.96414 49.9711 7.07814 50.1631 7.24214C50.2921 7.35214 50.4001 7.47814 50.4891 7.62014C50.5771 7.76314 50.6371 7.91214 50.6711 8.07114C50.7051 8.22914 50.7061 8.39014 50.6751 8.55514C50.6441 8.72014 50.5741 8.88014 50.4671 9.03514L49.9381 8.58414C50.0251 8.41514 50.0521 8.25514 50.0181 8.10414C49.9841 7.95314 49.9001 7.82214 49.7661 7.70614C49.6411 7.60014 49.5151 7.53514 49.3871 7.50914C49.2591 7.48314 49.1331 7.48714 49.0101 7.52114C48.8871 7.55714 48.7691 7.61614 48.6561 7.69814C48.5431 7.78014 48.4391 7.87614 48.3451 7.98714C48.2551 8.09314 48.1801 8.20514 48.1191 8.32714C48.0581 8.44814 48.0211 8.57114 48.0071 8.69714C47.9931 8.82314 48.0091 8.94714 48.0551 9.06914C48.1001 9.19214 48.1861 9.30614 48.3101 9.41314C48.4941 9.56914 48.6751 9.64314 48.8541 9.63514C49.0331 9.62814 49.2061 9.54314 49.3731 9.38114L48.8161 8.90514L49.1681 8.49214L50.2251 9.39414L49.0641 10.7561L48.7121 10.4541L48.8991 10.1211C48.6921 10.1641 48.5071 10.1591 48.3441 10.1071L48.3451 10.1091Z" fill="#232329"/>
<path d="M52.3422 9.40321L51.4052 10.2602L52.3092 11.2492L53.2462 10.3922L53.7372 10.9282L51.2962 13.1622L50.8052 12.6242L51.8582 11.6612L50.9542 10.6722L49.9012 11.6362L49.4102 11.0982L51.8512 8.86621L52.3422 9.40221V9.40321Z" fill="#232329"/>
<path d="M53.6625 11.8082L54.1575 11.4492L55.7515 13.6402L55.2565 14.0012L54.6735 13.1992L52.4915 14.7852L52.0635 14.1952L54.2455 12.6102L53.6625 11.8082Z" fill="#232329"/>
<path d="M55.2641 14.5813C55.4981 14.5603 55.7191 14.5863 55.9301 14.6553C56.1401 14.7253 56.3351 14.8333 56.5111 14.9803C56.6871 15.1283 56.8331 15.3043 56.9481 15.5083C57.0631 15.7143 57.1371 15.9293 57.1711 16.1573C57.2051 16.3853 57.1961 16.6053 57.1461 16.8223C57.0961 17.0393 57.0011 17.2403 56.8631 17.4293C56.7251 17.6183 56.5391 17.7793 56.3081 17.9083C56.0781 18.0373 55.8471 18.1113 55.6141 18.1303C55.3801 18.1493 55.1571 18.1253 54.9461 18.0563C54.7331 17.9873 54.5401 17.8793 54.3651 17.7313C54.1891 17.5833 54.0451 17.4073 53.9301 17.2023C53.8161 16.9983 53.7401 16.7823 53.7051 16.5563C53.6701 16.3283 53.6791 16.1083 53.7301 15.8913C53.7821 15.6733 53.8771 15.4703 54.0161 15.2813C54.1541 15.0923 54.3381 14.9343 54.5671 14.8053C54.7991 14.6753 55.0311 14.6013 55.2651 14.5813H55.2641ZM54.3711 15.5723C54.2591 15.7133 54.1781 15.8643 54.1311 16.0263C54.0831 16.1883 54.0691 16.3543 54.0871 16.5263C54.1061 16.6973 54.1601 16.8633 54.2491 17.0223C54.3371 17.1783 54.4491 17.3093 54.5861 17.4143C54.7231 17.5193 54.8731 17.5943 55.0351 17.6383C55.1971 17.6823 55.3691 17.6933 55.5481 17.6723C55.7281 17.6503 55.9041 17.5913 56.0761 17.4953C56.2491 17.3983 56.3911 17.2783 56.5021 17.1363C56.6141 16.9953 56.6931 16.8433 56.7411 16.6813C56.7881 16.5213 56.8031 16.3533 56.7841 16.1823C56.7651 16.0093 56.7131 15.8463 56.6251 15.6903C56.5361 15.5313 56.4231 15.3983 56.2861 15.2923C56.1491 15.1863 55.9991 15.1123 55.8361 15.0683C55.6741 15.0253 55.5031 15.0153 55.3251 15.0363C55.1461 15.0593 54.9711 15.1183 54.7981 15.2163C54.6261 15.3123 54.4831 15.4313 54.3721 15.5713L54.3711 15.5723ZM55.3111 17.3483C55.2071 17.3493 55.1081 17.3323 55.0161 17.2963C54.9231 17.2623 54.8401 17.2113 54.7661 17.1443C54.6921 17.0783 54.6301 17.0003 54.5801 16.9123C54.5061 16.7793 54.4621 16.6473 54.4481 16.5163C54.4341 16.3833 54.4471 16.2573 54.4851 16.1363C54.5231 16.0153 54.5861 15.9033 54.6711 15.8003C54.7561 15.6973 54.8621 15.6113 54.9891 15.5393C55.1191 15.4663 55.2491 15.4183 55.3821 15.3963C55.5141 15.3733 55.6411 15.3753 55.7641 15.4043C55.8861 15.4333 56.0011 15.4883 56.1061 15.5693C56.2111 15.6503 56.3011 15.7573 56.3781 15.8913C56.4311 15.9863 56.4661 16.0823 56.4861 16.1793C56.5061 16.2763 56.5071 16.3723 56.4911 16.4663C56.4751 16.5613 56.4401 16.6513 56.3851 16.7383C56.3311 16.8263 56.2571 16.9043 56.1621 16.9753L55.9851 16.6603C56.0671 16.5863 56.1141 16.4953 56.1261 16.3903C56.1381 16.2853 56.1141 16.1793 56.0551 16.0753C55.9691 15.9213 55.8501 15.8343 55.6981 15.8133C55.5461 15.7913 55.3851 15.8283 55.2151 15.9243C55.1371 15.9683 55.0691 16.0213 55.0101 16.0833C54.9521 16.1463 54.9081 16.2133 54.8781 16.2853C54.8491 16.3563 54.8351 16.4303 54.8381 16.5073C54.8401 16.5843 54.8611 16.6583 54.9021 16.7313C54.9661 16.8453 55.0461 16.9223 55.1431 16.9633C55.2401 17.0043 55.3411 17.0043 55.4461 16.9633L55.6291 17.2913C55.5211 17.3313 55.4141 17.3503 55.3101 17.3503L55.3111 17.3483Z" fill="#232329"/>
<path d="M58.6451 19.2613L56.0511 21.6583L55.7651 20.9593L56.3531 20.4493L55.8851 19.3033L55.1051 19.3413L54.8281 18.6643L58.3641 18.5713L58.6461 19.2623L58.6451 19.2613ZM56.7821 20.0673L57.7481 19.2213L57.7451 19.2133L56.4581 19.2733L56.7821 20.0673Z" fill="#232329"/>
<path d="M59.4655 21.6282L56.8745 22.3772L57.3225 23.9262L56.7345 24.0952L56.0845 21.8482L59.2625 20.9292L59.4645 21.6282H59.4655Z" fill="#232329"/>
<path d="M60.1873 24.5539L57.5343 25.0409L57.8253 26.6259L57.2233 26.7369L56.8013 24.4349L60.0553 23.8389L60.1873 24.5549V24.5539Z" fill="#232329"/>
<path d="M60.7461 29.9881C60.7501 30.1361 60.7301 30.2701 60.6851 30.3901C60.6401 30.5111 60.5771 30.6151 60.4961 30.7011C60.4151 30.7891 60.3201 30.8561 60.2121 30.9041C60.1031 30.9511 59.9861 30.9771 59.8591 30.9811C59.6651 30.9851 59.4951 30.9491 59.3511 30.8711C59.2071 30.7931 59.0951 30.6631 59.0161 30.4791H59.0061C58.9831 30.5701 58.9481 30.6451 58.8981 30.7051C58.8491 30.7641 58.7901 30.8151 58.7211 30.8531C58.6521 30.8911 58.5771 30.9221 58.4941 30.9411C58.4111 30.9601 58.3281 30.9741 58.2451 30.9821C58.1921 30.9861 58.1311 30.9921 58.0601 30.9961C57.9891 31.0011 57.9171 31.0081 57.8431 31.0181C57.7691 31.0281 57.6991 31.0431 57.6331 31.0611C57.5671 31.0801 57.5121 31.1081 57.4661 31.1431L57.4471 30.4151C57.5511 30.3721 57.6751 30.3441 57.8201 30.3311C57.9651 30.3171 58.1041 30.2991 58.2361 30.2781C58.4081 30.2491 58.5331 30.1931 58.6111 30.1111C58.6891 30.0291 58.7261 29.8961 58.7211 29.7131L58.7011 28.9861L57.4091 29.0201L57.3901 28.2931L60.6971 28.2041L60.7451 29.9881H60.7461ZM59.2431 29.7691C59.2471 29.9351 59.2881 30.0601 59.3641 30.1411C59.4401 30.2231 59.5611 30.2621 59.7291 30.2561C59.8891 30.2521 60.0051 30.2081 60.0751 30.1221C60.1451 30.0371 60.1781 29.9111 60.1741 29.7451L60.1531 28.9481L59.2221 28.9731L59.2431 29.7701V29.7691Z" fill="#232329"/>
<path d="M60.6795 32.4583L57.3755 32.2763L57.4155 31.5493L60.7185 31.7313L60.6785 32.4583H60.6795Z" fill="#232329"/>
<path d="M57.1161 34.778C57.0721 34.613 57.0621 34.452 57.0841 34.293C57.1201 34.042 57.1961 33.823 57.3121 33.635C57.4281 33.447 57.5731 33.295 57.7451 33.18C57.9181 33.063 58.1121 32.984 58.3301 32.94C58.5471 32.896 58.7741 32.892 59.0131 32.926C59.2581 32.96 59.4791 33.03 59.6781 33.133C59.8781 33.236 60.0451 33.367 60.1811 33.528C60.3171 33.689 60.4151 33.875 60.4751 34.087C60.5351 34.3 60.5471 34.531 60.5111 34.782C60.4871 34.951 60.4381 35.11 60.3661 35.261C60.2931 35.41 60.1981 35.542 60.0821 35.656C59.9661 35.768 59.8301 35.856 59.6751 35.918C59.5201 35.98 59.3471 36.007 59.1581 35.998L59.2561 35.311C59.4461 35.295 59.5951 35.231 59.7041 35.122C59.8141 35.014 59.8801 34.871 59.9061 34.697C59.9291 34.535 59.9181 34.393 59.8711 34.271C59.8241 34.149 59.7541 34.045 59.6581 33.96C59.5631 33.875 59.4501 33.806 59.3201 33.756C59.1901 33.704 59.0531 33.668 58.9101 33.648C58.7721 33.627 58.6361 33.625 58.5011 33.638C58.3661 33.651 58.2431 33.686 58.1281 33.741C58.0141 33.797 57.9181 33.877 57.8391 33.981C57.7601 34.085 57.7091 34.218 57.6861 34.38C57.6521 34.619 57.6861 34.812 57.7881 34.959C57.8901 35.107 58.0541 35.207 58.2801 35.262L58.3841 34.537L58.9201 34.614L58.7231 35.991L56.9531 35.737L57.0181 35.278L57.4011 35.259C57.2541 35.107 57.1591 34.948 57.1161 34.782V34.778Z" fill="#232329"/>
<path d="M59.8464 37.785L58.6224 37.449L58.2684 38.741L59.4924 39.077L59.3004 39.779L56.1094 38.904L56.3014 38.202L57.6784 38.579L58.0324 37.289L56.6554 36.912L56.8484 36.21L60.0394 37.083L59.8464 37.785Z" fill="#232329"/>
<path d="M58.5073 40.2119L59.0743 40.4409L58.0643 42.9559L57.4973 42.7279L57.8663 41.8079L55.3643 40.8029L55.6353 40.1279L58.1383 41.1329L58.5083 40.2119H58.5073Z" fill="#232329"/>
<path d="M55.3413 42.8243C55.2543 42.8243 55.1743 42.8423 55.1003 42.8793C55.0273 42.9153 54.9593 42.9673 54.8963 43.0353C54.8333 43.1033 54.7803 43.1803 54.7363 43.2653C54.7063 43.3233 54.6783 43.3863 54.6533 43.4573C54.6283 43.5273 54.6143 43.5983 54.6113 43.6713C54.6083 43.7423 54.6213 43.8093 54.6483 43.8743C54.6753 43.9373 54.7263 43.9883 54.8003 44.0283C54.8793 44.0693 54.9573 44.0773 55.0323 44.0533C55.1083 44.0283 55.1843 43.9843 55.2603 43.9203C55.3363 43.8563 55.4143 43.7773 55.4933 43.6873C55.5733 43.5953 55.6553 43.5053 55.7423 43.4143C55.8273 43.3193 55.9173 43.2303 56.0113 43.1483C56.1063 43.0643 56.2063 42.9993 56.3123 42.9493C56.4183 42.9013 56.5313 42.8763 56.6533 42.8753C56.7743 42.8753 56.9013 42.9093 57.0353 42.9813C57.1853 43.0593 57.2993 43.1613 57.3763 43.2833C57.4533 43.4063 57.5013 43.5393 57.5193 43.6823C57.5383 43.8253 57.5313 43.9703 57.4973 44.1213C57.4633 44.2703 57.4123 44.4123 57.3433 44.5423C57.2623 44.6963 57.1673 44.8333 57.0593 44.9563C56.9513 45.0783 56.8293 45.1743 56.6963 45.2433C56.5623 45.3133 56.4183 45.3473 56.2653 45.3493C56.1123 45.3513 55.9513 45.3063 55.7823 45.2173L56.1113 44.5943C56.2013 44.6353 56.2833 44.6543 56.3573 44.6533C56.4313 44.6523 56.4983 44.6343 56.5583 44.6003C56.6183 44.5663 56.6733 44.5183 56.7223 44.4593C56.7713 44.3993 56.8173 44.3303 56.8583 44.2513C56.8853 44.1993 56.9073 44.1443 56.9243 44.0863C56.9413 44.0283 56.9463 43.9713 56.9413 43.9153C56.9363 43.8573 56.9203 43.8053 56.8943 43.7563C56.8683 43.7073 56.8233 43.6673 56.7603 43.6333C56.7033 43.6033 56.6503 43.5893 56.6043 43.5933C56.5573 43.5963 56.5013 43.6223 56.4373 43.6703C56.3733 43.7183 56.2963 43.7913 56.2073 43.8893C56.1163 43.9863 56.0013 44.1143 55.8573 44.2733C55.8173 44.3213 55.7583 44.3873 55.6773 44.4693C55.5973 44.5503 55.5013 44.6233 55.3883 44.6863C55.2743 44.7483 55.1473 44.7863 55.0053 44.8003C54.8633 44.8153 54.7103 44.7783 54.5463 44.6923C54.4123 44.6223 54.3023 44.5303 54.2143 44.4183C54.1273 44.3063 54.0693 44.1773 54.0393 44.0303C54.0093 43.8833 54.0123 43.7213 54.0453 43.5463C54.0793 43.3693 54.1483 43.1813 54.2533 42.9823C54.3383 42.8203 54.4403 42.6753 54.5603 42.5453C54.6793 42.4133 54.8123 42.3133 54.9583 42.2423C55.1043 42.1693 55.2603 42.1353 55.4283 42.1353C55.5953 42.1363 55.7683 42.1863 55.9473 42.2833L55.6193 42.9073C55.5203 42.8553 55.4283 42.8293 55.3413 42.8273V42.8243Z" fill="#232329"/>
<path d="M54.3685 49.0151C54.2795 49.1331 54.1794 49.2261 54.0704 49.2921C53.9604 49.3581 53.8465 49.4001 53.7295 49.4171C53.6115 49.4351 53.4955 49.4281 53.3805 49.3981C53.2655 49.3681 53.1584 49.3141 53.0574 49.2391C52.9014 49.1211 52.7925 48.9871 52.7285 48.8361C52.6645 48.6851 52.6584 48.5141 52.7104 48.3201L52.7034 48.3151C52.6294 48.3731 52.5545 48.4081 52.4785 48.4251C52.4025 48.4421 52.3255 48.4431 52.2475 48.4301C52.1705 48.4181 52.0924 48.3931 52.0154 48.3571C51.9384 48.3201 51.8654 48.2791 51.7944 48.2341C51.7504 48.2051 51.6994 48.1701 51.6404 48.1301C51.5824 48.0891 51.5215 48.0501 51.4575 48.0121C51.3935 47.9721 51.3294 47.9411 51.2664 47.9131C51.2024 47.8871 51.1424 47.8731 51.0854 47.8731L51.5234 47.2921C51.6314 47.3241 51.7465 47.3801 51.8675 47.4591C51.9885 47.5381 52.1084 47.6111 52.2254 47.6771C52.3784 47.7621 52.5115 47.7961 52.6235 47.7801C52.7355 47.7651 52.8475 47.6841 52.9565 47.5391L53.3955 46.9591L52.3634 46.1791L52.8014 45.5991L55.4415 47.5931L54.3665 49.0161L54.3685 49.0151ZM53.3305 47.9061C53.2305 48.0401 53.1845 48.1621 53.1935 48.2731C53.2025 48.3841 53.2734 48.4901 53.4064 48.5901C53.5344 48.6871 53.6524 48.7241 53.7604 48.7011C53.8684 48.6791 53.9735 48.6011 54.0735 48.4681L54.5545 47.8321L53.8115 47.2711L53.3305 47.9061Z" fill="#232329"/>
<path d="M51.5325 52.2151L51.0885 51.7941L52.2895 50.5261L51.7755 50.0381L50.6725 51.2021L50.2625 50.8141L51.3645 49.6501L50.7765 49.0921L49.5495 50.3861L49.1055 49.9661L50.8325 48.1421L53.2345 50.4181L51.5325 52.2141V52.2151Z" fill="#232329"/>
<path d="M48.9064 51.227C48.8254 51.194 48.7444 51.18 48.6634 51.187C48.5824 51.194 48.4994 51.217 48.4154 51.257C48.3324 51.298 48.2544 51.349 48.1814 51.412C48.1324 51.453 48.0824 51.503 48.0334 51.559C47.9844 51.615 47.9444 51.677 47.9144 51.741C47.8854 51.807 47.8714 51.874 47.8744 51.944C47.8764 52.013 47.9044 52.08 47.9584 52.143C48.0164 52.212 48.0854 52.249 48.1654 52.253C48.2454 52.258 48.3324 52.246 48.4264 52.213C48.5214 52.181 48.6214 52.139 48.7294 52.084C48.8364 52.029 48.9474 51.976 49.0614 51.924C49.1754 51.866 49.2914 51.817 49.4094 51.776C49.5284 51.733 49.6454 51.71 49.7624 51.703C49.8794 51.698 49.9934 51.717 50.1054 51.761C50.2174 51.805 50.3234 51.886 50.4214 52.001C50.5314 52.13 50.5994 52.266 50.6254 52.408C50.6514 52.551 50.6464 52.692 50.6114 52.83C50.5764 52.97 50.5144 53.103 50.4284 53.23C50.3414 53.356 50.2414 53.467 50.1284 53.563C49.9964 53.675 49.8574 53.769 49.7114 53.841C49.5654 53.915 49.4174 53.959 49.2674 53.974C49.1174 53.988 48.9704 53.967 48.8284 53.912C48.6854 53.856 48.5524 53.756 48.4284 53.609L48.9644 53.154C49.0334 53.225 49.1024 53.273 49.1714 53.299C49.2404 53.326 49.3094 53.335 49.3774 53.325C49.4464 53.314 49.5144 53.291 49.5824 53.254C49.6494 53.217 49.7184 53.169 49.7864 53.111C49.8314 53.073 49.8724 53.03 49.9084 52.982C49.9454 52.935 49.9714 52.885 49.9884 52.83C50.0044 52.775 50.0094 52.72 50.0024 52.665C49.9964 52.609 49.9704 52.554 49.9234 52.5C49.8814 52.451 49.8384 52.419 49.7934 52.404C49.7484 52.389 49.6874 52.393 49.6104 52.414C49.5334 52.436 49.4344 52.474 49.3154 52.532C49.1964 52.588 49.0404 52.665 48.8484 52.758C48.7934 52.79 48.7134 52.828 48.6094 52.873C48.5044 52.92 48.3884 52.951 48.2594 52.968C48.1314 52.983 47.9984 52.972 47.8614 52.932C47.7244 52.892 47.5964 52.802 47.4764 52.66C47.3784 52.545 47.3094 52.419 47.2704 52.282C47.2314 52.145 47.2254 52.004 47.2524 51.857C47.2794 51.71 47.3404 51.561 47.4374 51.41C47.5344 51.259 47.6684 51.11 47.8394 50.964C47.9784 50.846 48.1284 50.749 48.2874 50.672C48.4474 50.594 48.6084 50.55 48.7704 50.538C48.9324 50.526 49.0914 50.552 49.2454 50.615C49.4004 50.678 49.5434 50.788 49.6724 50.945L49.1364 51.4C49.0644 51.316 48.9874 51.257 48.9074 51.224L48.9064 51.227Z" fill="#232329"/>
<path d="M46.3631 56.2481L46.0191 55.7421L47.4641 54.7601L47.0661 54.1731L45.7401 55.0751L45.4231 54.6071L46.7481 53.7051L46.2921 53.0341L44.8171 54.0381L44.4731 53.5321L46.5501 52.1201L48.4101 54.8561L46.3641 56.2481H46.3631Z" fill="#232329"/>
<path d="M44.1075 57.4881C43.9755 57.5571 43.8465 57.5981 43.7185 57.6101C43.5905 57.6241 43.4705 57.6131 43.3565 57.5781C43.2425 57.5431 43.1395 57.4871 43.0495 57.4121C42.9585 57.3351 42.8845 57.2421 42.8255 57.1301C42.7345 56.9571 42.6925 56.79 42.6985 56.625C42.7055 56.462 42.7735 56.304 42.9025 56.1521L42.8985 56.1441C42.8075 56.1631 42.7245 56.165 42.6485 56.147C42.5735 56.129 42.5025 56.0981 42.4375 56.0541C42.3725 56.0101 42.3125 55.955 42.2595 55.889C42.2055 55.822 42.1565 55.7551 42.1125 55.6831L42.0175 55.5231C41.9815 55.4631 41.9435 55.4011 41.9025 55.3381C41.8605 55.2761 41.8175 55.2201 41.7715 55.1691C41.7255 55.1181 41.6765 55.08 41.6245 55.055L42.2685 54.716C42.3535 54.79 42.4335 54.889 42.5095 55.014C42.5845 55.137 42.6625 55.2541 42.7405 55.3641C42.8425 55.5051 42.9485 55.5931 43.0565 55.6271C43.1645 55.6601 43.2995 55.635 43.4615 55.55L44.1055 55.2111L43.5045 54.0661L44.1485 53.7271L45.6885 56.6561L44.1095 57.487L44.1075 57.4881ZM43.6405 56.041C43.4925 56.1191 43.3995 56.2101 43.3605 56.3141C43.3205 56.4201 43.3395 56.5461 43.4175 56.6921C43.4925 56.8351 43.5835 56.918 43.6915 56.944C43.7995 56.969 43.9275 56.9431 44.0745 56.8661L44.7795 56.494L44.3465 55.6701L43.6415 56.0401L43.6405 56.041Z" fill="#232329"/>
<path d="M40.6512 55.4351L42.8562 58.1231L42.1612 58.3961L40.6252 56.5001L40.6172 56.5041L40.7732 58.9421L40.0742 59.2161L39.8872 55.7341L40.6512 55.4351Z" fill="#232329"/>
<path d="M37.1693 60.0252L37.0083 59.4352L38.6933 58.9742L38.5063 58.2902L36.9603 58.7142L36.8113 58.1682L38.3573 57.7442L38.1433 56.9622L36.4223 57.4342L36.2603 56.8432L38.6823 56.1812L39.5563 59.3722L37.1693 60.0252Z" fill="#232329"/>
<path d="M34.9651 60.4142C34.7551 60.4472 34.5531 60.4432 34.3611 60.4042C34.1691 60.3642 33.9961 60.2872 33.8431 60.1742C33.6891 60.0592 33.5601 59.9082 33.4541 59.7172C33.3481 59.5262 33.2751 59.2962 33.2331 59.0252C33.1971 58.7862 33.1941 58.5622 33.2241 58.3502C33.2541 58.1402 33.3201 57.9512 33.4211 57.7862C33.5221 57.6202 33.6591 57.4822 33.8301 57.3692C34.0021 57.2572 34.2131 57.1812 34.4641 57.1432L35.8751 56.9282L36.3751 60.1982L34.9641 60.4132L34.9651 60.4142ZM34.6081 57.7412C34.5041 57.7562 34.4061 57.7892 34.3131 57.8372C34.2201 57.8852 34.1421 57.9552 34.0771 58.0442C34.0121 58.1332 33.9671 58.2442 33.9411 58.3772C33.9141 58.5092 33.9151 58.6652 33.9421 58.8452C33.9671 59.0112 34.0061 59.1562 34.0581 59.2852C34.1111 59.4132 34.1811 59.5182 34.2681 59.6022C34.3551 59.6862 34.4631 59.7432 34.5921 59.7752C34.7201 59.8082 34.8731 59.8092 35.0501 59.7832L35.5631 59.7032L35.2481 57.6422L34.6071 57.7412H34.6081Z" fill="#232329"/>
<path d="M27.8062 59.7763C27.8442 59.8473 27.8952 59.9123 27.9562 59.9683C28.0182 60.0243 28.0882 60.0693 28.1692 60.1043C28.2492 60.1403 28.3342 60.1593 28.4232 60.1643C28.5862 60.1743 28.7272 60.1523 28.8452 60.0953C28.9632 60.0383 29.0602 59.9593 29.1382 59.8583C29.2152 59.7553 29.2752 59.6373 29.3162 59.5043C29.3572 59.3703 29.3822 59.2313 29.3912 59.0863C29.3992 58.9483 29.3912 58.8123 29.3682 58.6793C29.3432 58.5463 29.2992 58.4253 29.2352 58.3163C29.1712 58.2073 29.0832 58.1173 28.9732 58.0473C28.8632 57.9763 28.7252 57.9363 28.5622 57.9263C28.3402 57.9123 28.1622 57.9693 28.0292 58.0973C27.8952 58.2253 27.8082 58.3993 27.7662 58.6193L27.0632 58.5753C27.0952 58.3693 27.1542 58.1863 27.2412 58.0243C27.3282 57.8623 27.4382 57.7263 27.5722 57.6183C27.7062 57.5083 27.8592 57.4273 28.0332 57.3773C28.2072 57.3273 28.3952 57.3073 28.5992 57.3193C28.8512 57.3343 29.0762 57.3933 29.2732 57.4933C29.4692 57.5933 29.6322 57.7253 29.7612 57.8883C29.8912 58.0503 29.9862 58.2383 30.0472 58.4503C30.1082 58.6623 30.1312 58.8903 30.1162 59.1303C30.1012 59.3773 30.0492 59.6033 29.9622 59.8103C29.8752 60.0173 29.7572 60.1943 29.6092 60.3433C29.4602 60.4913 29.2832 60.6043 29.0752 60.6803C28.8672 60.7563 28.6382 60.7883 28.3852 60.7723C28.2032 60.7613 28.0332 60.7243 27.8742 60.6623C27.7162 60.5993 27.5752 60.5143 27.4542 60.4063C27.3322 60.2983 27.2342 60.1673 27.1602 60.0143C27.0862 59.8623 27.0442 59.6893 27.0352 59.4963L27.7382 59.5403C27.7452 59.6243 27.7682 59.7023 27.8072 59.7743L27.8062 59.7763Z" fill="#232329"/>
<path d="M26.3455 59.5473C26.2335 59.7423 26.0935 59.9023 25.9275 60.0313C25.7615 60.1603 25.5705 60.2493 25.3555 60.3003C25.1395 60.3513 24.9075 60.3523 24.6585 60.3043C24.4065 60.2563 24.1905 60.1703 24.0095 60.0453C23.8285 59.9193 23.6855 59.7673 23.5775 59.5863C23.4705 59.4053 23.4005 59.2033 23.3675 58.9813C23.3335 58.7603 23.3405 58.5273 23.3865 58.2843C23.4315 58.0483 23.5095 57.8343 23.6215 57.6423C23.7335 57.4513 23.8715 57.2943 24.0365 57.1683C24.2025 57.0423 24.3915 56.9543 24.6055 56.9063C24.8195 56.8573 25.0515 56.8573 25.3035 56.9033C25.5525 56.9513 25.7685 57.0373 25.9505 57.1613C26.1325 57.2863 26.2775 57.4373 26.3855 57.6143C26.4935 57.7923 26.5645 57.9913 26.5985 58.2093C26.6325 58.4283 26.6275 58.6563 26.5825 58.8923C26.5365 59.1353 26.4575 59.3543 26.3445 59.5473H26.3455ZM25.8965 58.3493C25.8895 58.2153 25.8605 58.0883 25.8105 57.9723C25.7605 57.8553 25.6855 57.7553 25.5845 57.6723C25.4835 57.5883 25.3535 57.5323 25.1925 57.5013C25.0325 57.4713 24.8895 57.4763 24.7655 57.5173C24.6415 57.5573 24.5345 57.6233 24.4455 57.7133C24.3555 57.8023 24.2835 57.9093 24.2265 58.0323C24.1695 58.1543 24.1285 58.2843 24.1025 58.4203C24.0755 58.5633 24.0655 58.7043 24.0715 58.8443C24.0785 58.9843 24.1065 59.1133 24.1565 59.2313C24.2065 59.3493 24.2815 59.4493 24.3825 59.5333C24.4825 59.6173 24.6135 59.6743 24.7735 59.7043C24.9345 59.7343 25.0775 59.7303 25.2015 59.6893C25.3255 59.6483 25.4325 59.5823 25.5225 59.4903C25.6115 59.3983 25.6855 59.2903 25.7425 59.1623C25.8005 59.0343 25.8415 58.8993 25.8695 58.7563C25.8945 58.6203 25.9045 58.4843 25.8965 58.3493Z" fill="#232329"/>
<path d="M20.8671 59.2432C20.6701 59.1802 20.5111 59.0982 20.3911 58.9962C20.2711 58.8942 20.1831 58.7832 20.1261 58.6612C20.0691 58.5392 20.0401 58.4112 20.0391 58.2782C20.0381 58.1442 20.0581 58.0122 20.0991 57.8832C20.1391 57.7572 20.1991 57.6392 20.2781 57.5292C20.3571 57.4192 20.4541 57.3322 20.5711 57.2662C20.6881 57.1992 20.8251 57.1592 20.9811 57.1452C21.1381 57.1332 21.3151 57.1572 21.5121 57.2202L22.2401 57.4532L22.6011 56.3232L23.2941 56.5442L22.2871 59.6952L20.8661 59.2412L20.8671 59.2432ZM21.5311 57.8212C21.4511 57.7952 21.3731 57.7772 21.2961 57.7652C21.2191 57.7542 21.1471 57.7552 21.0801 57.7722C21.0131 57.7892 20.9531 57.8212 20.9001 57.8722C20.8471 57.9232 20.8031 57.9982 20.7721 58.0982C20.7401 58.1982 20.7311 58.2842 20.7451 58.3572C20.7591 58.4302 20.7881 58.4912 20.8331 58.5432C20.8781 58.5952 20.9361 58.6392 21.0051 58.6732C21.0751 58.7092 21.1501 58.7392 21.2291 58.7652L21.7671 58.9362L22.0691 57.9912L21.5301 57.8202L21.5311 57.8212Z" fill="#232329"/>
<path d="M19.4443 58.7778L18.6993 58.4458L18.5253 56.9358L17.2903 57.8158L16.5503 57.4858L18.5033 56.1238L19.0213 54.9648L19.6853 55.2608L19.1593 56.4378L19.4443 58.7768V58.7778Z" fill="#232329"/>
<path d="M14.4871 56.284C14.3591 56.207 14.2571 56.118 14.1801 56.017C14.1021 55.916 14.0481 55.807 14.0181 55.692C13.9881 55.577 13.9821 55.46 13.9991 55.344C14.0171 55.226 14.0581 55.114 14.1231 55.004C14.2221 54.837 14.3441 54.713 14.4861 54.634C14.6291 54.553 14.7991 54.528 14.9971 54.56L15.0011 54.552C14.9371 54.485 14.8931 54.415 14.8681 54.341C14.8441 54.267 14.8341 54.192 14.8371 54.112C14.8411 54.034 14.8571 53.954 14.8851 53.873C14.9131 53.793 14.9451 53.715 14.9831 53.64C15.0071 53.593 15.0361 53.539 15.0691 53.477C15.1031 53.414 15.1361 53.349 15.1661 53.281C15.1981 53.214 15.2231 53.147 15.2421 53.081C15.2621 53.015 15.2691 52.955 15.2631 52.897L15.8881 53.269C15.8691 53.38 15.8261 53.501 15.7601 53.63C15.6941 53.759 15.6351 53.886 15.5831 54.01C15.5161 54.172 15.4961 54.306 15.5241 54.417C15.5511 54.527 15.6441 54.628 15.8001 54.721L16.4251 55.094L17.0871 53.982L17.7121 54.355L16.0201 57.198L14.4871 56.286V56.284ZM15.4761 55.129C15.3331 55.044 15.2071 55.012 15.0971 55.033C14.9871 55.055 14.8901 55.136 14.8041 55.28C14.7221 55.418 14.6981 55.539 14.7331 55.645C14.7671 55.749 14.8561 55.845 15.0001 55.93L15.6851 56.337L16.1611 55.538L15.4761 55.129Z" fill="#232329"/>
<path d="M12.4194 54.8912L14.3444 52.2012L14.9364 52.6232L13.0104 55.3132L12.4194 54.8912Z" fill="#232329"/>
<path d="M12.3725 50.6392C12.5345 50.6912 12.6775 50.7692 12.7995 50.8732C12.9925 51.0382 13.1365 51.2202 13.2325 51.4172C13.3295 51.6162 13.3795 51.8192 13.3845 52.0272C13.3895 52.2342 13.3525 52.4412 13.2735 52.6482C13.1945 52.8552 13.0765 53.0502 12.9195 53.2322C12.7595 53.4202 12.5815 53.5712 12.3875 53.6832C12.1945 53.7952 11.9925 53.8672 11.7845 53.8962C11.5765 53.9252 11.3665 53.9082 11.1545 53.8452C10.9425 53.7812 10.7405 53.6672 10.5475 53.5022C10.4185 53.3912 10.3105 53.2652 10.2225 53.1242C10.1345 52.9812 10.0745 52.8312 10.0415 52.6732C10.0075 52.5142 10.0075 52.3522 10.0385 52.1882C10.0695 52.0242 10.1395 51.8642 10.2475 51.7092L10.7755 52.1602C10.6885 52.3292 10.6615 52.4892 10.6945 52.6402C10.7275 52.7912 10.8115 52.9242 10.9455 53.0382C11.0705 53.1452 11.1965 53.2112 11.3235 53.2372C11.4515 53.2632 11.5775 53.2592 11.7005 53.2252C11.8235 53.1892 11.9415 53.1322 12.0545 53.0492C12.1675 52.9662 12.2715 52.8712 12.3655 52.7602C12.4565 52.6542 12.5315 52.5422 12.5925 52.4212C12.6525 52.2992 12.6905 52.1762 12.7045 52.0512C12.7185 51.9252 12.7035 51.8002 12.6575 51.6782C12.6125 51.5562 12.5275 51.4412 12.4025 51.3342C12.2195 51.1782 12.0385 51.1042 11.8595 51.1102C11.6805 51.1162 11.5075 51.2022 11.3405 51.3642L11.8965 51.8402L11.5445 52.2532L10.4875 51.3492L11.6505 49.9902L12.0025 50.2902L11.8145 50.6252C12.0215 50.5822 12.2065 50.5872 12.3695 50.6392H12.3725Z" fill="#232329"/>
<path d="M8.37444 51.3381L9.31245 50.4821L8.41045 49.4931L7.47145 50.3471L6.98145 49.8091L9.42645 47.5811L9.91645 48.1191L8.86245 49.0801L9.76445 50.0701L10.8184 49.1091L11.3084 49.6471L8.86345 51.8751L8.37345 51.3371L8.37444 51.3381Z" fill="#232329"/>
<path d="M7.05722 48.934L6.56121 49.292L4.97021 47.098L5.46522 46.739L6.04721 47.541L8.23122 45.959L8.65822 46.549L6.47422 48.131L7.05622 48.935L7.05722 48.934Z" fill="#232329"/>
<path d="M5.48442 46.1959C5.25142 46.2149 5.02942 46.1889 4.81842 46.1209C4.60842 46.0509 4.41342 45.9429 4.23742 45.7959C4.06142 45.6479 3.91542 45.4719 3.80042 45.2679C3.68542 45.0619 3.61142 44.8469 3.57742 44.6189C3.54342 44.3909 3.55242 44.1709 3.60242 43.9539C3.65342 43.7389 3.74742 43.5359 3.88542 43.3469C4.02342 43.1579 4.20842 42.9989 4.44042 42.8679C4.66942 42.7389 4.90142 42.6649 5.13442 42.6459C5.36842 42.6269 5.59142 42.6509 5.80242 42.7199C6.01542 42.7889 6.20842 42.8969 6.38342 43.0449C6.55942 43.1929 6.70342 43.3689 6.81842 43.5739C6.93242 43.7779 7.00742 43.9939 7.04242 44.2199C7.07842 44.4479 7.06942 44.6679 7.01742 44.8859C6.96542 45.1029 6.87042 45.3059 6.73142 45.4949C6.59342 45.6839 6.40942 45.8419 6.18042 45.9709C5.94842 46.1009 5.71642 46.1749 5.48242 46.1959H5.48442ZM6.37742 45.2029C6.48942 45.0619 6.57042 44.9109 6.61742 44.7489C6.66542 44.5869 6.67942 44.4209 6.66142 44.2489C6.64242 44.0779 6.58842 43.9119 6.49942 43.7529C6.41142 43.5969 6.29942 43.4659 6.16242 43.3609C6.02542 43.2559 5.87542 43.1809 5.71342 43.1369C5.55142 43.0929 5.37942 43.0819 5.20042 43.1039C5.02042 43.1249 4.84442 43.1839 4.67242 43.2799C4.49942 43.3769 4.35742 43.4969 4.24642 43.6389C4.13542 43.7799 4.05542 43.9319 4.00742 44.0939C3.96042 44.2539 3.94542 44.4219 3.96442 44.5929C3.98342 44.7659 4.03542 44.9299 4.12342 45.0869C4.21242 45.2449 4.32542 45.3779 4.46242 45.4829C4.59942 45.5879 4.74942 45.6629 4.91242 45.7069C5.07442 45.7499 5.24542 45.7599 5.42342 45.7389C5.60242 45.7159 5.77742 45.6569 5.95042 45.5589C6.12242 45.4629 6.26542 45.3439 6.37642 45.2039L6.37742 45.2029ZM5.43742 43.4269C5.54142 43.4269 5.64042 43.4429 5.73242 43.4789C5.82542 43.5129 5.90842 43.5639 5.98242 43.6309C6.05642 43.6969 6.11842 43.7749 6.16842 43.8629C6.24242 43.9959 6.28642 44.1279 6.30042 44.2589C6.31442 44.3919 6.30142 44.5179 6.26342 44.6389C6.22542 44.7599 6.16242 44.8719 6.07742 44.9749C5.99242 45.0779 5.88642 45.1639 5.75942 45.2359C5.62942 45.3089 5.49942 45.3569 5.36642 45.3799C5.23442 45.4019 5.10742 45.3989 4.98442 45.3699C4.86242 45.3409 4.74742 45.2859 4.64242 45.2049C4.53742 45.1249 4.44742 45.0169 4.37042 44.8829C4.31742 44.7879 4.28242 44.6919 4.26242 44.5949C4.24242 44.4979 4.24142 44.4019 4.25742 44.3079C4.27342 44.2129 4.30842 44.1229 4.36342 44.0359C4.41742 43.9479 4.49142 43.8699 4.58642 43.7989L4.76342 44.1139C4.68142 44.1879 4.63442 44.2789 4.62242 44.3839C4.61042 44.4889 4.63442 44.5949 4.69342 44.6989C4.77942 44.8529 4.89842 44.9399 5.05042 44.9619C5.20242 44.9829 5.36342 44.9459 5.53342 44.8499C5.61142 44.8059 5.67942 44.7539 5.73842 44.6909C5.79642 44.6279 5.84042 44.5609 5.87042 44.4889C5.89942 44.4179 5.91342 44.3439 5.91042 44.2669C5.90842 44.1899 5.88642 44.1159 5.84642 44.0429C5.78242 43.9289 5.70242 43.8519 5.60542 43.8109C5.50842 43.7699 5.40742 43.7699 5.30242 43.8109L5.11842 43.4829C5.22742 43.4429 5.33442 43.4239 5.43842 43.4239L5.43742 43.4269Z" fill="#232329"/>
<path d="M2.08545 41.4721L4.68345 39.0791L4.96845 39.7781L4.38045 40.2881L4.84645 41.4331L5.62645 41.3961L5.90245 42.0751L2.36645 42.1631L2.08545 41.4721ZM3.94945 40.6681L2.98245 41.5111L2.98545 41.5211L4.27245 41.4621L3.94945 40.6681Z" fill="#232329"/>
<path d="M1.26907 39.1041L3.86107 38.3591L3.41507 36.8101L4.00307 36.6411L4.64907 38.8901L1.46907 39.8031L1.26807 39.1041H1.26907Z" fill="#232329"/>
<path d="M0.561523 36.2221L3.21452 35.7351L2.92352 34.1501L3.52552 34.0391L3.94752 36.3411L0.693523 36.9371L0.561523 36.2211V36.2221Z" fill="#232329"/>
<path d="M0.000292926 30.7393C-0.00270707 30.5913 0.0172929 30.4583 0.0622929 30.3373C0.107293 30.2163 0.170293 30.1133 0.251293 30.0263C0.333293 29.9403 0.427293 29.8723 0.536293 29.8243C0.645293 29.7763 0.762293 29.7513 0.889293 29.7493C1.08329 29.7443 1.25229 29.7813 1.39629 29.8593C1.54129 29.9373 1.65229 30.0673 1.73129 30.2513H1.74129C1.76429 30.1603 1.79929 30.0853 1.84929 30.0263C1.89829 29.9663 1.95729 29.9163 2.02629 29.8773C2.09529 29.8393 2.17129 29.8103 2.25429 29.7913C2.33729 29.7723 2.42029 29.7583 2.50329 29.7503C2.55629 29.7463 2.61729 29.7423 2.68829 29.7363C2.75929 29.7313 2.83129 29.7243 2.90529 29.7143C2.97929 29.7043 3.04929 29.6913 3.11529 29.6713C3.18129 29.6533 3.23729 29.6263 3.28229 29.5903L3.30129 30.3183C3.19729 30.3613 3.07329 30.3883 2.92729 30.4023C2.78229 30.4143 2.64429 30.4323 2.51229 30.4543C2.33929 30.4833 2.21429 30.5393 2.13629 30.6213C2.05729 30.7033 2.02129 30.8353 2.02529 31.0173L2.04429 31.7443L3.33629 31.7123L3.35529 32.4393L0.0482929 32.5233L0.000292926 30.7393ZM1.50329 30.9613C1.49929 30.7943 1.45829 30.6703 1.38229 30.5883C1.30629 30.5073 1.18529 30.4693 1.01829 30.4733C0.857293 30.4773 0.742293 30.5213 0.671293 30.6073C0.600293 30.6923 0.567293 30.8183 0.572293 30.9843L0.593293 31.7813L1.52429 31.7583L1.50329 30.9613Z" fill="#232329"/>
<path d="M0.07225 28.271L3.37525 28.46L3.33425 29.185L0.03125 28.998L0.07225 28.271Z" fill="#232329"/>
<path d="M3.64118 25.9581C3.68418 26.1241 3.69418 26.2861 3.67118 26.4451C3.63518 26.6961 3.55918 26.9141 3.44218 27.1021C3.32618 27.2901 3.18118 27.4421 3.00918 27.5571C2.83718 27.6721 2.64218 27.7521 2.42418 27.7961C2.20718 27.8391 1.98018 27.8441 1.74118 27.8101C1.49618 27.7741 1.27518 27.7041 1.07618 27.6001C0.877179 27.4971 0.710179 27.3661 0.573179 27.2051C0.437179 27.0451 0.339179 26.8581 0.280179 26.6461C0.220179 26.4321 0.209179 26.2001 0.245179 25.9491C0.270179 25.7821 0.318179 25.6231 0.392179 25.4721C0.465179 25.3231 0.560179 25.1911 0.676179 25.0771C0.793179 24.9651 0.928179 24.8781 1.08418 24.8161C1.24018 24.7541 1.41218 24.7271 1.60118 24.7361L1.50218 25.4231C1.31218 25.4391 1.16318 25.5031 1.05418 25.6111C0.944179 25.7211 0.877179 25.8621 0.852179 26.0361C0.829179 26.1981 0.840179 26.3401 0.886179 26.4621C0.933179 26.5841 1.00318 26.6881 1.09918 26.7731C1.19418 26.8591 1.30718 26.9281 1.43618 26.9791C1.56618 27.0311 1.70318 27.0671 1.84718 27.0871C1.98518 27.1081 2.12118 27.1101 2.25518 27.0981C2.39018 27.0841 2.51418 27.0501 2.62918 26.9951C2.74318 26.9391 2.83918 26.8591 2.91818 26.7551C2.99718 26.6521 3.04818 26.5191 3.07218 26.3561C3.10718 26.1171 3.07318 25.9251 2.97118 25.7771C2.86918 25.6301 2.70518 25.5291 2.47918 25.4741L2.37418 26.1991L1.83718 26.1211L2.03718 24.7461L3.80718 25.0021L3.74018 25.4601L3.35818 25.4791C3.50418 25.6311 3.59918 25.7901 3.64318 25.9561L3.64118 25.9581Z" fill="#232329"/>
<path d="M0.913191 22.9471L2.13719 23.2841L2.49319 21.9921L1.26919 21.6551L1.46219 20.9541L4.65219 21.8331L4.45919 22.5341L3.08319 22.1561L2.72719 23.4461L4.10319 23.8261L3.91019 24.5271L0.721191 23.6481L0.914191 22.9471H0.913191Z" fill="#232329"/>
<path d="M2.24134 20.5643L1.67334 20.3363L2.68334 17.8213L3.25134 18.0493L2.88134 18.9693L5.38334 19.9743L5.11234 20.6493L2.60934 19.6443L2.24034 20.5643H2.24134Z" fill="#232329"/>
<path d="M5.42631 17.9132C5.51331 17.9142 5.59331 17.8972 5.66731 17.8602C5.74031 17.8242 5.80831 17.7722 5.87131 17.7042C5.93431 17.6362 5.98731 17.5592 6.03131 17.4752C6.06231 17.4172 6.08931 17.3532 6.11531 17.2832C6.14031 17.2122 6.15431 17.1402 6.15731 17.0692C6.16031 16.9982 6.14831 16.9292 6.12131 16.8662C6.09431 16.8032 6.04331 16.7512 5.96931 16.7122C5.89031 16.6692 5.81331 16.6612 5.73731 16.6862C5.66131 16.7092 5.58531 16.7552 5.50931 16.8192C5.43331 16.8832 5.35531 16.9622 5.27531 17.0522C5.19531 17.1422 5.11331 17.2332 5.02631 17.3242C4.94131 17.4192 4.85131 17.5082 4.75731 17.5902C4.66231 17.6742 4.56231 17.7392 4.45631 17.7872C4.35031 17.8362 4.23731 17.8612 4.11531 17.8612C3.99431 17.8612 3.86731 17.8272 3.73331 17.7552C3.58331 17.6752 3.47031 17.5742 3.39331 17.4522C3.31631 17.3302 3.26931 17.1972 3.25031 17.0542C3.23131 16.9102 3.23931 16.7652 3.27331 16.6142C3.30731 16.4652 3.35931 16.3252 3.42831 16.1932C3.50931 16.0412 3.60431 15.9022 3.71331 15.7802C3.82231 15.6582 3.94331 15.5622 4.07731 15.4932C4.21131 15.4242 4.35531 15.3892 4.50831 15.3872C4.66131 15.3862 4.82231 15.4312 4.99131 15.5202L4.66131 16.1432C4.57031 16.1022 4.48931 16.0832 4.41531 16.0832C4.34131 16.0842 4.27431 16.1022 4.21331 16.1362C4.15231 16.1702 4.09931 16.2182 4.04931 16.2772C4.00031 16.3372 3.95431 16.4062 3.91331 16.4852C3.88631 16.5372 3.86431 16.5922 3.84731 16.6502C3.83031 16.7082 3.82431 16.7652 3.82931 16.8212C3.83431 16.8792 3.85031 16.9312 3.87631 16.9802C3.90231 17.0282 3.94731 17.0692 4.01031 17.1032C4.06831 17.1332 4.12031 17.1472 4.16631 17.1442C4.21331 17.1402 4.26931 17.1152 4.33331 17.0662C4.39731 17.0182 4.47431 16.9452 4.56431 16.8482C4.65531 16.7512 4.77131 16.6232 4.91431 16.4642C4.95431 16.4162 5.01331 16.3502 5.09431 16.2692C5.17431 16.1872 5.27131 16.1152 5.38431 16.0522C5.49831 15.9902 5.62531 15.9522 5.76731 15.9382C5.90931 15.9242 6.06231 15.9602 6.22631 16.0462C6.36031 16.1172 6.47031 16.2092 6.55731 16.3222C6.64431 16.4352 6.70231 16.5652 6.73131 16.7102C6.76031 16.8572 6.75831 17.0192 6.72431 17.1942C6.69031 17.3712 6.62031 17.5592 6.51531 17.7582C6.43031 17.9182 6.32731 18.0652 6.20731 18.1952C6.08831 18.3252 5.95531 18.4272 5.80931 18.4972C5.66331 18.5682 5.50631 18.6042 5.33931 18.6032C5.17231 18.6022 4.99931 18.5522 4.82031 18.4552L5.15031 17.8322C5.24931 17.8842 5.34131 17.9102 5.42831 17.9102L5.42631 17.9132Z" fill="#232329"/>
<path d="M6.37915 11.7619C6.46815 11.6439 6.56815 11.5509 6.67815 11.4849C6.78815 11.4189 6.90215 11.3779 7.01915 11.3599C7.13615 11.3419 7.25315 11.3489 7.36715 11.3789C7.48115 11.4089 7.58915 11.4629 7.69115 11.5379C7.84615 11.6559 7.95615 11.7899 8.02015 11.9409C8.08415 12.0919 8.09015 12.2629 8.03715 12.4549L8.04515 12.4619C8.11915 12.4039 8.19415 12.3689 8.27015 12.3519C8.34515 12.3359 8.42315 12.3339 8.50015 12.3469C8.57815 12.3589 8.65515 12.3839 8.73215 12.4199C8.80915 12.4569 8.88315 12.4979 8.95315 12.5429C8.99715 12.5719 9.04815 12.6069 9.10715 12.6469C9.16615 12.6879 9.22715 12.7269 9.29115 12.7649C9.35515 12.8029 9.41915 12.8359 9.48215 12.8619C9.54515 12.8889 9.60515 12.9029 9.66315 12.9029L9.22515 13.4839C9.11715 13.4519 9.00215 13.3959 8.88115 13.3169C8.76015 13.2359 8.64015 13.1649 8.52315 13.0989C8.36915 13.0139 8.23715 12.9799 8.12515 12.9959C8.01315 13.0109 7.90115 13.0919 7.79115 13.2369L7.35315 13.8169L8.38515 14.5959L7.94715 15.1769L5.30615 13.1829L6.38115 11.7599L6.37915 11.7619ZM7.41715 12.8709C7.51815 12.7369 7.56415 12.6149 7.55515 12.5039C7.54615 12.3929 7.47515 12.2869 7.34215 12.1869C7.21415 12.0899 7.09615 12.0529 6.98815 12.0759C6.88015 12.0979 6.77515 12.1759 6.67515 12.3089L6.19515 12.9449L6.93815 13.5059L7.41815 12.8709H7.41715Z" fill="#232329"/>
<path d="M9.24743 8.52832L9.69143 8.94932L8.48843 10.2153L9.00243 10.7053L10.1074 9.54232L10.5174 9.93132L9.41243 11.0943L10.0004 11.6523L11.2294 10.3593L11.6724 10.7813L9.94243 12.6013L7.54443 10.3223L9.24843 8.52832H9.24743Z" fill="#232329"/>
<path d="M11.8725 9.52324C11.9525 9.55624 12.0345 9.57024 12.1155 9.56324C12.1975 9.55824 12.2795 9.53424 12.3635 9.49324C12.4465 9.45324 12.5245 9.40224 12.5975 9.33924C12.6465 9.29824 12.6965 9.24824 12.7455 9.19224C12.7945 9.13624 12.8345 9.07524 12.8645 9.01024C12.8945 8.94524 12.9075 8.87724 12.9055 8.80724C12.9035 8.73824 12.8765 8.67324 12.8215 8.60824C12.7635 8.53924 12.6945 8.50224 12.6155 8.49824C12.5355 8.49324 12.4485 8.50524 12.3545 8.53624C12.2605 8.56724 12.1585 8.61124 12.0515 8.66624C11.9435 8.72124 11.8335 8.77424 11.7185 8.82524C11.6045 8.88324 11.4885 8.93124 11.3695 8.97324C11.2505 9.01424 11.1335 9.03924 11.0175 9.04424C10.9015 9.04924 10.7865 9.03024 10.6745 8.98624C10.5615 8.94124 10.4565 8.86124 10.3585 8.74624C10.2485 8.61624 10.1805 8.48024 10.1555 8.33724C10.1295 8.19624 10.1345 8.05524 10.1705 7.91524C10.2065 7.77524 10.2675 7.64224 10.3545 7.51624C10.4415 7.39024 10.5415 7.27924 10.6545 7.18324C10.7865 7.07124 10.9255 6.97724 11.0725 6.90524C11.2185 6.83124 11.3665 6.78724 11.5175 6.77324C11.6675 6.75924 11.8135 6.78024 11.9555 6.83624C12.0985 6.89124 12.2315 6.99224 12.3555 7.13824L11.8175 7.59324C11.7485 7.52224 11.6805 7.47424 11.6115 7.44624C11.5425 7.42024 11.4735 7.41224 11.4055 7.42124C11.3365 7.43124 11.2685 7.45424 11.2005 7.49124C11.1325 7.52824 11.0645 7.57624 10.9965 7.63424C10.9515 7.67224 10.9115 7.71524 10.8745 7.76324C10.8375 7.81024 10.8105 7.86024 10.7945 7.91524C10.7785 7.97024 10.7735 8.02524 10.7795 8.08024C10.7865 8.13624 10.8125 8.19124 10.8585 8.24524C10.9005 8.29424 10.9435 8.32724 10.9885 8.34124C11.0335 8.35624 11.0945 8.35324 11.1715 8.33124C11.2485 8.31024 11.3475 8.27124 11.4665 8.21424C11.5865 8.15624 11.7425 8.08124 11.9345 7.98824C11.9895 7.95824 12.0695 7.91924 12.1735 7.87324C12.2785 7.82624 12.3945 7.79624 12.5235 7.78024C12.6515 7.76524 12.7845 7.77724 12.9215 7.81624C13.0585 7.85624 13.1865 7.94824 13.3065 8.08924C13.4045 8.20424 13.4725 8.33024 13.5125 8.46724C13.5515 8.60324 13.5575 8.74524 13.5295 8.89224C13.5015 9.03924 13.4405 9.18824 13.3435 9.33924C13.2465 9.49024 13.1115 9.63824 12.9405 9.78324C12.8015 9.90124 12.6515 9.99824 12.4925 10.0752C12.3335 10.1522 12.1715 10.1972 12.0095 10.2082C11.8475 10.2202 11.6885 10.1942 11.5345 10.1312C11.3795 10.0682 11.2375 9.95824 11.1085 9.80124L11.6455 9.34624C11.7175 9.43024 11.7935 9.48924 11.8745 9.52224L11.8725 9.52324Z" fill="#232329"/>
<path d="M14.4215 4.50488L14.7645 5.01088L13.3185 5.99088L13.7165 6.57788L15.0435 5.67788L15.3605 6.14588L14.0335 7.04588L14.4885 7.71688L15.9655 6.71588L16.3085 7.22288L14.2295 8.63088L12.3735 5.89288L14.4215 4.50488Z" fill="#232329"/>
<path d="M16.6825 3.26804C16.8135 3.19904 16.9435 3.15804 17.0705 3.14604C17.1985 3.13204 17.3185 3.14304 17.4325 3.17804C17.5465 3.21404 17.6495 3.26904 17.7395 3.34504C17.8305 3.42004 17.9045 3.51504 17.9635 3.62704C18.0535 3.80004 18.0955 3.96704 18.0885 4.13204C18.0815 4.29504 18.0135 4.45304 17.8835 4.60504L17.8875 4.61304C17.9785 4.59404 18.0615 4.59204 18.1375 4.61004C18.2125 4.62804 18.2835 4.65904 18.3485 4.70304C18.4125 4.74804 18.4725 4.80304 18.5265 4.86904C18.5795 4.93504 18.6285 5.00304 18.6735 5.07504L18.7675 5.23404C18.8035 5.29604 18.8415 5.35704 18.8825 5.42004C18.9245 5.48204 18.9675 5.53804 19.0135 5.58904C19.0595 5.64104 19.1085 5.67804 19.1595 5.70404L18.5155 6.04104C18.4315 5.96704 18.3515 5.86704 18.2755 5.74204C18.2005 5.61904 18.1235 5.50204 18.0455 5.39204C17.9435 5.25104 17.8385 5.16304 17.7305 5.12904C17.6225 5.09504 17.4875 5.12104 17.3255 5.20404L16.6815 5.54304L17.2815 6.68804L16.6375 7.02504L15.1035 4.09304L16.6835 3.26604L16.6825 3.26804ZM17.1465 4.71504C17.2945 4.63704 17.3875 4.54604 17.4275 4.44204C17.4665 4.33804 17.4485 4.21204 17.3705 4.06404C17.2955 3.92104 17.2045 3.83804 17.0965 3.81204C16.9895 3.78704 16.8615 3.81204 16.7135 3.89004L16.0075 4.26004L16.4395 5.08404L17.1455 4.71504H17.1465Z" fill="#232329"/>
<path d="M20.1341 5.32492L17.9331 2.63292L18.6281 2.36092L20.1611 4.25992L20.1691 4.25592L20.0171 1.81792L20.7161 1.54492L20.8971 5.02692L20.1331 5.32492H20.1341Z" fill="#232329"/>
<path d="M23.6243 0.743164L23.7843 1.33316L22.0983 1.79216L22.2843 2.47616L23.8313 2.05416L23.9803 2.60016L22.4333 3.02116L22.6463 3.80416L24.3683 3.33516L24.5283 3.92616L22.1053 4.58616L21.2363 1.39416L23.6243 0.744164V0.743164Z" fill="#232329"/>
<path d="M25.8295 0.35499C26.0395 0.32299 26.2415 0.32799 26.4335 0.36699C26.6255 0.40599 26.7985 0.48399 26.9515 0.59699C27.1045 0.70999 27.2335 0.86299 27.3385 1.05399C27.4445 1.24499 27.5175 1.47599 27.5585 1.74799C27.5945 1.98699 27.5965 2.20999 27.5665 2.42099C27.5355 2.63199 27.4695 2.81999 27.3675 2.98499C27.2665 3.15099 27.1295 3.28899 26.9575 3.40199C26.7855 3.51299 26.5745 3.58799 26.3235 3.62699L24.9125 3.83999L24.4185 0.56999L25.8295 0.35599V0.35499ZM26.1815 3.02899C26.2855 3.01399 26.3835 2.98099 26.4765 2.93299C26.5695 2.88499 26.6475 2.81499 26.7125 2.72599C26.7775 2.63699 26.8225 2.52599 26.8505 2.39399C26.8775 2.26199 26.8775 2.10599 26.8505 1.92499C26.8255 1.75999 26.7865 1.61399 26.7345 1.48599C26.6825 1.35699 26.6125 1.25199 26.5245 1.16799C26.4375 1.08399 26.3295 1.02699 26.2005 0.99499C26.0725 0.96199 25.9195 0.95899 25.7425 0.98699L25.2285 1.06399L25.5405 3.12599L26.1815 3.02899Z" fill="#232329"/>
</svg>
