<svg width="51" height="51" viewBox="0 0 51 51" fill="none" xmlns="http://www.w3.org/2000/svg">
<path d="M42.8495 7.91302C34.1165 -0.819975 20.4205 -1.63798 10.7575 5.45702C9.75747 6.19102 8.80147 7.01003 7.89747 7.91302C6.39147 9.41903 5.12147 11.072 4.08647 12.826C-0.675528 20.897 -0.458528 31.114 4.73547 38.99C5.05547 39.475 5.40047 39.947 5.75847 40.413C6.41047 41.264 7.11947 42.085 7.89747 42.863C8.67547 43.641 9.49647 44.35 10.3475 45.002C10.8135 45.359 11.2855 45.705 11.7705 46.025C19.6465 51.219 29.8635 51.436 37.9345 46.674C39.6895 45.639 41.3425 44.369 42.8475 42.863C43.7505 41.96 44.5695 41.003 45.3035 40.003C52.3985 30.34 51.5805 16.644 42.8475 7.91202L42.8495 7.91302ZM48.7065 26.303C48.6945 26.623 48.6625 26.942 48.6375 27.262C48.6145 27.552 48.5985 27.842 48.5645 28.132C48.5255 28.463 48.4675 28.791 48.4145 29.12C48.3705 29.395 48.3335 29.671 48.2795 29.945C48.2125 30.285 48.1255 30.62 48.0435 30.957C47.9805 31.217 47.9245 31.478 47.8515 31.736C47.7545 32.081 47.6375 32.421 47.5245 32.763C47.4435 33.007 47.3705 33.254 47.2815 33.496C47.1535 33.843 47.0055 34.185 46.8605 34.527C46.7635 34.757 46.6735 34.989 46.5685 35.216C46.4085 35.562 46.2275 35.901 46.0495 36.24C45.9365 36.455 45.8315 36.673 45.7125 36.886C45.6865 36.932 45.6555 36.976 45.6285 37.022C46.1305 33.596 45.3425 29.522 43.4245 25.388C45.3435 21.254 46.1305 17.18 45.6285 13.754C45.6545 13.8 45.6855 13.844 45.7115 13.89C45.8325 14.103 45.9375 14.323 46.0505 14.539C46.2275 14.877 46.4075 15.215 46.5675 15.56C46.6735 15.789 46.7635 16.023 46.8615 16.254C47.0055 16.594 47.1535 16.934 47.2805 17.279C47.3705 17.524 47.4455 17.773 47.5265 18.021C47.6385 18.359 47.7545 18.697 47.8505 19.039C47.9235 19.3 47.9805 19.564 48.0445 19.826C48.1255 20.16 48.2115 20.493 48.2785 20.83C48.3335 21.107 48.3705 21.386 48.4155 21.664C48.4675 21.99 48.5255 22.315 48.5635 22.643C48.5975 22.936 48.6145 23.23 48.6375 23.524C48.6625 23.839 48.6935 24.154 48.7055 24.47C48.7175 24.777 48.7115 25.085 48.7115 25.392C48.7115 25.695 48.7175 25.998 48.7055 26.301L48.7065 26.303ZM36.8715 45.726C36.6595 45.846 36.4405 45.951 36.2255 46.064C35.8865 46.242 35.5475 46.423 35.2015 46.583C34.9745 46.688 34.7415 46.778 34.5115 46.875C34.1695 47.02 33.8295 47.168 33.4825 47.296C33.2395 47.386 32.9925 47.459 32.7465 47.54C32.4065 47.653 32.0665 47.769 31.7225 47.866C31.4645 47.938 31.2025 47.994 30.9425 48.058C30.6055 48.14 30.2695 48.227 29.9295 48.294C29.6565 48.348 29.3815 48.385 29.1075 48.429C28.7775 48.482 28.4485 48.54 28.1165 48.579C27.8275 48.613 27.5365 48.629 27.2465 48.652C26.9275 48.678 26.6085 48.709 26.2895 48.721C25.9855 48.733 25.6815 48.727 25.3785 48.727C25.0715 48.727 24.7645 48.733 24.4575 48.721C24.1405 48.709 23.8255 48.678 23.5095 48.653C23.2165 48.63 22.9225 48.613 22.6305 48.579C22.3025 48.54 21.9765 48.483 21.6505 48.431C21.3725 48.386 21.0935 48.349 20.8165 48.294C20.4795 48.227 20.1455 48.141 19.8115 48.06C19.5495 47.996 19.2855 47.94 19.0255 47.867C18.6825 47.771 18.3455 47.655 18.0065 47.543C17.7595 47.461 17.5105 47.387 17.2655 47.297C16.9205 47.17 16.5815 47.023 16.2425 46.879C16.0105 46.781 15.7755 46.69 15.5465 46.584C15.2025 46.425 14.8655 46.245 14.5275 46.068C14.3105 45.954 14.0905 45.849 13.8765 45.728C13.8305 45.702 13.7865 45.671 13.7405 45.645C17.1665 46.147 21.2405 45.359 25.3745 43.441C29.5085 45.36 33.5825 46.147 37.0085 45.645C36.9625 45.671 36.9185 45.703 36.8725 45.729L36.8715 45.726ZM5.03647 36.886C4.91647 36.673 4.81147 36.454 4.69847 36.239C4.52047 35.9 4.34047 35.562 4.18047 35.216C4.07547 34.989 3.98547 34.757 3.88847 34.527C3.74347 34.185 3.59547 33.844 3.46747 33.496C3.37847 33.254 3.30447 33.007 3.22447 32.763C3.11147 32.422 2.99447 32.081 2.89747 31.736C2.82547 31.478 2.76947 31.217 2.70547 30.958C2.62347 30.621 2.53647 30.284 2.46947 29.944C2.41547 29.671 2.37847 29.396 2.33447 29.121C2.28147 28.791 2.22347 28.462 2.18447 28.131C2.15047 27.842 2.13447 27.551 2.11147 27.261C2.08647 26.942 2.05447 26.624 2.04247 26.304C2.03047 26 2.03647 25.695 2.03647 25.39C2.03647 25.084 2.03047 24.778 2.04247 24.472C2.05447 24.155 2.08547 23.839 2.11047 23.522C2.13347 23.229 2.15047 22.936 2.18447 22.644C2.22347 22.316 2.28047 21.989 2.33347 21.663C2.37747 21.386 2.41547 21.107 2.46947 20.831C2.53647 20.493 2.62247 20.159 2.70447 19.824C2.76847 19.562 2.82447 19.3 2.89747 19.04C2.99447 18.696 3.11047 18.357 3.22347 18.017C3.30447 17.771 3.37847 17.523 3.46847 17.28C3.59647 16.933 3.74447 16.593 3.88947 16.251C3.98747 16.021 4.07647 15.788 4.18247 15.56C4.34247 15.214 4.52247 14.876 4.70047 14.537C4.81347 14.321 4.91847 14.103 5.03847 13.89C5.06447 13.844 5.09547 13.8 5.12147 13.754C4.61947 17.18 5.40747 21.254 7.32547 25.388C5.40647 29.522 4.61947 33.596 5.12147 37.022C5.09547 36.976 5.06447 36.932 5.03847 36.886H5.03647ZM9.34247 8.40802C12.6685 5.59802 18.1115 5.66102 23.8465 8.09602C20.9225 9.64702 18.0055 11.751 15.3025 14.368L9.34247 8.40802ZM13.8765 5.05002C14.0895 4.93003 14.3075 4.82502 14.5235 4.71202C14.8625 4.53402 15.2005 4.35403 15.5465 4.19403C15.7745 4.08903 16.0075 3.99903 16.2385 3.90103C16.5795 3.75703 16.9195 3.60903 17.2655 3.48102C17.5095 3.39103 17.7585 3.31703 18.0055 3.23503C18.3445 3.12303 18.6825 3.00703 19.0255 2.91003C19.2855 2.83703 19.5485 2.78102 19.8105 2.71703C20.1455 2.63503 20.4785 2.54903 20.8165 2.48303C21.0925 2.42803 21.3715 2.39103 21.6495 2.34603C21.9765 2.29403 22.3025 2.23602 22.6305 2.19702C22.9225 2.16302 23.2165 2.14603 23.5095 2.12303C23.8255 2.09803 24.1405 2.06703 24.4575 2.05503C24.7645 2.04303 25.0725 2.04903 25.3795 2.04903C25.6825 2.04903 25.9855 2.04303 26.2885 2.05503C26.6095 2.06703 26.9285 2.09903 27.2495 2.12402C27.5385 2.14702 27.8285 2.16302 28.1165 2.19702C28.4485 2.23602 28.7775 2.29403 29.1085 2.34703C29.3825 2.39103 29.6575 2.42803 29.9305 2.48203C30.2715 2.54903 30.6085 2.63603 30.9465 2.71903C31.2055 2.78203 31.4655 2.83803 31.7225 2.91003C32.0685 3.00703 32.4095 3.12403 32.7515 3.23703C32.9955 3.31803 33.2405 3.39103 33.4825 3.48003C33.8315 3.60903 34.1735 3.75703 34.5175 3.90302C34.7455 4.00002 34.9765 4.08902 35.2025 4.19302C35.5505 4.35402 35.8895 4.53502 36.2305 4.71402C36.4445 4.82602 36.6615 4.93002 36.8725 5.04902C36.9185 5.07502 36.9625 5.10603 37.0095 5.13303C33.5835 4.63103 29.5095 5.41902 25.3755 7.33702C21.2415 5.41802 17.1675 4.63103 13.7415 5.13303C13.7875 5.10703 13.8315 5.07602 13.8775 5.04902L13.8765 5.05002ZM42.6665 23.861C41.1155 20.937 39.0115 18.02 36.3945 15.316L42.3545 9.35602C45.1645 12.682 45.1005 18.125 42.6665 23.86V23.861ZM8.78747 25.388C10.3165 22.292 12.5035 19.158 15.3025 16.265L24.4255 25.388L15.3025 34.511C12.5035 31.618 10.3175 28.484 8.78847 25.388H8.78747ZM14.3535 35.459L8.39347 41.419C5.58347 38.093 5.64647 32.65 8.08147 26.915C9.63247 29.839 11.7365 32.756 14.3535 35.46V35.459ZM35.4455 14.367C32.7415 11.75 29.8245 9.64602 26.9005 8.09503C32.6365 5.66103 38.0785 5.59703 41.4045 8.40703L35.4445 14.367H35.4455ZM34.4965 15.316L25.3735 24.439L16.2505 15.316C19.1435 12.517 22.2775 10.331 25.3735 8.80202C28.4695 10.331 31.6035 12.518 34.4965 15.316ZM15.3025 36.408C18.0065 39.025 20.9235 41.129 23.8465 42.68C18.1105 45.114 12.6685 45.178 9.34247 42.368L15.3025 36.408ZM16.2515 35.459L25.3745 26.336L34.4975 35.459C31.6045 38.258 28.4705 40.444 25.3745 41.974C22.2785 40.445 19.1445 38.258 16.2515 35.46V35.459ZM26.3235 25.387L35.4465 16.264C38.2455 19.157 40.4315 22.291 41.9605 25.387C40.4315 28.483 38.2445 31.617 35.4465 34.51L26.3235 25.387ZM8.08147 23.86C5.64747 18.124 5.58347 12.682 8.39447 9.35602L14.3545 15.316C11.7375 18.02 9.63347 20.937 8.08247 23.861L8.08147 23.86ZM26.9015 42.68C29.8255 41.129 32.7425 39.025 35.4465 36.408L41.4065 42.368C38.0805 45.178 32.6375 45.115 26.9025 42.681L26.9015 42.68ZM36.3955 35.459C39.0125 32.755 41.1165 29.838 42.6675 26.914C45.1015 32.65 45.1655 38.092 42.3555 41.418L36.3955 35.458V35.459Z" fill="#232329"/>
</svg>
