<svg width="160" height="160" viewBox="0 0 160 160" fill="none"
  xmlns="http://www.w3.org/2000/svg">
  <g clipPath="url(#clip0_2618_8238)">
    <path fillRule="evenodd" clipRule="evenodd" d="M81.9479 18.0283C83.3169 18.0283 84.4268 19.1381 84.4268 20.5072V44.4747C84.4268 47.1993 88.1835 47.9295 89.2042 45.4033L98.1821 23.181C98.6952 21.9116 100.14 21.2984 101.41 21.8112L105.021 23.2705C106.29 23.7833 106.904 25.2281 106.391 26.4975L96.8193 50.1885C95.8073 52.6923 98.9604 54.7794 100.87 52.8699L118.938 34.8022C119.906 33.8341 121.475 33.8341 122.443 34.8022L125.198 37.5566C126.166 38.5247 126.166 40.0942 125.198 41.0623L108.973 57.2871C107.037 59.224 109.209 62.4081 111.719 61.3114L132.744 52.125C133.999 51.5768 135.461 52.1495 136.008 53.404L137.568 56.9736C138.116 58.2281 137.543 59.6894 136.289 60.2376L112.061 70.8232C109.599 71.8986 110.367 75.5736 113.053 75.5736H139.493C140.862 75.5736 141.972 76.6834 141.972 78.0524V81.9479C141.972 83.3169 140.862 84.4268 139.493 84.4268H113.053C110.367 84.4268 109.6 88.1017 112.061 89.1769L136.289 99.763C137.543 100.311 138.116 101.772 137.568 103.026L136.008 106.596C135.461 107.851 133.999 108.424 132.744 107.875L111.719 98.689C109.209 97.5921 107.037 100.776 108.973 102.713L125.198 118.938C126.166 119.906 126.166 121.475 125.198 122.443L122.443 125.198C121.475 126.166 119.906 126.166 118.938 125.198L100.87 107.13C98.9604 105.221 95.8073 107.308 96.8193 109.812L106.391 133.503C106.904 134.772 106.29 136.217 105.021 136.73L101.41 138.189C100.14 138.702 98.6952 138.089 98.1821 136.819L89.2042 114.597C88.1835 112.071 84.4268 112.801 84.4268 115.526V139.493C84.4268 140.862 83.3169 141.972 81.9479 141.972H78.0524C76.6834 141.972 75.5736 140.862 75.5736 139.493V115.526C75.5736 112.801 71.817 112.071 70.7963 114.597L61.8179 136.819C61.305 138.089 59.8603 138.702 58.5909 138.189L54.9792 136.73C53.7098 136.217 53.0966 134.772 53.6094 133.503L63.1813 109.812C64.1929 107.308 61.0396 105.221 59.1301 107.13L41.0623 125.198C40.0943 126.166 38.5247 126.166 37.5567 125.198L34.8022 122.443C33.8342 121.475 33.8342 119.906 34.8022 118.938L51.027 102.713C52.9639 100.776 50.7918 97.5921 48.2817 98.689L27.2556 107.875C26.0011 108.424 24.5398 107.851 23.9917 106.596L22.4321 103.026C21.884 101.772 22.4566 100.311 23.7112 99.763L47.9395 89.1769C50.4008 88.1017 49.633 84.4268 46.947 84.4268H20.5072C19.1381 84.4268 18.0283 83.3169 18.0283 81.9479V78.0524C18.0283 76.6834 19.1381 75.5736 20.5072 75.5736H46.9471C49.6331 75.5736 50.4009 71.8986 47.9396 70.8232L23.7111 60.2376C22.4566 59.6894 21.8839 58.2281 22.4321 56.9736L23.9916 53.404C24.5398 52.1495 26.0011 51.5768 27.2556 52.125L48.2817 61.3114C50.7918 62.4081 52.9639 59.224 51.027 57.2871L34.8022 41.0623C33.8342 40.0943 33.8342 38.5247 34.8022 37.5566L37.5566 34.8022C38.5247 33.8342 40.0943 33.8342 41.0623 34.8022L59.1301 52.87C61.0396 54.7795 64.1929 52.6923 63.1813 50.1885L53.6094 26.4975C53.0966 25.2281 53.7099 23.7833 54.9792 23.2705L58.591 21.8112C59.8603 21.2984 61.3051 21.9116 61.8179 23.181L70.7963 45.4033C71.817 47.9295 75.5736 47.1993 75.5736 44.4747V20.5072C75.5736 19.1381 76.6834 18.0283 78.0524 18.0283H81.9479ZM80.0002 106.559C94.6683 106.559 106.559 94.6683 106.559 80.0002C106.559 65.3319 94.6683 53.4408 80.0002 53.4408C65.3319 53.4408 53.4408 65.3319 53.4408 80.0002C53.4408 94.6683 65.3319 106.559 80.0002 106.559Z" fill="#1D1D22" fill-opacity="0.08"/>
  </g>
  <defs>
    <clipPath id="clip0_2618_8238">
      <rect width="123.944" height="123.944" fill="white" transform="translate(18.0283 18.0283)"/>
    </clipPath>
  </defs>
</svg>
