<svg width="24" height="12" viewBox="0 0 24 12" fill="none"
  xmlns="http://www.w3.org/2000/svg">
  <path fillRule="evenodd" clipRule="evenodd" d="M6.04734 2.5C5.5835 2.5 5.16667 2.5 5.16667 1.73953V0.5L3 0.5V3.5H0V5.5H4L3 6V6.5H1V8.5H5L3.73736 9.13132C4.61702 10.559 6.19707 11.5 8 11.5C9.6356 11.5 11.0878 10.7147 12 9.50048C12.9122 10.7147 14.3644 11.5 16 11.5C17.8029 11.5 19.383 10.559 20.2626 9.13132L19 8.5H23V6.5H21V6L20 5.5H24V3.5H21V0.5H18.8333V1.73953C18.8333 2.5 18.3333 2.5 17.9527 2.5H6.04734ZM11 5.5L10 6C10 7.10457 9.10457 8 8 8C6.89543 8 6 7.10457 6 6L5 5.5H11ZM19 5.5L18 6C18 7.10457 17.1046 8 16 8C14.8954 8 14 7.10457 14 6L13 5.5H19Z" fill="#E1E2E2"/>
</svg>
