<svg width="24" height="24" viewBox="0 0 24 24" fill="none"
  xmlns="http://www.w3.org/2000/svg">
  <path d="M15 12C15 10.8896 14.3967 9.92006 13.5 9.40135M15 12C15 13.1104 14.3967 14.0799 13.5 14.5987M15 12H22C22 15.7014 19.989 18.9331 17 20.6622L13.5 14.5987M9 12C9 10.8896 9.6033 9.92006 10.5 9.40135M9 12C9 13.1104 9.6033 14.0799 10.5 14.5987M9 12H2C2 15.7014 4.01099 18.9331 7 20.6622L10.5 14.5987M13.5 9.40135C13.0587 9.14609 12.5464 9 12 9C11.4536 9 10.9413 9.14609 10.5 9.40135M13.5 9.40135L17 3.33782C15.5291 2.48697 13.8214 2 12 2C10.1786 2 8.47087 2.48697 7 3.33782L10.5 9.40135M10.5 14.5987C10.9413 14.8539 11.4536 15 12 15C12.5464 15 13.0587 14.8539 13.5 14.5987" stroke="#F42728" strokeWidth="1.2"/>
</svg>
