<svg width="678" height="100" viewBox="0 0 678 100" fill="none" xmlns="http://www.w3.org/2000/svg">
<g filter="url(#filter0_b_5837_766)">
<path d="M0 -22H678V-21H0V-22Z" fill="#E1E2E2" fillOpacity="0.04"/>
<path d="M0 -20H678V-19H0V-20Z" fill="#E1E2E2" fillOpacity="0.04"/>
<path d="M0 -18H678V-17H0V-18Z" fill="#E1E2E2" fillOpacity="0.04"/>
<path d="M0 -16H678V-15H0V-16Z" fill="#E1E2E2" fillOpacity="0.04"/>
<path d="M0 -14H678V-13H0V-14Z" fill="#E1E2E2" fillOpacity="0.04"/>
<path d="M0 -12H678V-11H0V-12Z" fill="#E1E2E2" fillOpacity="0.04"/>
<path d="M0 -10H678V-9H0V-10Z" fill="#E1E2E2" fillOpacity="0.04"/>
<path d="M0 -8H678V-7H0V-8Z" fill="#E1E2E2" fillOpacity="0.04"/>
<path d="M0 -6H678V-5H0V-6Z" fill="#E1E2E2" fillOpacity="0.04"/>
<path d="M0 -4H678V-3H0V-4Z" fill="#E1E2E2" fillOpacity="0.04"/>
<path d="M0 -2H678V-1H0V-2Z" fill="#E1E2E2" fillOpacity="0.04"/>
<path d="M0 0H678V1H0V0Z" fill="#E1E2E2" fillOpacity="0.04"/>
<path d="M0 2H678V3H0V2Z" fill="#E1E2E2" fillOpacity="0.04"/>
<path d="M0 4H678V5H0V4Z" fill="#E1E2E2" fillOpacity="0.04"/>
<path d="M0 6H678V7H0V6Z" fill="#E1E2E2" fillOpacity="0.04"/>
<path d="M0 8H678V9H0V8Z" fill="#E1E2E2" fillOpacity="0.04"/>
<path d="M0 10H678V11H0V10Z" fill="#E1E2E2" fillOpacity="0.04"/>
<path d="M0 12H678V13H0V12Z" fill="#E1E2E2" fillOpacity="0.04"/>
<path d="M0 14H678V15H0V14Z" fill="#E1E2E2" fillOpacity="0.04"/>
<path d="M0 16H678V17H0V16Z" fill="#E1E2E2" fillOpacity="0.04"/>
<path d="M0 18H678V19H0V18Z" fill="#E1E2E2" fillOpacity="0.04"/>
<path d="M0 20H678V21H0V20Z" fill="#E1E2E2" fillOpacity="0.04"/>
<path d="M0 22H678V23H0V22Z" fill="#E1E2E2" fillOpacity="0.04"/>
<path d="M0 24H678V25H0V24Z" fill="#E1E2E2" fillOpacity="0.04"/>
<path d="M0 26H678V27H0V26Z" fill="#E1E2E2" fillOpacity="0.04"/>
<path d="M0 28H678V29H0V28Z" fill="#E1E2E2" fillOpacity="0.04"/>
<path d="M0 30H678V31H0V30Z" fill="#E1E2E2" fillOpacity="0.04"/>
<path d="M0 32H678V33H0V32Z" fill="#E1E2E2" fillOpacity="0.04"/>
<path d="M0 34H678V35H0V34Z" fill="#E1E2E2" fillOpacity="0.04"/>
<path d="M0 36H678V37H0V36Z" fill="#E1E2E2" fillOpacity="0.04"/>
<path d="M0 38H678V39H0V38Z" fill="#E1E2E2" fillOpacity="0.04"/>
<path d="M0 40H678V41H0V40Z" fill="#E1E2E2" fillOpacity="0.04"/>
<path d="M0 42H678V43H0V42Z" fill="#E1E2E2" fillOpacity="0.04"/>
<path d="M0 44H678V45H0V44Z" fill="#E1E2E2" fillOpacity="0.04"/>
<path d="M0 46H678V47H0V46Z" fill="#E1E2E2" fillOpacity="0.04"/>
<path d="M0 48H678V49H0V48Z" fill="#E1E2E2" fillOpacity="0.04"/>
<path d="M0 50H678V51H0V50Z" fill="#E1E2E2" fillOpacity="0.04"/>
<path d="M0 52H678V53H0V52Z" fill="#E1E2E2" fillOpacity="0.04"/>
<path d="M0 54H678V55H0V54Z" fill="#E1E2E2" fillOpacity="0.04"/>
<path d="M0 56H678V57H0V56Z" fill="#E1E2E2" fillOpacity="0.04"/>
<path d="M0 58H678V59H0V58Z" fill="#E1E2E2" fillOpacity="0.04"/>
<path d="M0 60H678V61H0V60Z" fill="#E1E2E2" fillOpacity="0.04"/>
<path d="M0 62H678V63H0V62Z" fill="#E1E2E2" fillOpacity="0.04"/>
<path d="M0 64H678V65H0V64Z" fill="#E1E2E2" fillOpacity="0.04"/>
<path d="M0 66H678V67H0V66Z" fill="#E1E2E2" fillOpacity="0.04"/>
<path d="M0 68H678V69H0V68Z" fill="#E1E2E2" fillOpacity="0.04"/>
<path d="M0 70H678V71H0V70Z" fill="#E1E2E2" fillOpacity="0.04"/>
<path d="M0 72H678V73H0V72Z" fill="#E1E2E2" fillOpacity="0.04"/>
<path d="M0 74H678V75H0V74Z" fill="#E1E2E2" fillOpacity="0.04"/>
<path d="M0 76H678V77H0V76Z" fill="#E1E2E2" fillOpacity="0.04"/>
<path d="M0 78H678V79H0V78Z" fill="#E1E2E2" fillOpacity="0.04"/>
<path d="M0 80H678V81H0V80Z" fill="#E1E2E2" fillOpacity="0.04"/>
<path d="M0 82H678V83H0V82Z" fill="#E1E2E2" fillOpacity="0.04"/>
<path d="M0 84H678V85H0V84Z" fill="#E1E2E2" fillOpacity="0.04"/>
<path d="M0 86H678V87H0V86Z" fill="#E1E2E2" fillOpacity="0.04"/>
<path d="M0 88H678V89H0V88Z" fill="#E1E2E2" fillOpacity="0.04"/>
<path d="M0 90H678V91H0V90Z" fill="#E1E2E2" fillOpacity="0.04"/>
<path d="M0 92H678V93H0V92Z" fill="#E1E2E2" fillOpacity="0.04"/>
<path d="M0 94H678V95H0V94Z" fill="#E1E2E2" fillOpacity="0.04"/>
<path d="M0 96H678V97H0V96Z" fill="#E1E2E2" fillOpacity="0.04"/>
<path d="M0 98H678V99H0V98Z" fill="#E1E2E2" fillOpacity="0.04"/>
<path d="M0 100H678V101H0V100Z" fill="#E1E2E2" fillOpacity="0.04"/>
<path d="M0 102H678V103H0V102Z" fill="#E1E2E2" fillOpacity="0.04"/>
<path d="M0 104H678V105H0V104Z" fill="#E1E2E2" fillOpacity="0.04"/>
<path d="M0 106H678V107H0V106Z" fill="#E1E2E2" fillOpacity="0.04"/>
<path d="M0 108H678V109H0V108Z" fill="#E1E2E2" fillOpacity="0.04"/>
<path d="M0 110H678V111H0V110Z" fill="#E1E2E2" fillOpacity="0.04"/>
<path d="M0 112H678V113H0V112Z" fill="#E1E2E2" fillOpacity="0.04"/>
<path d="M0 114H678V115H0V114Z" fill="#E1E2E2" fillOpacity="0.04"/>
<path d="M0 116H678V117H0V116Z" fill="#E1E2E2" fillOpacity="0.04"/>
<path d="M0 118H678V119H0V118Z" fill="#E1E2E2" fillOpacity="0.04"/>
<path d="M0 120H678V121H0V120Z" fill="#E1E2E2" fillOpacity="0.04"/>
</g>
<defs>
<filter id="filter0_b_5837_766" x="-5" y="-27" width="688" height="153" filterUnits="userSpaceOnUse" colorInterpolationFilters="sRGB">
<feFlood floodOpacity="0" result="BackgroundImageFix"/>
<feGaussianBlur in="BackgroundImageFix" stdDeviation="2.5"/>
<feComposite in2="SourceAlpha" operator="in" result="effect1_backgroundBlur_5837_766"/>
<feBlend mode="normal" in="SourceGraphic" in2="effect1_backgroundBlur_5837_766" result="shape"/>
</filter>
</defs>
</svg>
