<svg width="18" height="18" viewBox="0 0 18 18" fill="none" xmlns="http://www.w3.org/2000/svg">
<path fillRule="evenodd" clipRule="evenodd" d="M2.19582 3.50111L4.89071 7.64254C5.56443 5.7094 7.51505 4.55587 9.56443 4.67581L16.8061 5.05679C16.0653 3.5893 14.9013 2.3123 13.3704 1.42334C11.9842 0.622568 10.4604 0.241585 8.96831 0.252168C6.39335 0.26275 3.87483 1.41276 2.19582 3.50111ZM8.99992 11.9498C7.37029 11.9498 6.05107 10.6304 6.05107 9.00068C6.05107 7.36739 7.37029 6.05158 8.99992 6.05158C10.6295 6.05158 11.9488 7.37091 11.9488 9.00068C11.9488 10.6304 10.6295 11.9498 8.99992 11.9498ZM17.1592 5.85403L12.2315 6.10802C13.5683 7.67076 13.5895 9.92491 12.4643 11.6534L8.51015 17.7351C10.1504 17.8233 11.84 17.4634 13.3708 16.5745C17.1592 14.3874 18.6936 9.80144 17.1592 5.85403ZM1.6773 4.20663L4.96831 10.6798C5.896 12.5036 7.8572 13.6183 9.88894 13.2373L7.64203 17.6398C3.45508 16.9978 0.252258 13.3749 0.252258 9.00067C0.252258 7.23333 0.777832 5.58241 1.6773 4.20663Z" fill="#A0ED61"/>
</svg>
