<svg width="18" height="18" viewBox="0 0 18 18" fill="none" xmlns="http://www.w3.org/2000/svg">
<path d="M5.95894 10.6402C5.936 11.393 6.19713 12.1269 6.69042 12.696C6.9201 12.9647 7.19083 13.1954 7.4926 13.3794C7.79892 13.5739 8.12651 13.7325 8.46895 13.8524C8.81883 13.9785 9.17969 14.0719 9.54685 14.1312C9.91224 14.1909 10.2818 14.2211 10.6521 14.2214C11.0894 14.224 11.5261 14.1874 11.9569 14.1121C12.3633 14.0365 12.7644 13.9342 13.1574 13.8059C13.5508 13.6765 13.9363 13.524 14.3119 13.3494C14.6942 13.1744 15.0816 12.9831 15.48 12.7698V16.4768C15.0511 16.6875 14.6111 16.8745 14.1619 17.0372C13.7295 17.1908 13.2896 17.3222 12.8438 17.4309C12.397 17.5411 11.9431 17.6209 11.4855 17.6699C11.0123 17.7212 10.5368 17.7473 10.0608 17.748C9.42166 17.7495 8.7847 17.6733 8.16394 17.5211C7.56802 17.3758 6.9924 17.1573 6.45024 16.8705C5.91944 16.5888 5.4261 16.2416 4.9818 15.8371C4.53901 15.436 4.15333 14.9761 3.83556 14.4702C3.51353 13.9546 3.26385 13.3971 3.09353 12.8136C2.91801 12.1947 2.8307 11.5541 2.83421 10.9109C2.83109 10.2148 2.93044 9.52216 3.12907 8.85508C3.31987 8.21572 3.60695 7.60916 3.98045 7.05627C4.35355 6.50421 4.8093 6.01277 5.33172 5.59918C5.87677 5.16726 6.48199 4.81729 7.12822 4.56035C6.76049 4.92883 6.47242 5.36896 6.28191 5.85342C6.08306 6.33232 5.95163 6.83649 5.89137 7.35152H12.1076C12.1076 6.72275 12.0448 6.176 11.9167 5.7058C11.7886 5.23559 11.5835 4.84466 11.2969 4.53419C11.0102 4.22371 10.6474 3.98743 10.1971 3.83434C9.74681 3.68125 9.20395 3.60002 8.56776 3.60002C7.8048 3.60053 7.0461 3.71384 6.31628 3.93627C5.56757 4.15676 4.849 4.46896 4.17689 4.86575C3.50309 5.26569 2.87682 5.74075 2.3101 6.28184C1.75781 6.80812 1.27616 7.40385 0.877197 8.05409C0.958636 7.33128 1.11692 6.61921 1.34936 5.92996C1.57142 5.26916 1.86903 4.63621 2.23628 4.04367C2.59431 3.47194 3.01952 2.94513 3.50281 2.4745C3.98334 2.00351 4.52476 1.59897 5.11263 1.27164C5.7117 0.935485 6.35088 0.676456 7.01496 0.500725C7.72752 0.336486 8.45631 0.253035 9.18755 0.251953C9.63557 0.252596 10.0827 0.292848 10.5236 0.372238C10.9648 0.452422 11.3998 0.563876 11.8253 0.705757C13.425 1.24466 14.8018 2.29703 15.7416 3.69922C16.1967 4.38646 16.5428 5.13982 16.768 5.9327C17.0056 6.7564 17.1254 7.6096 17.1238 8.46689V10.6402H5.95894Z" fill="#A0ED61"/>
</svg>
