<svg width="18" height="18" viewBox="0 0 18 18" fill="none" xmlns="http://www.w3.org/2000/svg">
<path d="M17.4144 6.60316V6.60042C17.4058 6.57074 17.3968 6.54106 17.3879 6.51138C17.3859 6.50396 17.3836 6.49653 17.3812 6.4895C17.3644 6.43327 17.3472 6.37703 17.3293 6.32118L17.3269 6.31336C17.2173 5.97292 17.0869 5.63954 16.9363 5.31511C16.7905 4.99379 16.6221 4.68317 16.4325 4.38559C15.7 3.20898 14.6997 2.22217 13.5132 1.50564C12.1512 0.68312 10.5899 0.249525 8.99875 0.251963C8.72534 0.251963 8.45193 0.265242 8.18554 0.291019C7.24344 0.39022 5.6553 0.72883 4.36674 1.86027C9.05734 -0.534613 15.324 2.34924 14.7908 7.71155C14.601 9.62527 12.9761 10.9403 11.4634 11.1621C11.1943 11.2032 10.9208 11.206 10.651 11.1703C6.95636 10.6567 7.18251 7.62875 8.30507 6.33406C6.82082 6.32469 5.66975 8.16147 6.22908 9.96622C4.94208 7.57681 6.24275 3.83452 8.99954 2.70191C5.75959 2.23324 2.72235 3.80327 1.74627 6.53207C1.86283 5.53463 2.09551 4.5542 2.43957 3.61073C2.43957 3.61073 0.673315 5.00657 0.31319 7.94198C0.307722 7.98728 0.302644 8.03258 0.297957 8.07828C0.296004 8.0939 0.294442 8.10952 0.29288 8.12554C0.279079 8.26223 0.268663 8.39984 0.261632 8.53835C0.261632 8.5489 0.261632 8.55944 0.261632 8.56999C0.258898 8.62779 0.256555 8.68715 0.254992 8.74417V8.79299C0.254992 8.86173 0.252258 8.93047 0.252258 8.9996C0.252258 13.8311 4.16949 17.748 9.00149 17.748C13.8335 17.748 17.748 13.8319 17.748 9.00038C17.7484 8.18971 17.6362 7.38292 17.4144 6.60316Z" fill="#A6A9AE"/>
</svg>
