<svg width="25" height="23" viewBox="0 0 25 23" fill="none" xmlns="http://www.w3.org/2000/svg">
<path d="M21.5226 2.67432L14.0273 8.24117L15.4134 4.9568L21.5226 2.67432Z" fill="#E2761B" stroke="#E2761B" strokeWidth="0.0753296" strokeLinecap="round" strokeLinejoin="round"/>
<path d="M4.21967 2.67432L11.6547 8.2939L10.3364 4.9568L4.21967 2.67432ZM18.8261 15.5783L16.8298 18.6366L21.101 19.8118L22.3289 15.6461L18.8261 15.5783ZM3.42871 15.6461L4.64905 19.8118L8.92024 18.6366L6.924 15.5783L3.42871 15.6461Z" fill="#E4761B" stroke="#E4761B" strokeWidth="0.0753296" strokeLinecap="round" strokeLinejoin="round"/>
<path d="M8.67898 10.4105L7.48877 12.2109L11.7298 12.3992L11.5792 7.84179L8.67898 10.4105ZM17.0632 10.4105L14.1253 7.78906L14.0274 12.3992L18.2609 12.2109L17.0632 10.4105ZM8.92003 18.6365L11.4662 17.3936L9.26655 15.6761L8.92003 18.6365ZM14.276 17.3936L16.8296 18.6365L16.4756 15.6761L14.276 17.3936Z" fill="#E4761B" stroke="#E4761B" strokeWidth="0.0753296" strokeLinecap="round" strokeLinejoin="round"/>
<path d="M16.83 18.6365L14.2763 17.3936L14.4797 19.0583L14.4571 19.7589L16.83 18.6365ZM8.92041 18.6365L11.2933 19.7589L11.2782 19.0583L11.4665 17.3936L8.92041 18.6365Z" fill="#D7C1B3" stroke="#D7C1B3" strokeWidth="0.0753296" strokeLinecap="round" strokeLinejoin="round"/>
<path d="M11.3308 14.5764L9.20654 13.9511L10.7056 13.2656L11.3308 14.5764ZM14.4118 14.5764L15.0371 13.2656L16.5436 13.9511L14.4118 14.5764Z" fill="#233447" stroke="#233447" strokeWidth="0.0753296" strokeLinecap="round" strokeLinejoin="round"/>
<path d="M8.92006 18.6365L9.28164 15.5782L6.92383 15.646L8.92006 18.6365ZM16.4681 15.5782L16.8297 18.6365L18.8259 15.646L16.4681 15.5782ZM18.2609 12.2109L14.0274 12.3993L14.4191 14.5763L15.0444 13.2656L16.5509 13.951L18.2609 12.2109ZM9.20631 13.951L10.7129 13.2656L11.3306 14.5763L11.7299 12.3993L7.4888 12.2109L9.20631 13.951Z" fill="#CD6116" stroke="#CD6116" strokeWidth="0.0753296" strokeLinecap="round" strokeLinejoin="round"/>
<path d="M7.48877 12.2109L9.26655 15.6761L9.20628 13.951L7.48877 12.2109ZM16.5509 13.951L16.4756 15.6761L18.2609 12.2109L16.5509 13.951ZM11.7298 12.3993L11.3306 14.5763L11.8278 17.145L11.9407 13.7627L11.7298 12.3993ZM14.0274 12.3993L13.824 13.7552L13.9144 17.145L14.4191 14.5763L14.0274 12.3993Z" fill="#E4751F" stroke="#E4751F" strokeWidth="0.0753296" strokeLinecap="round" strokeLinejoin="round"/>
<path d="M14.4193 14.5764L13.9146 17.1451L14.2762 17.3937L16.4758 15.6762L16.5512 13.9512L14.4193 14.5764ZM9.20654 13.9512L9.26681 15.6762L11.4664 17.3937L11.828 17.1451L11.3308 14.5764L9.20654 13.9512Z" fill="#F6851B" stroke="#F6851B" strokeWidth="0.0753296" strokeLinecap="round" strokeLinejoin="round"/>
<path d="M14.4571 19.7591L14.4797 19.0586L14.2914 18.8928H11.4515L11.2782 19.0586L11.2933 19.7591L8.92041 18.6367L9.74904 19.3147L11.4289 20.4823H14.314L16.0014 19.3147L16.83 18.6367L14.4571 19.7591Z" fill="#C0AD9E" stroke="#C0AD9E" strokeWidth="0.0753296" strokeLinecap="round" strokeLinejoin="round"/>
<path d="M14.2759 17.3936L13.9144 17.145H11.8277L11.4662 17.3936L11.2778 19.0584L11.4511 18.8927H14.291L14.4793 19.0584L14.2759 17.3936Z" fill="#161616" stroke="#161616" strokeWidth="0.0753296" strokeLinecap="round" strokeLinejoin="round"/>
<path d="M21.8392 8.60275L22.4795 5.52931L21.5229 2.67432L14.2762 8.05285L17.0634 10.4107L21.0031 11.5632L21.8769 10.5463L21.5003 10.2751L22.1029 9.72516L21.6359 9.36358L22.2385 8.90407L21.8392 8.60275ZM3.27051 5.52931L3.91081 8.60275L3.50403 8.90407L4.10667 9.36358L3.64716 9.72516L4.24979 10.2751L3.87314 10.5463L4.73943 11.5632L8.67917 10.4107L11.4664 8.05285L4.21966 2.67432L3.27051 5.52931Z" fill="#763D16" stroke="#763D16" strokeWidth="0.0753296" strokeLinecap="round" strokeLinejoin="round"/>
<path d="M21.0031 11.5629L17.0634 10.4104L18.2611 12.2108L16.4758 15.6759L18.8261 15.6458H22.3289L21.0031 11.5629ZM8.67918 10.4104L4.73945 11.5629L3.42871 15.6458H6.924L9.26675 15.6759L7.48897 12.2108L8.67918 10.4104ZM14.0276 12.3991L14.2762 8.05259L15.4212 4.95654H10.3364L11.4664 8.05259L11.73 12.3991L11.8204 13.7701L11.828 17.1449H13.9146L13.9297 13.7701L14.0276 12.3991Z" fill="#F6851B" stroke="#F6851B" strokeWidth="0.0753296" strokeLinecap="round" strokeLinejoin="round"/>
</svg>
