<svg width="11" height="13" viewBox="0 0 11 13" fill="none" xmlns="http://www.w3.org/2000/svg">
<path d="M5.77801 0.0109693C6.46844 0 7.15492 0.00650035 7.84061 0C7.88216 0.8292 8.17257 1.67384 8.7637 2.26009C9.35364 2.86097 10.1881 3.13601 11 3.22905V5.41032C10.2391 5.38472 9.47471 5.22222 8.78427 4.88582C8.48357 4.74607 8.20344 4.56609 7.92924 4.38205C7.92568 5.96488 7.93557 7.54568 7.91935 9.12202C7.8782 9.87931 7.63486 10.6329 7.20596 11.257C6.51592 12.2958 5.31824 12.9731 4.08812 12.9942C3.33358 13.0385 2.57984 12.8272 1.93689 12.438C0.871358 11.7928 0.121572 10.6118 0.0123682 9.34425C-0.000293143 9.07327 -0.00464548 8.80269 0.00603749 8.53821C0.100997 7.50749 0.597558 6.52147 1.36831 5.85072C2.24194 5.06946 3.46574 4.69731 4.61158 4.91751C4.62227 5.7199 4.59101 6.52147 4.59101 7.32386C4.06754 7.14998 3.45585 7.19873 2.99846 7.52496C2.66451 7.74719 2.41089 8.08765 2.27874 8.4728C2.16954 8.74743 2.20079 9.05255 2.20712 9.34425C2.33255 10.2332 3.16503 10.9803 4.0537 10.8995C4.64284 10.893 5.20746 10.5419 5.51449 10.028C5.6138 9.84803 5.72499 9.66398 5.73092 9.45232C5.78275 8.48336 5.76218 7.51846 5.76851 6.54951L5.7784 0.0113756L5.77801 0.0109693Z" fill="#E1E2E2"/>
</svg>
