<svg width="15" height="13" viewBox="0 0 15 13" fill="none" xmlns="http://www.w3.org/2000/svg">
<path d="M15 1.55749C14.4363 1.81786 13.8401 1.98999 13.23 2.06851C13.8736 1.65915 14.356 1.01516 14.5875 0.255988C13.9827 0.639302 13.3206 0.90937 12.63 1.05445C12.1684 0.521536 11.5537 0.166797 10.8824 0.0458732C10.211 -0.0750503 9.52091 0.0446811 8.92034 0.386289C8.31978 0.727898 7.8427 1.27206 7.56393 1.93343C7.28516 2.59481 7.22047 3.33598 7.38 4.04072C6.15707 3.97486 4.96083 3.63586 3.86899 3.04572C2.77715 2.45558 1.81413 1.62751 1.0425 0.615298C0.771853 1.11847 0.629639 1.68829 0.63 2.26812C0.62904 2.80659 0.753163 3.33696 0.991316 3.81201C1.22947 4.28705 1.57426 4.69203 1.995 4.99089C1.50598 4.97673 1.02741 4.83702 0.6 4.58367V4.6236C0.603665 5.37806 0.851996 6.10802 1.30299 6.69C1.75398 7.27198 2.37994 7.67026 3.075 7.81746C2.80744 7.90415 2.52966 7.94985 2.25 7.9532C2.05642 7.95079 1.86332 7.9321 1.6725 7.89731C1.87043 8.54631 2.25347 9.11349 2.76831 9.51992C3.28315 9.92635 3.90418 10.1518 4.545 10.1649C3.4629 11.0714 2.12691 11.5661 0.75 11.5702C0.499301 11.5711 0.248802 11.5551 0 11.5223C1.40582 12.4887 3.04411 13.0017 4.7175 12.9995C5.87227 13.0123 7.01785 12.7799 8.08734 12.3161C9.15682 11.8522 10.1288 11.1661 10.9464 10.2979C11.764 9.42965 12.411 8.39666 12.8494 7.25926C13.2879 6.12185 13.509 4.90284 13.5 3.67342C13.5 3.53768 13.5 3.39396 13.5 3.25023C14.0885 2.78298 14.5961 2.21017 15 1.55749Z" fill="#E1E2E2"/>
</svg>
